<svg width="24" height="24" viewBox="0 0 20 18" fill="none" xmlns="http://www.w3.org/2000/svg">
    <path fill-rule="evenodd" clip-rule="evenodd" d="M13.0402 1.05126C14.0502 1.45326 14.3592 2.85326 14.7722 3.30326C15.1852 3.75326 15.7762 3.90626 16.1032 3.90626C17.8412 3.90626 19.2502 5.31526 19.2502 7.05226V12.8473C19.2502 15.1773 17.3602 17.0673 15.0302 17.0673H4.97024C2.63924 17.0673 0.750244 15.1773 0.750244 12.8473V7.05226C0.750244 5.31526 2.15924 3.90626 3.89724 3.90626C4.22324 3.90626 4.81424 3.75326 5.22824 3.30326C5.64124 2.85326 5.94924 1.45326 6.95924 1.05126C7.97024 0.649256 12.0302 0.649256 13.0402 1.05126Z" stroke="#212121" stroke-width="1.5" stroke-linecap="round" stroke-linejoin="round"/>
    <path d="M15.4955 6.5H15.5045" stroke="#212121" stroke-width="2" stroke-linecap="round" stroke-linejoin="round"/>
    <path fill-rule="evenodd" clip-rule="evenodd" d="M13.179 10.128C13.179 8.37197 11.756 6.94897 10 6.94897C8.24404 6.94897 6.82104 8.37197 6.82104 10.128C6.82104 11.884 8.24404 13.307 10 13.307C11.756 13.307 13.179 11.884 13.179 10.128Z" stroke="#212121" stroke-width="1.5" stroke-linecap="round" stroke-linejoin="round"/>
</svg>
