<svg width="24" height="24" viewBox="0 0 20 20" fill="none" xmlns="http://www.w3.org/2000/svg">
    <path fill-rule="evenodd" clip-rule="evenodd" d="M14.334 0.750122H5.665C2.644 0.750122 0.75 2.88912 0.75 5.91612V14.0841C0.75 17.1111 2.635 19.2501 5.665 19.2501H14.333C17.364 19.2501 19.25 17.1111 19.25 14.0841V5.91612C19.25 2.88912 17.364 0.750122 14.334 0.750122Z" stroke="#212121" stroke-width="1.5" stroke-linecap="round" stroke-linejoin="round"/>
    <path fill-rule="evenodd" clip-rule="evenodd" d="M8.68911 10.0001C8.68911 11.0231 7.86011 11.8521 6.83711 11.8521C5.81411 11.8521 4.98511 11.0231 4.98511 10.0001C4.98511 8.97707 5.81411 8.14807 6.83711 8.14807H6.84011C7.86111 8.14907 8.68911 8.97807 8.68911 10.0001Z" stroke="#212121" stroke-width="1.5" stroke-linecap="round" stroke-linejoin="round"/>
    <path d="M8.69189 10.0001H15.0099V11.8521" stroke="#212121" stroke-width="1.5" stroke-linecap="round" stroke-linejoin="round"/>
    <path d="M12.1816 11.8522V10.0002" stroke="#212121" stroke-width="1.5" stroke-linecap="round" stroke-linejoin="round"/>
</svg>
