<svg width="32" height="32" viewBox="0 0 32 32" fill="none" xmlns="http://www.w3.org/2000/svg">
<path d="M11.578 31.9999C6.81548 31.9725 2.87598 22.2505 2.87598 17.2993C2.87598 9.21156 8.94316 7.44094 11.2814 7.44094C12.3352 7.44094 13.4604 7.85475 14.4528 8.22094C15.1468 8.47638 15.8645 8.74006 16.2637 8.74006C16.5027 8.74006 17.0657 8.51575 17.5629 8.31894C18.623 7.89688 19.9423 7.37231 21.4785 7.37231C21.4813 7.37231 21.485 7.37231 21.4877 7.37231C22.6348 7.37231 26.1129 7.62406 28.204 10.7643L28.6938 11.5004L27.9889 12.0323C26.9818 12.7922 25.1443 14.1783 25.1443 16.924C25.1443 20.1759 27.2253 21.4266 28.225 22.0281C28.6664 22.2936 29.1232 22.5673 29.1232 23.1661C29.1232 23.557 26.003 31.9514 21.4721 31.9514C20.3634 31.9514 19.5797 31.6182 18.8885 31.3243C18.189 31.0268 17.5857 30.7704 16.5887 30.7704C16.0833 30.7704 15.4442 31.0094 14.7677 31.263C13.8431 31.6081 12.7966 31.9999 11.6092 31.9999H11.578Z" fill="black"/>
<path d="M21.9581 0C22.0761 4.25475 19.0333 7.2065 15.994 7.02138C15.4932 3.62594 19.0329 0 21.9581 0Z" fill="black"/>
</svg>
