<svg width="32" height="32" viewBox="0 0 32 32" fill="none" xmlns="http://www.w3.org/2000/svg">
<path d="M16.0003 2.6665C8.64833 2.6665 2.66699 8.64784 2.66699 15.9998C2.66699 23.3518 8.64833 29.3332 16.0003 29.3332C23.3523 29.3332 29.3337 23.3518 29.3337 15.9998C29.3337 8.64784 23.3523 2.6665 16.0003 2.6665ZM17.3337 22.5532V23.9998H14.667V22.5598C11.5483 22.0705 10.667 19.8905 10.667 18.6665H13.3337C13.3483 18.8572 13.5457 19.9998 16.0003 19.9998C17.8403 19.9998 18.667 19.2198 18.667 18.6665C18.667 18.2345 18.667 17.3332 16.0003 17.3332C11.3603 17.3332 10.667 14.8265 10.667 13.3332C10.667 11.6158 12.039 9.88784 14.667 9.4465V8.01584H17.3337V9.4945C19.6457 10.0412 20.5337 11.9652 20.5337 13.3332H19.2003L17.867 13.3572C17.8483 12.8505 17.5803 11.9998 16.0003 11.9998C14.2683 11.9998 13.3337 12.6878 13.3337 13.3332C13.3337 13.8318 13.3337 14.6665 16.0003 14.6665C20.6403 14.6665 21.3337 17.1732 21.3337 18.6665C21.3337 20.3838 19.9617 22.1118 17.3337 22.5532Z" fill="#FEBB1B"/>
</svg>
