<svg width="52" height="52" viewBox="0 0 52 52" fill="none" xmlns="http://www.w3.org/2000/svg">
    <rect width="52" height="52" rx="26" fill="url(#paint0_linear_2356_19154)"/>
    <path d="M30.083 20.0908C31.3249 20.8074 32.3561 21.8385 33.0729 23.0802C33.7897 24.3219 34.1669 25.7306 34.1663 27.1643V36.4977H29.3013C29.0603 37.1808 28.6133 37.7723 28.022 38.1908C27.4306 38.6092 26.7241 38.8339 25.9997 38.8339C25.2753 38.8339 24.5687 38.6092 23.9774 38.1908C23.386 37.7723 22.939 37.1808 22.698 36.4977H17.833V27.1643C17.8325 25.7306 18.2096 24.3219 18.9264 23.0802C19.6432 21.8385 20.6745 20.8074 21.9163 20.0908C21.7246 19.7465 21.5776 19.3792 21.4788 18.9977H17.833V16.6643H21.48C21.7395 15.6631 22.3242 14.7763 23.1422 14.1433C23.9602 13.5102 24.9653 13.1667 25.9997 13.1667C27.034 13.1667 28.0391 13.5102 28.8571 14.1433C29.6752 14.7763 30.2598 15.6631 30.5193 16.6643H34.1663V18.9977H30.5193C30.4207 19.3789 30.2745 19.7462 30.0842 20.0908H30.083ZM25.9997 28.331C25.6903 28.331 25.3935 28.4539 25.1747 28.6727C24.9559 28.8915 24.833 29.1883 24.833 29.4977V35.331C24.833 35.6404 24.9559 35.9372 25.1747 36.156C25.3935 36.3748 25.6903 36.4977 25.9997 36.4977C26.3091 36.4977 26.6058 36.3748 26.8246 36.156C27.0434 35.9372 27.1663 35.6404 27.1663 35.331V29.4977C27.1663 29.1883 27.0434 28.8915 26.8246 28.6727C26.6058 28.4539 26.3091 28.331 25.9997 28.331ZM25.9997 20.1643C26.6185 20.1643 27.212 19.9185 27.6496 19.4809C28.0872 19.0433 28.333 18.4499 28.333 17.831C28.333 17.2122 28.0872 16.6187 27.6496 16.1811C27.212 15.7435 26.6185 15.4977 25.9997 15.4977C25.3808 15.4977 24.7873 15.7435 24.3498 16.1811C23.9122 16.6187 23.6663 17.2122 23.6663 17.831C23.6663 18.4499 23.9122 19.0433 24.3498 19.4809C24.7873 19.9185 25.3808 20.1643 25.9997 20.1643Z" fill="#35383F"/>
    <defs>
        <linearGradient id="paint0_linear_2356_19154" x1="52" y1="52" x2="-9.87533" y2="34.0598" gradientUnits="userSpaceOnUse">
            <stop stop-color="#FEBB1B"/>
            <stop offset="1" stop-color="#FFC740"/>
        </linearGradient>
    </defs>
</svg>
