<svg width="20" height="21" viewBox="0 0 20 21" fill="none" xmlns="http://www.w3.org/2000/svg">
    <path d="M16.666 2.16675H8.33268C7.89065 2.16675 7.46673 2.34234 7.15417 2.6549C6.84161 2.96746 6.66602 3.39139 6.66602 3.83341V5.50008H13.3327C13.7747 5.50008 14.1986 5.67568 14.5112 5.98824C14.8238 6.3008 14.9993 6.72472 14.9993 7.16675V13.8334H16.666C17.108 13.8334 17.532 13.6578 17.8445 13.3453C18.1571 13.0327 18.3327 12.6088 18.3327 12.1667V3.83341C18.3327 3.39139 18.1571 2.96746 17.8445 2.6549C17.532 2.34234 17.108 2.16675 16.666 2.16675Z" fill="#FEBB1B"/>
    <path d="M3.33268 18.8334H11.666C12.5852 18.8334 13.3327 18.0859 13.3327 17.1667V8.83341C13.3327 7.91425 12.5852 7.16675 11.666 7.16675H3.33268C2.41352 7.16675 1.66602 7.91425 1.66602 8.83341V17.1667C1.66602 18.0859 2.41352 18.8334 3.33268 18.8334ZM4.99935 10.5001H9.99935V12.1667H4.99935V10.5001ZM4.99935 13.8334H9.99935V15.5001H4.99935V13.8334Z" fill="#FEBB1B"/>
</svg>
