<svg width="20" height="20" viewBox="0 0 20 20" fill="none" xmlns="http://www.w3.org/2000/svg">
    <path d="M6.66797 3.33366V13.3337C6.66797 13.7757 6.84356 14.1996 7.15612 14.5122C7.46869 14.8247 7.89261 15.0003 8.33464 15.0003H15.0013C15.4433 15.0003 15.8673 14.8247 16.1798 14.5122C16.4924 14.1996 16.668 13.7757 16.668 13.3337V6.03533C16.6679 5.81329 16.6235 5.5935 16.5374 5.38886C16.4513 5.18422 16.3251 4.99886 16.1663 4.84366L13.4038 2.14199C13.0924 1.83754 12.6743 1.66705 12.2388 1.66699H8.33464C7.89261 1.66699 7.46869 1.84259 7.15612 2.15515C6.84356 2.46771 6.66797 2.89163 6.66797 3.33366V3.33366Z" stroke="#FEBB1B" stroke-width="2" stroke-linecap="round" stroke-linejoin="round"/>
    <path d="M13.334 15.0007V16.6673C13.334 17.1093 13.1584 17.5333 12.8458 17.8458C12.5333 18.1584 12.1093 18.334 11.6673 18.334H5.00065C4.55862 18.334 4.1347 18.1584 3.82214 17.8458C3.50958 17.5333 3.33398 17.1093 3.33398 16.6673V7.50065C3.33398 7.05862 3.50958 6.6347 3.82214 6.32214C4.1347 6.00958 4.55862 5.83398 5.00065 5.83398H6.66732" stroke="#FEBB1B" stroke-width="2" stroke-linecap="round" stroke-linejoin="round"/>
</svg>
