<svg width="74" height="25" viewBox="0 0 74 25" fill="none" xmlns="http://www.w3.org/2000/svg">
    <path d="M2.32222 0.87868C0 1.75736 0 3.17157 0 6V15C0 17.8284 0 19.2426 2.32222 20.1213C4.64445 21 8.38201 21 15.8571 21H20.2827C26.9504 21 33.1987 22.2309 37.0224 24.2978C37.6132 24.6172 37.9086 24.7769 38.3214 24.7769C38.7342 24.7769 39.0297 24.6172 39.6205 24.2978C43.4442 22.2309 49.6925 21 56.3602 21H58.1429C65.618 21 69.3556 21 71.6778 20.1213C74 19.2426 74 17.8284 74 15V6C74 3.17157 74 1.75736 71.6778 0.87868C69.3556 0 65.618 0 58.1429 0H15.8571C8.38201 0 4.64445 0 2.32222 0.87868Z" fill="url(#paint0_linear_1240_33815)"/>
    <defs>
        <linearGradient id="paint0_linear_1240_33815" x1="74" y1="24.7769" x2="19.4501" y2="-22.4609" gradientUnits="userSpaceOnUse">
            <stop stop-color="#FEBB1B"/>
            <stop offset="1" stop-color="#FFC740"/>
        </linearGradient>
    </defs>
</svg>
