<?xml version="1.0" encoding="UTF-8"?>
<!DOCTYPE svg PUBLIC "-//W3C//DTD SVG 1.1//EN" "http://www.w3.org/Graphics/SVG/1.1/DTD/svg11.dtd">
<svg xmlns="http://www.w3.org/2000/svg" version="1.1" width="1080px" height="1080px" style="shape-rendering:geometricPrecision; text-rendering:geometricPrecision; image-rendering:optimizeQuality; fill-rule:evenodd; clip-rule:evenodd" xmlns:xlink="http://www.w3.org/1999/xlink">
<g><path style="opacity:0.999" fill="#304653" d="M 252.5,310.5 C 417.167,310.333 581.834,310.5 746.5,311C 754.833,311.333 763.167,311.667 771.5,312C 775.234,312.733 777.734,314.9 779,318.5C 815.547,471.184 778.047,602.351 666.5,712C 647.942,729.615 627.275,744.281 604.5,756C 583.98,765.971 562.314,770.304 539.5,769C 416.16,769.928 292.827,769.595 169.5,768C 162.563,765.398 158.063,760.565 156,753.5C 155.024,610.154 155.357,466.821 157,323.5C 159.382,315.894 164.549,312.061 172.5,312C 199.336,311.832 226.003,311.332 252.5,310.5 Z"/></g>
<g><path style="opacity:1" fill="#b4a050" d="M 848.5,538.5 C 847.325,538.719 846.325,538.386 845.5,537.5C 835.159,503.459 824.825,469.459 814.5,435.5C 813.833,426.342 813.167,417.342 812.5,408.5C 811.542,402.256 811.209,395.923 811.5,389.5C 811.663,382.938 810.996,376.605 809.5,370.5C 806.171,351.831 802.171,333.165 797.5,314.5C 797.529,312.971 798.196,311.804 799.5,311C 827.071,312.9 845.904,326.734 856,352.5C 867.647,384.225 871.314,416.892 867,450.5C 863.361,480.386 857.194,509.719 848.5,538.5 Z"/></g>
<g><path style="opacity:0.02" fill="#eeead8" d="M 809.5,370.5 C 810.996,376.605 811.663,382.938 811.5,389.5C 810.253,383.37 809.586,377.037 809.5,370.5 Z"/></g>
<g><path style="opacity:1" fill="#b4a050" d="M 885.5,627.5 C 884.234,626.91 882.901,626.41 881.5,626C 881.833,625.667 882.167,625.333 882.5,625C 875.079,601.715 867.746,578.048 860.5,554C 861.077,551.863 861.41,549.696 861.5,547.5C 877.065,500.442 885.399,452.108 886.5,402.5C 889.226,402.264 891.559,403.097 893.5,405C 909.479,420.456 918.979,439.29 922,461.5C 928.138,520.939 915.971,576.272 885.5,627.5 Z"/></g>
<g><path style="opacity:1" fill="#c5b265" d="M 812.5,408.5 C 813.167,417.342 813.833,426.342 814.5,435.5C 824.825,469.459 835.159,503.459 845.5,537.5C 846.325,538.386 847.325,538.719 848.5,538.5C 847.029,543.579 845.363,548.579 843.5,553.5C 841.473,554.09 839.807,553.256 838.5,551C 829.358,520.99 820.358,492.156 811.5,464.5C 811.722,461.645 811.889,458.645 812,455.5C 812.333,455.833 812.667,456.167 813,456.5C 813.273,454.899 813.773,453.399 814.5,452C 814,451.5 813.5,451 813,450.5C 812.501,444.509 812.334,438.509 812.5,432.5C 812.5,424.5 812.5,416.5 812.5,408.5 Z"/></g>
<g><path style="opacity:1" fill="#d2bf74" d="M 812.5,432.5 C 812.334,438.509 812.501,444.509 813,450.5C 813.5,451 814,451.5 814.5,452C 813.773,453.399 813.273,454.899 813,456.5C 812.667,456.167 812.333,455.833 812,455.5C 811.889,458.645 811.722,461.645 811.5,464.5C 820.358,492.156 829.358,520.99 838.5,551C 839.807,553.256 841.473,554.09 843.5,553.5C 841.387,561.054 838.721,568.387 835.5,575.5C 834.448,575.649 833.448,575.483 832.5,575C 826.205,550.146 818.705,524.646 810,498.5C 808.653,492.905 807.82,487.238 807.5,481.5C 809.599,465.065 811.265,448.731 812.5,432.5 Z"/></g>
<g><path style="opacity:1" fill="#b4a051" d="M 647.5,484.5 C 646.178,484.33 645.011,484.663 644,485.5C 641.959,489.084 639.792,492.584 637.5,496C 638.056,496.383 638.389,496.883 638.5,497.5C 626.248,497.542 617.748,503.209 613,514.5C 611.358,519.402 610.191,524.402 609.5,529.5C 602.431,538.68 596.764,548.347 592.5,558.5C 590.332,554.159 588.832,549.492 588,544.5C 584.113,524.495 589.613,507.662 604.5,494C 617.519,484.031 631.852,480.864 647.5,484.5 Z"/></g>
<g><path style="opacity:1" fill="#b09e52" d="M 392.5,533.5 C 392.167,533.5 391.833,533.5 391.5,533.5C 391.5,530.5 391.5,527.5 391.5,524.5C 391.666,519.156 391.499,513.823 391,508.5C 385.868,516.201 381.201,524.201 377,532.5C 375.245,535.044 373.245,537.377 371,539.5C 370.501,545.491 370.334,551.491 370.5,557.5C 369.833,546.505 369.5,535.338 369.5,524C 369.353,512.074 369.853,500.241 371,488.5C 371.75,487.874 372.584,487.374 373.5,487C 378.167,486.333 382.833,486.333 387.5,487C 389.667,487.833 391.167,489.333 392,491.5C 392.5,505.496 392.667,519.496 392.5,533.5 Z"/></g>
<g><path style="opacity:1" fill="#b19e4e" d="M 510.5,511.5 C 507.026,516.883 504.026,522.549 501.5,528.5C 499.108,524.722 496.941,520.722 495,516.5C 493.744,526.459 493.244,536.459 493.5,546.5C 488.589,554.964 483.756,563.631 479,572.5C 478.586,576.351 477.752,580.017 476.5,583.5C 475.206,582.71 474.039,581.71 473,580.5C 472.833,576.667 472.667,572.833 472.5,569C 473.195,542.772 474.362,516.605 476,490.5C 476.785,488.714 477.951,487.214 479.5,486C 485.944,485.085 492.277,485.419 498.5,487C 502.975,494.922 506.975,503.088 510.5,511.5 Z"/></g>
<g><path style="opacity:1" fill="#bfad63" d="M 549.5,486.5 C 554.65,485.349 559.984,485.183 565.5,486C 568.534,487.191 570.201,489.358 570.5,492.5C 569.492,499.687 566.992,506.354 563,512.5C 561.486,519.189 558.152,524.856 553,529.5C 552.828,524.798 552.328,520.132 551.5,515.5C 550.702,515.957 550.369,516.624 550.5,517.5C 544.013,530.473 537.513,543.473 531,556.5C 529.945,559.056 528.112,560.723 525.5,561.5C 537.818,538.219 550.318,514.552 563,490.5C 563.49,489.207 563.657,487.873 563.5,486.5C 562.167,486.5 560.833,486.5 559.5,486.5C 556.167,486.5 552.833,486.5 549.5,486.5 Z"/></g>
<g><path style="opacity:1" fill="#af9d51" d="M 286.5,501.5 C 286.649,500.448 286.483,499.448 286,498.5C 285.667,498.833 285.333,499.167 285,499.5C 279.488,507.204 273.988,514.871 268.5,522.5C 267.504,528.463 267.171,534.463 267.5,540.5C 264.677,525.531 266.843,511.197 274,497.5C 277.91,491.464 283.41,488.464 290.5,488.5C 288.818,492.828 287.485,497.162 286.5,501.5 Z"/></g>
<g><path style="opacity:1" fill="#9b8739" d="M 328.5,579.5 C 328.5,565.833 328.5,552.167 328.5,538.5C 317.5,538.5 306.5,538.5 295.5,538.5C 297.894,534.055 300.56,529.722 303.5,525.5C 301.709,524.83 300.042,524.163 298.5,523.5C 308.167,523.5 317.833,523.5 327.5,523.5C 327.5,513.167 327.5,502.833 327.5,492.5C 326.325,492.719 325.325,492.386 324.5,491.5C 330.265,484.446 336.932,483.612 344.5,489C 346.617,490.731 348.117,492.898 349,495.5C 350.142,510.102 350.642,524.768 350.5,539.5C 350.333,553.167 350.167,566.833 350,580.5C 347.032,583.602 343.366,584.935 339,584.5C 334.312,585.071 330.812,583.404 328.5,579.5 Z"/></g>
<g><path style="opacity:1" fill="#e9d78f" d="M 647.5,484.5 C 655.688,486.111 663.021,489.444 669.5,494.5C 669.733,501.097 667.4,506.597 662.5,511C 661.552,511.483 660.552,511.649 659.5,511.5C 655.073,503.111 648.073,498.444 638.5,497.5C 638.389,496.883 638.056,496.383 637.5,496C 639.792,492.584 641.959,489.084 644,485.5C 645.011,484.663 646.178,484.33 647.5,484.5 Z"/></g>
<g><path style="opacity:1" fill="#c5b369" d="M 450.5,487.5 C 444.928,496.973 439.095,506.307 433,515.5C 432.5,507.507 432.334,499.507 432.5,491.5C 433.353,488.482 435.353,486.649 438.5,486C 442.806,485.088 446.806,485.588 450.5,487.5 Z"/></g>
<g><path style="opacity:1" fill="#304653" d="M 638.5,497.5 C 648.073,498.444 655.073,503.111 659.5,511.5C 663.699,519.64 665.366,528.306 664.5,537.5C 663.356,550.289 658.023,561.122 648.5,570C 643.145,573.352 637.478,574.186 631.5,572.5C 622.577,569.026 616.577,562.693 613.5,553.5C 610.57,545.776 609.237,537.776 609.5,529.5C 610.191,524.402 611.358,519.402 613,514.5C 617.748,503.209 626.248,497.542 638.5,497.5 Z"/></g>
<g><path style="opacity:1" fill="#9c893c" d="M 450.5,487.5 C 452.411,487.574 453.578,488.574 454,490.5C 454.667,513.167 454.667,535.833 454,558.5C 449.546,574.618 439.046,584.118 422.5,587C 415.5,587.667 408.5,587.667 401.5,587C 396.388,586.024 391.722,584.191 387.5,581.5C 392.591,577.063 396.591,571.73 399.5,565.5C 408.458,569.864 417.124,569.364 425.5,564C 427.123,561.92 428.623,559.754 430,557.5C 431.123,535.38 431.956,513.38 432.5,491.5C 432.334,499.507 432.5,507.507 433,515.5C 439.095,506.307 444.928,496.973 450.5,487.5 Z"/></g>
<g><path style="opacity:1" fill="#decc82" d="M 807.5,481.5 C 807.82,487.238 808.653,492.905 810,498.5C 818.705,524.646 826.205,550.146 832.5,575C 833.448,575.483 834.448,575.649 835.5,575.5C 831.952,585.59 827.619,595.257 822.5,604.5C 822.539,603.244 822.039,602.244 821,601.5C 820.798,603.256 820.298,604.922 819.5,606.5C 810.989,581.633 803.323,556.466 796.5,531C 797.233,529.234 797.567,527.401 797.5,525.5C 801.18,510.791 804.513,496.124 807.5,481.5 Z"/></g>
<g><path style="opacity:1" fill="#af9d50" d="M 261.5,535.5 C 257.623,538.707 254.956,542.707 253.5,547.5C 252.344,540.011 252.178,532.345 253,524.5C 254.424,517.303 258.091,511.637 264,507.5C 263.981,510.244 263.314,512.911 262,515.5C 261.5,522.158 261.334,528.825 261.5,535.5 Z"/></g>
<g><path style="opacity:1" fill="#9a8739" d="M 570.5,492.5 C 572.606,521.643 573.44,550.977 573,580.5C 568.108,584.776 562.608,585.61 556.5,583C 555.299,582.097 554.465,580.931 554,579.5C 553.062,558.668 551.895,538.001 550.5,517.5C 550.369,516.624 550.702,515.957 551.5,515.5C 552.328,520.132 552.828,524.798 553,529.5C 558.152,524.856 561.486,519.189 563,512.5C 566.992,506.354 569.492,499.687 570.5,492.5 Z"/></g>
<g><path style="opacity:1" fill="#c7b469" d="M 669.5,494.5 C 673.628,497.29 676.628,500.957 678.5,505.5C 678.146,507.541 678.146,509.374 678.5,511C 673.278,520.08 668.611,528.913 664.5,537.5C 665.366,528.306 663.699,519.64 659.5,511.5C 660.552,511.649 661.552,511.483 662.5,511C 667.4,506.597 669.733,501.097 669.5,494.5 Z"/></g>
<g><path style="opacity:1" fill="#d7c57a" d="M 391.5,524.5 C 386.024,532.768 380.524,541.101 375,549.5C 373.832,553.847 372.666,558.18 371.5,562.5C 370.549,561.081 370.216,559.415 370.5,557.5C 370.334,551.491 370.501,545.491 371,539.5C 373.245,537.377 375.245,535.044 377,532.5C 381.201,524.201 385.868,516.201 391,508.5C 391.499,513.823 391.666,519.156 391.5,524.5 Z"/></g>
<g><path style="opacity:1" fill="#9a8738" d="M 684.5,518.5 C 690.118,541.523 684.452,561.357 667.5,578C 661.543,582.486 654.876,585.32 647.5,586.5C 649.305,581.737 651.305,577.571 653.5,574C 663.215,558.605 672.549,542.938 681.5,527C 682.939,524.295 683.939,521.462 684.5,518.5 Z"/></g>
<g><path style="opacity:1" fill="#ad9a4d" d="M 678.5,505.5 C 681.82,509.144 683.82,513.478 684.5,518.5C 683.939,521.462 682.939,524.295 681.5,527C 672.549,542.938 663.215,558.605 653.5,574C 651.305,577.571 649.305,581.737 647.5,586.5C 640.202,587.559 632.869,587.726 625.5,587C 622.896,586.61 620.562,585.776 618.5,584.5C 620.575,584.698 622.575,584.865 624.5,585C 627.859,581.439 630.192,577.273 631.5,572.5C 637.478,574.186 643.145,573.352 648.5,570C 658.023,561.122 663.356,550.289 664.5,537.5C 668.611,528.913 673.278,520.08 678.5,511C 678.146,509.374 678.146,507.541 678.5,505.5 Z"/></g>
<g><path style="opacity:1" fill="#e5d38a" d="M 286.5,501.5 C 285.698,508.804 285.365,516.138 285.5,523.5C 288.833,523.5 292.167,523.5 295.5,523.5C 286.406,533.591 278.073,544.258 270.5,555.5C 268.855,550.662 267.855,545.662 267.5,540.5C 267.171,534.463 267.504,528.463 268.5,522.5C 273.988,514.871 279.488,507.204 285,499.5C 285.333,499.167 285.667,498.833 286,498.5C 286.483,499.448 286.649,500.448 286.5,501.5 Z"/></g>
<g><path style="opacity:1" fill="#e8d78f" d="M 549.5,486.5 C 552.833,486.5 556.167,486.5 559.5,486.5C 555.263,491.011 552.429,496.344 551,502.5C 548.487,506.858 545.487,510.858 542,514.5C 535.645,530.366 528.145,545.699 519.5,560.5C 517.164,558.996 515.331,556.996 514,554.5C 509.549,545.933 505.383,537.267 501.5,528.5C 504.026,522.549 507.026,516.883 510.5,511.5C 513.954,518.408 517.454,525.408 521,532.5C 522.049,533.517 523.216,533.684 524.5,533C 532.006,519.154 538.84,504.987 545,490.5C 546.049,488.616 547.549,487.282 549.5,486.5 Z"/></g>
<g><path style="opacity:1" fill="#d7c57b" d="M 559.5,486.5 C 560.833,486.5 562.167,486.5 563.5,486.5C 563.657,487.873 563.49,489.207 563,490.5C 550.318,514.552 537.818,538.219 525.5,561.5C 523.265,561.795 521.265,561.461 519.5,560.5C 528.145,545.699 535.645,530.366 542,514.5C 545.487,510.858 548.487,506.858 551,502.5C 552.429,496.344 555.263,491.011 559.5,486.5 Z"/></g>
<g><path style="opacity:1" fill="#666846" d="M 285.5,539.5 C 288.625,538.521 291.958,538.187 295.5,538.5C 306.5,538.5 317.5,538.5 328.5,538.5C 328.5,552.167 328.5,565.833 328.5,579.5C 327.504,566.344 327.171,553.01 327.5,539.5C 313.5,539.5 299.5,539.5 285.5,539.5 Z"/></g>
<g><path style="opacity:1" fill="#cfbd72" d="M 609.5,529.5 C 609.237,537.776 610.57,545.776 613.5,553.5C 612.312,552.316 611.145,552.316 610,553.5C 609.683,551.699 609.016,551.366 608,552.5C 604.807,558.226 601.64,563.892 598.5,569.5C 595.742,566.322 593.742,562.655 592.5,558.5C 596.764,548.347 602.431,538.68 609.5,529.5 Z"/></g>
<g><path style="opacity:1" fill="#cbb86d" d="M 295.5,523.5 C 296.5,523.5 297.5,523.5 298.5,523.5C 300.042,524.163 301.709,524.83 303.5,525.5C 300.56,529.722 297.894,534.055 295.5,538.5C 291.958,538.187 288.625,538.521 285.5,539.5C 285.5,543.167 285.5,546.833 285.5,550.5C 281.5,555.167 277.5,559.833 273.5,564.5C 272.302,561.574 271.302,558.574 270.5,555.5C 278.073,544.258 286.406,533.591 295.5,523.5 Z"/></g>
<g><path style="opacity:1" fill="#e7d58d" d="M 261.5,535.5 C 262.212,542.963 263.546,550.296 265.5,557.5C 266.787,562.107 265.62,566.107 262,569.5C 261.329,568.748 260.496,568.414 259.5,568.5C 255.879,561.97 253.879,554.97 253.5,547.5C 254.956,542.707 257.623,538.707 261.5,535.5 Z"/></g>
<g><path style="opacity:1" fill="#ecda92" d="M 391.5,524.5 C 391.5,527.5 391.5,530.5 391.5,533.5C 391.813,540.755 391.48,547.921 390.5,555C 391.167,555.333 391.833,555.667 392.5,556C 389.698,561.123 386.531,565.956 383,570.5C 381.736,572.607 379.903,573.607 377.5,573.5C 374.742,570.322 372.742,566.655 371.5,562.5C 372.666,558.18 373.832,553.847 375,549.5C 380.524,541.101 386.024,532.768 391.5,524.5 Z"/></g>
<g><path style="opacity:1" fill="#9b883c" d="M 285.5,550.5 C 286.727,562.976 289.727,574.976 294.5,586.5C 284.134,582.465 277.134,575.132 273.5,564.5C 277.5,559.833 281.5,555.167 285.5,550.5 Z"/></g>
<g><path style="opacity:1" fill="#e9d790" d="M 613.5,553.5 C 616.577,562.693 622.577,569.026 631.5,572.5C 630.192,577.273 627.859,581.439 624.5,585C 622.575,584.865 620.575,584.698 618.5,584.5C 610.131,581.802 603.465,576.802 598.5,569.5C 601.64,563.892 604.807,558.226 608,552.5C 609.016,551.366 609.683,551.699 610,553.5C 611.145,552.316 612.312,552.316 613.5,553.5 Z"/></g>
<g><path style="opacity:1" fill="#beab5d" d="M 861.5,547.5 C 861.41,549.696 861.077,551.863 860.5,554C 867.746,578.048 875.079,601.715 882.5,625C 882.167,625.333 881.833,625.667 881.5,626C 882.901,626.41 884.234,626.91 885.5,627.5C 883.07,632.037 880.403,636.37 877.5,640.5C 875.333,639.354 874,637.521 873.5,635C 870.013,635.833 869.013,634.499 870.5,631C 868.147,627.558 866.98,623.725 867,619.5C 866.333,618.167 865.333,617.167 864,616.5C 862.668,608.688 861.001,601.021 859,593.5C 855.774,590.522 854.607,587.022 855.5,583C 852.833,582.333 852.833,581.667 855.5,581C 854.167,580 852.833,579 851.5,578C 852.308,577.692 852.975,577.192 853.5,576.5C 852.691,574.929 852.357,573.262 852.5,571.5C 855.129,563.27 858.129,555.27 861.5,547.5 Z"/></g>
<g><path style="opacity:1" fill="#efdd96" d="M 797.5,525.5 C 797.567,527.401 797.233,529.234 796.5,531C 803.323,556.466 810.989,581.633 819.5,606.5C 820.298,604.922 820.798,603.256 821,601.5C 822.039,602.244 822.539,603.244 822.5,604.5C 811.761,627.667 798.761,649.333 783.5,669.5C 783.586,668.504 783.252,667.671 782.5,667C 783.308,666.692 783.975,666.192 784.5,665.5C 779.506,647.629 774.006,629.295 768,610.5C 767,609.167 766,609.167 765,610.5C 764.658,608.381 763.825,608.047 762.5,609.5C 776.913,582.581 788.58,554.581 797.5,525.5 Z"/></g>
<g><path style="opacity:1" fill="#e4d28b" d="M 257.5,573.5 C 257.501,578.766 255.168,581.1 250.5,580.5C 243.114,571.302 241.78,561.302 246.5,550.5C 247.274,549.289 248.107,549.289 249,550.5C 250.558,558.679 253.392,566.346 257.5,573.5 Z"/></g>
<g><path style="opacity:1" fill="#d3c177" d="M 391.5,533.5 C 391.833,533.5 392.167,533.5 392.5,533.5C 392.334,540.508 392.5,547.508 393,554.5C 394.564,558.555 396.731,562.221 399.5,565.5C 396.591,571.73 392.591,577.063 387.5,581.5C 383.397,579.784 380.064,577.117 377.5,573.5C 379.903,573.607 381.736,572.607 383,570.5C 386.531,565.956 389.698,561.123 392.5,556C 391.833,555.667 391.167,555.333 390.5,555C 391.48,547.921 391.813,540.755 391.5,533.5 Z"/></g>
<g><path style="opacity:1" fill="#d1be73" d="M 493.5,546.5 C 493.819,557.544 493.319,568.544 492,579.5C 491.167,581.667 489.667,583.167 487.5,584C 483.745,584.755 480.078,584.589 476.5,583.5C 477.752,580.017 478.586,576.351 479,572.5C 483.756,563.631 488.589,554.964 493.5,546.5 Z"/></g>
<g><path style="opacity:1" fill="#a49145" d="M 265.5,557.5 C 268.192,568.708 273.858,578.208 282.5,586C 286.076,588.19 289.743,590.19 293.5,592C 292.5,593 291.5,594 290.5,595C 274.279,597.707 260.945,592.873 250.5,580.5C 255.168,581.1 257.501,578.766 257.5,573.5C 261.309,579.474 266.309,584.307 272.5,588C 273.5,588.667 274.5,588.667 275.5,588C 268.139,583.08 262.805,576.58 259.5,568.5C 260.496,568.414 261.329,568.748 262,569.5C 265.62,566.107 266.787,562.107 265.5,557.5 Z"/></g>
<g><path style="opacity:1" fill="#cebb70" d="M 852.5,571.5 C 852.357,573.262 852.691,574.929 853.5,576.5C 852.975,577.192 852.308,577.692 851.5,578C 852.833,579 854.167,580 855.5,581C 852.833,581.667 852.833,582.333 855.5,583C 854.607,587.022 855.774,590.522 859,593.5C 861.001,601.021 862.668,608.688 864,616.5C 865.333,617.167 866.333,618.167 867,619.5C 866.98,623.725 868.147,627.558 870.5,631C 869.013,634.499 870.013,635.833 873.5,635C 874,637.521 875.333,639.354 877.5,640.5C 873.238,647.756 868.238,654.423 862.5,660.5C 860.983,660.489 859.816,659.823 859,658.5C 853.608,638.993 847.441,619.827 840.5,601C 841.5,600.167 842.5,599.333 843.5,598.5C 843.154,597.304 842.654,597.304 842,598.5C 841.536,597.906 841.369,597.239 841.5,596.5C 844.93,587.981 848.597,579.648 852.5,571.5 Z"/></g>
<g><path style="opacity:1" fill="#dcc981" d="M 783.5,669.5 C 782.438,670.575 782.438,671.575 783.5,672.5C 788.037,669.737 792.37,666.737 796.5,663.5C 799.511,664.182 800.177,666.015 798.5,669C 801.282,681.817 805.282,694.151 810.5,706C 809.288,707.107 809.621,707.607 811.5,707.5C 803.687,712.911 795.353,717.578 786.5,721.5C 786.711,718.384 787.045,715.55 787.5,713C 778.341,683.523 769.175,654.023 760,624.5C 758.139,623.127 756.306,622.794 754.5,623.5C 756.664,618.5 759.331,613.833 762.5,609.5C 763.825,608.047 764.658,608.381 765,610.5C 766,609.167 767,609.167 768,610.5C 774.006,629.295 779.506,647.629 784.5,665.5C 783.975,666.192 783.308,666.692 782.5,667C 783.252,667.671 783.586,668.504 783.5,669.5 Z"/></g>
<g><path style="opacity:1" fill="#e0ce85" d="M 841.5,596.5 C 841.369,597.239 841.536,597.906 842,598.5C 842.654,597.304 843.154,597.304 843.5,598.5C 842.5,599.333 841.5,600.167 840.5,601C 847.441,619.827 853.608,638.993 859,658.5C 859.816,659.823 860.983,660.489 862.5,660.5C 857.627,666.917 852.293,672.917 846.5,678.5C 845.778,678.082 845.278,677.416 845,676.5C 843.817,677.731 842.651,677.731 841.5,676.5C 842.609,674.786 841.942,674.119 839.5,674.5C 835.114,658.734 830.447,643.067 825.5,627.5C 826.552,627.649 827.552,627.483 828.5,627C 827.619,626.292 826.953,625.458 826.5,624.5C 831.504,615.159 836.504,605.826 841.5,596.5 Z"/></g>
<g><path style="opacity:0.999" fill="#b7a355" d="M 896.5,700.5 C 895.603,699.402 894.77,699.402 894,700.5C 890.542,689.604 887.042,679.104 883.5,669C 885.636,666.902 885.636,664.568 883.5,662C 884.212,659.973 885.212,658.973 886.5,659C 885.385,657.765 885.385,656.598 886.5,655.5C 886.145,654.478 885.478,653.811 884.5,653.5C 891.018,642.306 897.685,631.139 904.5,620C 905.996,619.493 907.163,619.993 908,621.5C 918.919,650.089 915.086,676.423 896.5,700.5 Z"/></g>
<g><path style="opacity:1" fill="#c8b56a" d="M 786.5,721.5 C 780.065,724.756 773.399,727.422 766.5,729.5C 766.611,728.883 766.944,728.383 767.5,728C 758.953,701.018 750.786,673.852 743,646.5C 742.014,647.171 740.847,647.171 739.5,646.5C 744.114,638.558 749.114,630.892 754.5,623.5C 756.306,622.794 758.139,623.127 760,624.5C 769.175,654.023 778.341,683.523 787.5,713C 787.045,715.55 786.711,718.384 786.5,721.5 Z"/></g>
<g><path style="opacity:0.999" fill="#b7a457" d="M 739.5,646.5 C 740.847,647.171 742.014,647.171 743,646.5C 750.786,673.852 758.953,701.018 767.5,728C 766.944,728.383 766.611,728.883 766.5,729.5C 764.692,729.491 763.025,729.991 761.5,731C 764.289,731.241 766.956,731.908 769.5,733C 769.043,733.414 768.709,733.914 768.5,734.5C 771.761,742.601 774.761,750.768 777.5,759C 776.366,760.016 776.699,760.683 778.5,761C 777.833,761.333 777.167,761.667 776.5,762C 778.037,763.11 778.703,764.61 778.5,766.5C 774.901,767.344 771.234,767.677 767.5,767.5C 756.42,732.697 745.587,697.03 735,660.5C 733.883,661.949 733.216,663.616 733,665.5C 731.246,663.75 729.079,663.083 726.5,663.5C 730.481,657.525 734.814,651.858 739.5,646.5 Z"/></g>
<g><path style="opacity:1" fill="#f1df98" d="M 826.5,624.5 C 826.953,625.458 827.619,626.292 828.5,627C 827.552,627.483 826.552,627.649 825.5,627.5C 830.447,643.067 835.114,658.734 839.5,674.5C 841.942,674.119 842.609,674.786 841.5,676.5C 842.651,677.731 843.817,677.731 845,676.5C 845.278,677.416 845.778,678.082 846.5,678.5C 836.164,689.826 824.497,699.493 811.5,707.5C 809.621,707.607 809.288,707.107 810.5,706C 805.282,694.151 801.282,681.817 798.5,669C 800.177,666.015 799.511,664.182 796.5,663.5C 808.063,651.616 818.063,638.616 826.5,624.5 Z"/></g>
<g><path style="opacity:0.992" fill="#a89547" d="M 767.5,767.5 C 762.695,768.487 757.695,768.821 752.5,768.5C 743.031,738.259 733.864,707.925 725,677.5C 722.712,676.932 720.545,675.599 718.5,673.5C 720.817,669.854 723.484,666.52 726.5,663.5C 729.079,663.083 731.246,663.75 733,665.5C 733.216,663.616 733.883,661.949 735,660.5C 745.587,697.03 756.42,732.697 767.5,767.5 Z"/></g>
<g><path style="opacity:0.995" fill="#9d883a" d="M 718.5,673.5 C 720.545,675.599 722.712,676.932 725,677.5C 733.864,707.925 743.031,738.259 752.5,768.5C 700.807,768.964 649.141,768.464 597.5,767C 613.5,757.667 629.5,748.333 645.5,739C 672.49,720.179 696.824,698.346 718.5,673.5 Z"/></g>
<g><path style="opacity:1" fill="#d3c075" d="M 884.5,653.5 C 885.478,653.811 886.145,654.478 886.5,655.5C 885.385,656.598 885.385,657.765 886.5,659C 885.212,658.973 884.212,659.973 883.5,662C 885.636,664.568 885.636,666.902 883.5,669C 887.042,679.104 890.542,689.604 894,700.5C 894.77,699.402 895.603,699.402 896.5,700.5C 890.876,709.124 883.876,716.458 875.5,722.5C 874.178,722.33 873.011,722.663 872,723.5C 868.072,711.191 864.238,698.525 860.5,685.5C 861.187,683.823 861.854,682.156 862.5,680.5C 870.083,671.644 877.417,662.644 884.5,653.5 Z"/></g>
<g><path style="opacity:0.998" fill="#eedc95" d="M 862.5,680.5 C 861.854,682.156 861.187,683.823 860.5,685.5C 864.238,698.525 868.072,711.191 872,723.5C 873.011,722.663 874.178,722.33 875.5,722.5C 857.901,737.142 838.234,748.475 816.5,756.5C 815.794,754.694 816.127,752.861 817.5,751C 813.692,741.736 811.025,732.402 809.5,723C 808.627,721.955 807.627,721.122 806.5,720.5C 827.627,710.721 846.294,697.387 862.5,680.5 Z"/></g>
<g><path style="opacity:0.995" fill="#d8c57d" d="M 806.5,720.5 C 807.627,721.122 808.627,721.955 809.5,723C 811.025,732.402 813.692,741.736 817.5,751C 816.127,752.861 815.794,754.694 816.5,756.5C 809.285,759.239 801.952,761.572 794.5,763.5C 795.452,761.888 795.786,760.388 795.5,759C 792.664,751.324 790.331,743.491 788.5,735.5C 787.448,735.649 786.448,735.483 785.5,735C 786.973,734.29 787.64,733.124 787.5,731.5C 784.001,731.741 783.668,730.908 786.5,729C 784.866,728.506 783.199,728.34 781.5,728.5C 789.738,725.866 798.071,723.2 806.5,720.5 Z"/></g>
<g><path style="opacity:1" fill="#c7b46a" d="M 781.5,728.5 C 783.199,728.34 784.866,728.506 786.5,729C 783.668,730.908 784.001,731.741 787.5,731.5C 787.64,733.124 786.973,734.29 785.5,735C 786.448,735.483 787.448,735.649 788.5,735.5C 790.331,743.491 792.664,751.324 795.5,759C 795.786,760.388 795.452,761.888 794.5,763.5C 789.218,764.756 783.885,765.756 778.5,766.5C 778.703,764.61 778.037,763.11 776.5,762C 777.167,761.667 777.833,761.333 778.5,761C 776.699,760.683 776.366,760.016 777.5,759C 774.761,750.768 771.761,742.601 768.5,734.5C 768.709,733.914 769.043,733.414 769.5,733C 766.956,731.908 764.289,731.241 761.5,731C 763.025,729.991 764.692,729.491 766.5,729.5C 766.917,730.124 767.584,730.457 768.5,730.5C 772.791,729.507 777.124,728.84 781.5,728.5 Z"/></g>
</svg>
