<svg width="28" height="24" viewBox="0 0 28 24" fill="none" xmlns="http://www.w3.org/2000/svg">
<path fill-rule="evenodd" clip-rule="evenodd" d="M21.6922 7.17573H27.3337C27.3337 2.64612 24.6196 0 20.0211 0H7.97959C3.38107 0 0.666992 2.64612 0.666992 7.11796V16.882C0.666992 21.3539 3.38107 24 7.97959 24H20.0211C24.6196 24 27.3337 21.3539 27.3337 16.882V16.4661H21.6922C19.0739 16.4661 16.9514 14.3967 16.9514 11.844C16.9514 9.29132 19.0739 7.22196 21.6922 7.22196V7.17573ZM21.6922 9.16322H26.3381C26.8879 9.16322 27.3337 9.59778 27.3337 10.1338V13.5079C27.3273 14.0414 26.8853 14.4723 26.3381 14.4786H21.7988C20.4734 14.496 19.3143 13.6112 19.0137 12.3524C18.8631 11.5711 19.0745 10.7648 19.5911 10.1496C20.1077 9.53449 20.8768 9.17343 21.6922 9.16322ZM21.8937 12.7106H22.3322C22.8951 12.7106 23.3514 12.2657 23.3514 11.7169C23.3514 11.1681 22.8951 10.7232 22.3322 10.7232H21.8937C21.6244 10.7201 21.3651 10.8222 21.1736 11.0067C20.9821 11.1912 20.8744 11.4428 20.8744 11.7053C20.8744 12.2561 21.3288 12.7043 21.8937 12.7106ZM6.98403 7.17573H14.51C15.0729 7.17573 15.5292 6.73082 15.5292 6.18199C15.5292 5.63317 15.0729 5.18825 14.51 5.18825H6.98403C6.4257 5.18822 5.97126 5.62613 5.96477 6.17044C5.96473 6.72117 6.4192 7.1694 6.98403 7.17573Z" fill="#FEBB1B"/>
</svg>
