<svg width="52" height="52" viewBox="0 0 52 52" fill="none" xmlns="http://www.w3.org/2000/svg">
    <rect width="52" height="52" rx="26" fill="url(#paint0_linear_2356_13245)"/>
    <path d="M25.9997 16.6666V21.3333H19.3718L16.8705 27.1666H37.6663V37.6666C37.6663 37.976 37.5434 38.2728 37.3246 38.4915C37.1058 38.7103 36.8091 38.8333 36.4997 38.8333H35.333C35.0236 38.8333 34.7268 38.7103 34.508 38.4915C34.2893 38.2728 34.1663 37.976 34.1663 37.6666V36.4999H17.833V37.6666C17.833 37.976 17.7101 38.2728 17.4913 38.4915C17.2725 38.7103 16.9758 38.8333 16.6663 38.8333H15.4997C15.1903 38.8333 14.8935 38.7103 14.6747 38.4915C14.4559 38.2728 14.333 37.976 14.333 37.6666V27.1666L17.2263 20.4139C17.4064 19.9939 17.7058 19.636 18.0874 19.3847C18.469 19.1333 18.916 18.9995 19.373 18.9999H22.4997V16.6666H25.9997ZM19.583 29.4999C19.1189 29.4999 18.6738 29.6843 18.3456 30.0125C18.0174 30.3407 17.833 30.7858 17.833 31.2499C17.833 31.714 18.0174 32.1592 18.3456 32.4874C18.6738 32.8155 19.1189 32.9999 19.583 32.9999C20.0471 32.9999 20.4923 32.8155 20.8204 32.4874C21.1486 32.1592 21.333 31.714 21.333 31.2499C21.333 30.7858 21.1486 30.3407 20.8204 30.0125C20.4923 29.6843 20.0471 29.4999 19.583 29.4999ZM32.4163 29.4999C31.9522 29.4999 31.5071 29.6843 31.1789 30.0125C30.8507 30.3407 30.6663 30.7858 30.6663 31.2499C30.6663 31.714 30.8507 32.1592 31.1789 32.4874C31.5071 32.8155 31.9522 32.9999 32.4163 32.9999C32.8805 32.9999 33.3256 32.8155 33.6538 32.4874C33.982 32.1592 34.1663 31.714 34.1663 31.2499C34.1663 30.7858 33.982 30.3407 33.6538 30.0125C33.3256 29.6843 32.8805 29.4999 32.4163 29.4999ZM33.583 14.3333C34.9754 14.3333 36.3108 14.8864 37.2953 15.8709C38.2799 16.8555 38.833 18.1909 38.833 19.5833C38.833 20.9756 38.2799 22.311 37.2953 23.2956C36.3108 24.2801 34.9754 24.8333 33.583 24.8333C32.1906 24.8333 30.8553 24.2801 29.8707 23.2956C28.8861 22.311 28.333 20.9756 28.333 19.5833C28.333 18.1909 28.8861 16.8555 29.8707 15.8709C30.8553 14.8864 32.1906 14.3333 33.583 14.3333ZM33.583 20.3614C33.0102 20.3614 32.4863 20.5679 32.0792 20.9098L31.9333 21.0439L33.583 22.6948L35.2315 21.0428C35.0151 20.8263 34.758 20.6547 34.4752 20.5378C34.1923 20.4209 33.8891 20.3609 33.583 20.3614ZM33.583 17.2499C32.2344 17.2479 30.9334 17.7483 29.9337 18.6534L29.7318 18.8459L30.8332 19.9449C31.1938 19.5831 31.6224 19.2962 32.0943 19.1006C32.5662 18.905 33.0722 18.8045 33.583 18.8051C34.5284 18.8037 35.4418 19.1481 36.1508 19.7734L36.3328 19.9449L37.433 18.8448C36.928 18.3384 36.3279 17.9368 35.6672 17.6631C35.0065 17.3894 34.2982 17.249 33.583 17.2499Z" fill="#35383F"/>
    <defs>
        <linearGradient id="paint0_linear_2356_13245" x1="52" y1="52" x2="-9.87533" y2="34.0598" gradientUnits="userSpaceOnUse">
            <stop stop-color="#FEBB1B"/>
            <stop offset="1" stop-color="#FFC740"/>
        </linearGradient>
    </defs>
</svg>
