<svg width="21" height="20" viewBox="0 0 21 20" fill="none" xmlns="http://www.w3.org/2000/svg">
    <path d="M17.166 1.6665H8.83268C8.39065 1.6665 7.96673 1.8421 7.65417 2.15466C7.34161 2.46722 7.16602 2.89114 7.16602 3.33317V4.99984H13.8327C14.2747 4.99984 14.6986 5.17543 15.0112 5.48799C15.3238 5.80055 15.4993 6.22448 15.4993 6.6665V13.3332H17.166C17.608 13.3332 18.032 13.1576 18.3445 12.845C18.6571 12.5325 18.8327 12.1085 18.8327 11.6665V3.33317C18.8327 2.89114 18.6571 2.46722 18.3445 2.15466C18.032 1.8421 17.608 1.6665 17.166 1.6665Z" fill="#FEBB1B"/>
    <path d="M3.83268 18.3332H12.166C13.0852 18.3332 13.8327 17.5857 13.8327 16.6665V8.33317C13.8327 7.414 13.0852 6.6665 12.166 6.6665H3.83268C2.91352 6.6665 2.16602 7.414 2.16602 8.33317V16.6665C2.16602 17.5857 2.91352 18.3332 3.83268 18.3332ZM5.49935 9.99984H10.4993V11.6665H5.49935V9.99984ZM5.49935 13.3332H10.4993V14.9998H5.49935V13.3332Z" fill="#FEBB1B"/>
</svg>
