<svg width="40" height="40" viewBox="0 0 40 40" fill="none" xmlns="http://www.w3.org/2000/svg">
<path d="M29.8635 23.867C29.4318 24.2853 29.2335 24.8903 29.3318 25.4837L30.8135 33.6837C30.9385 34.3787 30.6452 35.082 30.0635 35.4837C29.4935 35.9003 28.7352 35.9503 28.1135 35.617L20.7318 31.767C20.4752 31.6303 20.1902 31.557 19.8985 31.5487H19.4468C19.2902 31.572 19.1368 31.622 18.9968 31.6987L11.6135 35.567C11.2485 35.7503 10.8352 35.8153 10.4302 35.7503C9.44349 35.5637 8.78516 34.6237 8.94682 33.632L10.4302 25.432C10.5285 24.8337 10.3302 24.2253 9.89849 23.8003L3.88016 17.967C3.37682 17.4787 3.20182 16.7453 3.43182 16.0837C3.65516 15.4237 4.22516 14.942 4.91349 14.8337L13.1968 13.632C13.8268 13.567 14.3802 13.1837 14.6635 12.617L18.3135 5.13366C18.4002 4.96699 18.5118 4.81366 18.6468 4.68366L18.7968 4.56699C18.8752 4.48033 18.9652 4.40866 19.0652 4.35033L19.2468 4.28366L19.5302 4.16699H20.2318C20.8585 4.23199 21.4102 4.60699 21.6985 5.16699L25.3968 12.617C25.6635 13.162 26.1818 13.5403 26.7802 13.632L35.0635 14.8337C35.7635 14.9337 36.3485 15.417 36.5802 16.0837C36.7985 16.752 36.6102 17.4853 36.0968 17.967L29.8635 23.867Z" fill="#FEBB1B"/>
</svg>
