<svg width="20" height="20" viewBox="0 0 20 20" fill="none" xmlns="http://www.w3.org/2000/svg">
    <path opacity="0.4" d="M10.8129 2.5946L12.6683 6.32316C12.805 6.5933 13.0659 6.78089 13.3668 6.82258L17.5344 7.42956C17.7778 7.46374 17.9986 7.59214 18.1478 7.78807C18.2954 7.9815 18.3587 8.22663 18.3229 8.46758C18.2937 8.66769 18.1995 8.85278 18.0553 8.99452L15.0355 11.9218C14.8146 12.1261 14.7146 12.4288 14.768 12.7247L15.5114 16.8402C15.5906 17.3371 15.2614 17.8057 14.768 17.8999C14.5646 17.9324 14.3562 17.8982 14.1728 17.8048L10.4554 15.868C10.1795 15.7288 9.85356 15.7288 9.57767 15.868L5.8602 17.8048C5.40344 18.0475 4.83748 17.8824 4.58326 17.4321C4.48908 17.2529 4.45574 17.0486 4.48658 16.8493L5.23007 12.7331C5.28341 12.4379 5.18256 12.1336 4.96251 11.9293L1.9427 9.00369C1.58345 8.65685 1.57262 8.08572 1.91852 7.72637C1.92603 7.71887 1.93436 7.71053 1.9427 7.70219C2.08606 7.55629 2.27443 7.46374 2.47781 7.43956L6.64537 6.83175C6.94544 6.78923 7.20633 6.6033 7.34386 6.3315L9.13257 2.5946C9.29177 2.27443 9.62184 2.07517 9.98026 2.0835H10.0919C10.4028 2.12102 10.6737 2.31362 10.8129 2.5946Z" fill="url(#paint0_linear_2580_6149)"/>
    <path d="M9.99269 15.7642C9.83127 15.7692 9.67402 15.8126 9.53257 15.8901L5.83328 17.8225C5.38065 18.0385 4.83898 17.8709 4.58521 17.4381C4.49119 17.2612 4.45707 17.0586 4.48869 16.8601L5.22755 12.7525C5.27747 12.454 5.17763 12.1504 4.96046 11.9402L1.9393 9.01532C1.58068 8.66419 1.57403 8.08789 1.92515 7.72843C1.93014 7.72342 1.9343 7.71925 1.9393 7.71508C2.08241 7.5733 2.26712 7.47989 2.46598 7.4507L6.63704 6.83686C6.93907 6.7985 7.20117 6.61001 7.3343 6.33645L9.14733 2.55252C9.31957 2.24727 9.64989 2.06545 9.99935 2.08463C9.99269 2.33234 9.99269 15.5957 9.99269 15.7642Z" fill="url(#paint1_linear_2580_6149)"/>
    <defs>
        <linearGradient id="paint0_linear_2580_6149" x1="18.3327" y1="17.9166" x2="-1.33439" y2="11.9142" gradientUnits="userSpaceOnUse">
            <stop stop-color="#FEBB1B"/>
            <stop offset="1" stop-color="#FFC740"/>
        </linearGradient>
        <linearGradient id="paint1_linear_2580_6149" x1="9.99935" y1="17.9166" x2="-0.505532" y2="16.3135" gradientUnits="userSpaceOnUse">
            <stop stop-color="#FEBB1B"/>
            <stop offset="1" stop-color="#FFC740"/>
        </linearGradient>
    </defs>
</svg>
