<svg width="52" height="52" viewBox="0 0 52 52" fill="none" xmlns="http://www.w3.org/2000/svg">
    <rect width="52" height="52" rx="26" fill="url(#paint0_linear_2356_19548)"/>
    <path d="M36.2337 23.8474L34.6377 19.0594C34.4062 18.3623 33.9608 17.7559 33.365 17.3263C32.7691 16.8968 32.0531 16.6659 31.3185 16.6666H28.333V14.3333H23.6663V16.6666H20.6808C19.9463 16.6659 19.2302 16.8968 18.6344 17.3263C18.0385 17.7559 17.5932 18.3623 17.3617 19.0594L15.7657 23.8474C15.3413 24.025 14.9788 24.3241 14.7239 24.7071C14.469 25.0901 14.333 25.5399 14.333 25.9999V31.8333C14.333 32.6943 14.8043 33.4386 15.4997 33.8434V36.4999C15.4997 36.8093 15.6226 37.1061 15.8414 37.3249C16.0602 37.5437 16.3569 37.6666 16.6663 37.6666H17.833C18.1424 37.6666 18.4392 37.5437 18.658 37.3249C18.8768 37.1061 18.9997 36.8093 18.9997 36.4999V34.1666H32.9997V36.4999C32.9997 36.8093 33.1226 37.1061 33.3414 37.3249C33.5602 37.5437 33.8569 37.6666 34.1663 37.6666H35.333C35.6424 37.6666 35.9392 37.5437 36.158 37.3249C36.3768 37.1061 36.4997 36.8093 36.4997 36.4999V33.8434C36.8536 33.6404 37.1478 33.3477 37.3527 32.9948C37.5575 32.6419 37.6657 32.2413 37.6663 31.8333V25.9999C37.6663 25.5399 37.5303 25.0901 37.2754 24.7071C37.0205 24.3241 36.6581 24.025 36.2337 23.8474ZM20.6808 18.9999H31.3173C31.8202 18.9999 32.2658 19.3196 32.4245 19.7979L33.7148 23.6666H18.2845L19.5737 19.7979C19.6511 19.5655 19.7997 19.3634 19.9984 19.2201C20.1971 19.0769 20.4359 18.9999 20.6808 18.9999ZM18.4163 30.6666C18.1865 30.6665 17.9588 30.6212 17.7465 30.5331C17.5341 30.4451 17.3412 30.316 17.1787 30.1534C17.0162 29.9908 16.8873 29.7978 16.7994 29.5854C16.7115 29.373 16.6663 29.1453 16.6663 28.9154C16.6664 28.6855 16.7118 28.4579 16.7998 28.2455C16.8879 28.0332 17.0169 27.8402 17.1795 27.6777C17.3421 27.5152 17.5351 27.3864 17.7475 27.2985C17.96 27.2105 18.1876 27.1653 18.4175 27.1654C18.8818 27.1656 19.327 27.3502 19.6552 27.6786C19.9834 28.007 20.1677 28.4523 20.1675 28.9166C20.1674 29.3809 19.9828 29.8261 19.6544 30.1543C19.326 30.4825 18.8806 30.6667 18.4163 30.6666ZM33.583 30.6666C33.3531 30.6665 33.1255 30.6212 32.9131 30.5331C32.7008 30.4451 32.5078 30.316 32.3453 30.1534C32.1828 29.9908 32.0539 29.7978 31.966 29.5854C31.8781 29.373 31.8329 29.1453 31.833 28.9154C31.8331 28.6855 31.8784 28.4579 31.9665 28.2455C32.0545 28.0332 32.1835 27.8402 32.3462 27.6777C32.5088 27.5152 32.7018 27.3864 32.9142 27.2985C33.1266 27.2105 33.3543 27.1653 33.5842 27.1654C34.0485 27.1656 34.4937 27.3502 34.8219 27.6786C35.15 28.007 35.3343 28.4523 35.3342 28.9166C35.334 29.3809 35.1494 29.8261 34.821 30.1543C34.4926 30.4825 34.0473 30.6667 33.583 30.6666Z" fill="#35383F"/>
    <defs>
        <linearGradient id="paint0_linear_2356_19548" x1="52" y1="52" x2="-9.87533" y2="34.0598" gradientUnits="userSpaceOnUse">
            <stop stop-color="#FEBB1B"/>
            <stop offset="1" stop-color="#FFC740"/>
        </linearGradient>
    </defs>
</svg>
