<?xml version="1.0" encoding="UTF-8"?>
<!DOCTYPE svg PUBLIC "-//W3C//DTD SVG 1.1//EN" "http://www.w3.org/Graphics/SVG/1.1/DTD/svg11.dtd">
<svg xmlns="http://www.w3.org/2000/svg" version="1.1" width="1080px" height="1080px" style="shape-rendering:geometricPrecision; text-rendering:geometricPrecision; image-rendering:optimizeQuality; fill-rule:evenodd; clip-rule:evenodd" xmlns:xlink="http://www.w3.org/1999/xlink">
    <g><path style="opacity:0.998" fill="#203d79" d="M 340.5,240.5 C 380.501,240.333 420.501,240.5 460.5,241C 463.656,240.947 466.156,242.114 468,244.5C 469.145,249.083 469.811,253.749 470,258.5C 470.04,346.18 470.707,433.847 472,521.5C 473.604,537.978 478.604,553.312 487,567.5C 508.55,592.545 534.383,598.045 564.5,584C 575.834,577.666 584.001,568.499 589,556.5C 592.271,548.083 594.604,539.416 596,530.5C 597.378,505.861 598.212,481.194 598.5,456.5C 645.167,456.5 691.833,456.5 738.5,456.5C 739.055,484.883 738.222,513.216 736,541.5C 722.896,649.935 661.729,706.435 552.5,711C 516.379,713.71 481.046,709.71 446.5,699C 397.399,681.566 363.899,648.399 346,599.5C 337.016,573.931 332.016,547.598 331,520.5C 330.333,430.833 330.333,341.167 331,251.5C 330.534,244.477 333.7,240.81 340.5,240.5 Z"/></g>
    <g><path style="opacity:0.998" fill="#203d7a" d="M 607.5,240.5 C 614.5,240.5 621.5,240.5 628.5,240.5C 631.131,287.973 653.798,321.806 696.5,342C 709.987,347.331 723.987,350.164 738.5,350.5C 738.5,376.833 738.5,403.167 738.5,429.5C 691.833,429.5 645.167,429.5 598.5,429.5C 598.333,368.832 598.5,308.166 599,247.5C 600.851,243.843 603.684,241.51 607.5,240.5 Z"/></g>
    <g><path style="opacity:0.992" fill="#f4821e" d="M 656.5,240.5 C 680.502,240.333 704.502,240.5 728.5,241C 731.973,241.319 734.806,242.819 737,245.5C 738.463,271.449 738.963,297.449 738.5,323.5C 700.413,322.255 674.246,303.921 660,268.5C 656.745,259.326 655.578,249.993 656.5,240.5 Z"/></g>
    <g><path style="opacity:0.946" fill="#233b7d" d="M 738.5,765.5 C 743.167,765.5 747.833,765.5 752.5,765.5C 752.888,770.628 752.388,775.628 751,780.5C 747.1,785.533 742.267,786.7 736.5,784C 729.944,777.135 730.611,770.969 738.5,765.5 Z"/></g>
    <g><path style="opacity:0.953" fill="#233b7d" d="M 489.5,775.5 C 502.612,772.564 512.946,776.564 520.5,787.5C 517.623,789.861 514.456,791.861 511,793.5C 501.239,782.682 492.239,783.348 484,795.5C 480.723,810.883 486.89,818.383 502.5,818C 505.815,816.43 508.648,814.263 511,811.5C 514.388,812.777 517.555,814.444 520.5,816.5C 510.994,830.059 498.661,833.226 483.5,826C 469.525,815.35 466.691,802.183 475,786.5C 478.951,781.466 483.784,777.799 489.5,775.5 Z"/></g>
    <g><path style="opacity:0.971" fill="#233b7e" d="M 330.5,776.5 C 334.167,776.5 337.833,776.5 341.5,776.5C 341.349,788.194 341.849,799.861 343,811.5C 347.676,818.792 353.842,820.292 361.5,816C 363.041,814.421 364.208,812.587 365,810.5C 365.5,799.172 365.667,787.838 365.5,776.5C 369.5,776.5 373.5,776.5 377.5,776.5C 377.667,789.171 377.5,801.838 377,814.5C 372.895,825.146 365.062,830.146 353.5,829.5C 342.773,829.927 335.273,825.261 331,815.5C 330.5,802.504 330.333,789.504 330.5,776.5 Z"/></g>
    <g><path style="opacity:0.966" fill="#233b7d" d="M 405.5,776.5 C 418.833,776.5 432.167,776.5 445.5,776.5C 445.837,780.308 445.337,783.974 444,787.5C 436.833,797.333 429.667,807.167 422.5,817C 430.095,818.356 437.762,818.856 445.5,818.5C 445.5,821.833 445.5,825.167 445.5,828.5C 432.167,828.5 418.833,828.5 405.5,828.5C 405.335,825.15 405.502,821.817 406,818.5C 413.5,808.167 421,797.833 428.5,787.5C 420.862,786.503 413.196,786.169 405.5,786.5C 405.5,783.167 405.5,779.833 405.5,776.5 Z"/></g>
    <g><path style="opacity:0.964" fill="#233b7e" d="M 560.5,776.5 C 565.762,776.195 570.928,776.529 576,777.5C 582.754,794.331 588.921,811.331 594.5,828.5C 590.116,828.826 585.783,828.492 581.5,827.5C 579.893,820.544 575.393,817.877 568,819.5C 564.5,819.667 561,819.833 557.5,820C 556.438,822.791 555.105,825.457 553.5,828C 549.129,828.828 544.795,828.661 540.5,827.5C 546.905,810.363 553.572,793.363 560.5,776.5 Z M 567.5,789.5 C 570.243,795.877 572.909,802.377 575.5,809C 570.5,809.667 565.5,809.667 560.5,809C 562.977,802.548 565.31,796.048 567.5,789.5 Z"/></g>
    <g><path style="opacity:0.952" fill="#233b7d" d="M 619.5,776.5 C 630.172,776.333 640.839,776.5 651.5,777C 660.768,781.722 663.935,789.222 661,799.5C 659.167,804 656,807.167 651.5,809C 657.626,819.419 663.626,829.919 669.5,840.5C 664.833,841.833 660.167,841.833 655.5,840.5C 650.167,830.833 644.833,821.167 639.5,811.5C 636.914,810.52 634.247,810.187 631.5,810.5C 631.5,816.5 631.5,822.5 631.5,828.5C 627.5,828.5 623.5,828.5 619.5,828.5C 619.5,811.167 619.5,793.833 619.5,776.5 Z M 631.5,786.5 C 636.179,786.334 640.845,786.501 645.5,787C 649.629,789.631 650.462,793.131 648,797.5C 647.25,798.126 646.416,798.626 645.5,799C 640.845,799.499 636.179,799.666 631.5,799.5C 631.5,795.167 631.5,790.833 631.5,786.5 Z"/></g>
    <g><path style="opacity:0.964" fill="#233b7d" d="M 690.5,776.5 C 700.172,776.334 709.839,776.5 719.5,777C 735.076,782.305 741.243,793.139 738,809.5C 735.067,819.434 728.567,825.6 718.5,828C 709.173,828.5 699.839,828.666 690.5,828.5C 690.5,811.167 690.5,793.833 690.5,776.5 Z M 701.5,786.5 C 707.262,786.149 712.928,786.649 718.5,788C 726.281,793.351 728.448,800.518 725,809.5C 723.108,813.058 720.275,815.558 716.5,817C 711.511,817.499 706.511,817.666 701.5,817.5C 701.5,807.167 701.5,796.833 701.5,786.5 Z"/></g>
</svg>