<svg width="83" height="80" viewBox="0 0 83 80" fill="none" xmlns="http://www.w3.org/2000/svg">
    <circle cx="42.5" cy="40.5" r="31.5" fill="url(#paint0_linear_1240_34253)"/>
    <circle cx="79.5" cy="12.5" r="3.5" fill="url(#paint1_linear_1240_34253)"/>
    <circle cx="8.5" cy="4.5" r="4.5" fill="url(#paint2_linear_1240_34253)"/>
    <circle cx="4" cy="59" r="2" fill="url(#paint3_linear_1240_34253)"/>
    <circle cx="73" cy="71" r="1" fill="url(#paint4_linear_1240_34253)"/>
    <path fill-rule="evenodd" clip-rule="evenodd" d="M50.409 40.0013C50.409 40.8826 51.1327 41.5997 52.0221 41.5997C52.4706 41.5997 52.8346 41.9603 52.8346 42.4047V45.3041C52.8346 47.7558 50.8218 49.7502 48.3475 49.7502H35.6562C33.1819 49.7502 31.168 47.7558 31.168 45.3041V42.4047C31.168 41.9603 31.532 41.5997 31.9805 41.5997C32.871 41.5997 33.5946 40.8826 33.5946 40.0013C33.5946 39.1426 32.9002 38.4964 31.9805 38.4964C31.7649 38.4964 31.5591 38.4116 31.4063 38.2602C31.2536 38.1089 31.168 37.9038 31.168 37.6913L31.1701 34.6975C31.1701 32.2458 33.183 30.2502 35.6573 30.2502H48.3453C50.8196 30.2502 52.8336 32.2458 52.8336 34.6975L52.8346 37.5979C52.8346 37.8104 52.7491 38.0165 52.5974 38.1668C52.4446 38.3182 52.2388 38.403 52.0221 38.403C51.1327 38.403 50.409 39.12 50.409 40.0013ZM44.4421 40.702L45.7194 39.4697C45.9415 39.2572 46.0184 38.9437 45.922 38.6539C45.8266 38.3641 45.5775 38.158 45.2763 38.1161L43.5116 37.8606L42.7218 36.2762C42.5864 36.0036 42.3112 35.834 42.0046 35.8329H42.0025C41.697 35.8329 41.4218 36.0025 41.2842 36.2752L40.4945 37.8606L38.733 38.115C38.4286 38.158 38.1794 38.3641 38.083 38.6539C37.9876 38.9437 38.0646 39.2572 38.2856 39.4697L39.5628 40.702L39.2616 42.4442C39.2096 42.7447 39.3321 43.0432 39.5812 43.2224C39.7221 43.3223 39.8856 43.3738 40.0514 43.3738C40.1781 43.3738 40.306 43.3426 40.423 43.2815L42.0025 42.4592L43.5787 43.2793C43.8517 43.4242 44.1756 43.4017 44.4237 43.2213C44.674 43.0432 44.7964 42.7447 44.7444 42.4442L44.4421 40.702Z" fill="white"/>
    <circle cx="47" cy="2" r="1" fill="url(#paint5_linear_1240_34253)"/>
    <circle cx="27.5" cy="78.5" r="1.5" fill="url(#paint6_linear_1240_34253)"/>
    <circle cx="54.5" cy="76.5" r="0.5" fill="url(#paint7_linear_1240_34253)"/>
    <circle cx="76" cy="49" r="1" fill="url(#paint8_linear_1240_34253)"/>
    <circle cx="0.5" cy="33.5" r="0.5" fill="url(#paint9_linear_1240_34253)"/>
    <defs>
        <linearGradient id="paint0_linear_1240_34253" x1="74" y1="72" x2="-0.964344" y2="50.2648" gradientUnits="userSpaceOnUse">
            <stop stop-color="#FEBB1B"/>
            <stop offset="1" stop-color="#FFC740"/>
        </linearGradient>
        <linearGradient id="paint1_linear_1240_34253" x1="83" y1="16" x2="74.6706" y2="13.585" gradientUnits="userSpaceOnUse">
            <stop stop-color="#FEBB1B"/>
            <stop offset="1" stop-color="#FFC740"/>
        </linearGradient>
        <linearGradient id="paint2_linear_1240_34253" x1="13" y1="9" x2="2.29081" y2="5.89497" gradientUnits="userSpaceOnUse">
            <stop stop-color="#FEBB1B"/>
            <stop offset="1" stop-color="#FFC740"/>
        </linearGradient>
        <linearGradient id="paint3_linear_1240_34253" x1="6" y1="61" x2="1.24036" y2="59.62" gradientUnits="userSpaceOnUse">
            <stop stop-color="#FEBB1B"/>
            <stop offset="1" stop-color="#FFC740"/>
        </linearGradient>
        <linearGradient id="paint4_linear_1240_34253" x1="74" y1="72" x2="71.6202" y2="71.31" gradientUnits="userSpaceOnUse">
            <stop stop-color="#FEBB1B"/>
            <stop offset="1" stop-color="#FFC740"/>
        </linearGradient>
        <linearGradient id="paint5_linear_1240_34253" x1="48" y1="3" x2="45.6202" y2="2.30999" gradientUnits="userSpaceOnUse">
            <stop stop-color="#FEBB1B"/>
            <stop offset="1" stop-color="#FFC740"/>
        </linearGradient>
        <linearGradient id="paint6_linear_1240_34253" x1="29" y1="80" x2="25.4303" y2="78.965" gradientUnits="userSpaceOnUse">
            <stop stop-color="#FEBB1B"/>
            <stop offset="1" stop-color="#FFC740"/>
        </linearGradient>
        <linearGradient id="paint7_linear_1240_34253" x1="55" y1="77" x2="53.8101" y2="76.655" gradientUnits="userSpaceOnUse">
            <stop stop-color="#FEBB1B"/>
            <stop offset="1" stop-color="#FFC740"/>
        </linearGradient>
        <linearGradient id="paint8_linear_1240_34253" x1="77" y1="50" x2="74.6202" y2="49.31" gradientUnits="userSpaceOnUse">
            <stop stop-color="#FEBB1B"/>
            <stop offset="1" stop-color="#FFC740"/>
        </linearGradient>
        <linearGradient id="paint9_linear_1240_34253" x1="1" y1="34" x2="-0.18991" y2="33.655" gradientUnits="userSpaceOnUse">
            <stop stop-color="#FEBB1B"/>
            <stop offset="1" stop-color="#FFC740"/>
        </linearGradient>
    </defs>
</svg>
