<svg width="24" height="24" viewBox="0 0 20 20" fill="none" xmlns="http://www.w3.org/2000/svg">
    <path fill-rule="evenodd" clip-rule="evenodd" d="M7.87651 13.2062C4.03251 13.2062 0.749512 13.7872 0.749512 16.1152C0.749512 18.4432 4.01251 19.0452 7.87651 19.0452C11.7215 19.0452 15.0035 18.4632 15.0035 16.1362C15.0035 13.8092 11.7415 13.2062 7.87651 13.2062Z" stroke="#212121" stroke-width="1.5" stroke-linecap="round" stroke-linejoin="round"/>
    <path fill-rule="evenodd" clip-rule="evenodd" d="M7.8766 9.88588C10.3996 9.88588 12.4446 7.84088 12.4446 5.31788C12.4446 2.79488 10.3996 0.749878 7.8766 0.749878C5.3546 0.749878 3.3096 2.79488 3.3096 5.31788C3.3006 7.83188 5.3306 9.87688 7.8456 9.88588H7.8766Z" stroke="#212121" stroke-width="1.5" stroke-linecap="round" stroke-linejoin="round"/>
    <path d="M17.2036 6.66907V10.6791" stroke="#212121" stroke-width="1.5" stroke-linecap="round" stroke-linejoin="round"/>
    <path d="M19.2494 8.67395H15.1594" stroke="#212121" stroke-width="1.5" stroke-linecap="round" stroke-linejoin="round"/>
</svg>
