<svg width="24" height="24" viewBox="0 0 18 17" fill="none" xmlns="http://www.w3.org/2000/svg">
    <path d="M7.33026 13.5929H1.02954" stroke="#212121" stroke-width="1.5" stroke-linecap="round" stroke-linejoin="round"/>
    <path d="M10.1404 3.90042H16.4411" stroke="#212121" stroke-width="1.5" stroke-linecap="round" stroke-linejoin="round"/>
    <path fill-rule="evenodd" clip-rule="evenodd" d="M5.72629 3.84625C5.72629 2.5506 4.66813 1.5 3.36314 1.5C2.05816 1.5 1 2.5506 1 3.84625C1 5.14191 2.05816 6.19251 3.36314 6.19251C4.66813 6.19251 5.72629 5.14191 5.72629 3.84625Z" stroke="#212121" stroke-width="1.5" stroke-linecap="round" stroke-linejoin="round"/>
    <path fill-rule="evenodd" clip-rule="evenodd" d="M17 13.5538C17 12.2581 15.9426 11.2075 14.6376 11.2075C13.3318 11.2075 12.2737 12.2581 12.2737 13.5538C12.2737 14.8494 13.3318 15.9 14.6376 15.9C15.9426 15.9 17 14.8494 17 13.5538Z" stroke="#212121" stroke-width="1.5" stroke-linecap="round" stroke-linejoin="round"/>
</svg>
