<svg width="24" height="24" viewBox="0 0 21 22" fill="none" xmlns="http://www.w3.org/2000/svg">
    <path fill-rule="evenodd" clip-rule="evenodd" d="M14.5136 20.4999H6.16579C3.09943 20.4999 0.74703 19.3924 1.41522 14.9347L2.19325 8.89351C2.60515 6.66925 4.02392 5.81799 5.26877 5.81799H15.4473C16.7104 5.81799 18.0468 6.73332 18.5228 8.89351L19.3008 14.9347C19.8683 18.8889 17.58 20.4999 14.5136 20.4999Z" stroke="#212121" stroke-width="1.5" stroke-linecap="round" stroke-linejoin="round"/>
    <path d="M14.651 5.59836C14.651 3.21229 12.7167 1.27799 10.3306 1.27799V1.27799C9.18162 1.27312 8.078 1.72615 7.26381 2.53691C6.44963 3.34766 5.99193 4.44935 5.99194 5.59836H5.99194" stroke="#212121" stroke-width="1.5" stroke-linecap="round" stroke-linejoin="round"/>
    <path d="M13.2962 10.1018H13.2505" stroke="#212121" stroke-width="1.5" stroke-linecap="round" stroke-linejoin="round"/>
    <path d="M7.46566 10.1018H7.41989" stroke="#212121" stroke-width="1.5" stroke-linecap="round" stroke-linejoin="round"/>
</svg>
