<svg width="24" height="24" viewBox="0 0 20 20" fill="none" xmlns="http://www.w3.org/2000/svg">
    <path fill-rule="evenodd" clip-rule="evenodd" d="M2.56517 1C1.70108 1 1 1.71286 1 2.5904V3.52644C1 4.17647 1.24719 4.80158 1.68936 5.27177L6.5351 10.4243L6.53723 10.4211C7.47271 11.3788 7.99905 12.6734 7.99905 14.0233V18.5952C7.99905 18.9007 8.31869 19.0957 8.58399 18.9516L11.3436 17.4479C11.7602 17.2204 12.0201 16.7784 12.0201 16.2984V14.0114C12.0201 12.6691 12.539 11.3799 13.466 10.4243L18.3117 5.27177C18.7528 4.80158 19 4.17647 19 3.52644V2.5904C19 1.71286 18.3 1 17.4359 1H2.56517Z" stroke="#212121" stroke-width="1.5" stroke-linecap="round" stroke-linejoin="round"/>
</svg>
