<svg width="24" height="24" viewBox="0 0 20 20" fill="none" xmlns="http://www.w3.org/2000/svg">
    <path fill-rule="evenodd" clip-rule="evenodd" d="M14.3028 0.749756H5.65076C2.63876 0.749756 0.749756 2.88376 0.749756 5.90376V14.0498C0.749756 17.0698 2.63076 19.2038 5.65076 19.2038H14.2978C17.3228 19.2038 19.2028 17.0698 19.2028 14.0498V5.90376C19.2068 2.88376 17.3258 0.749756 14.3028 0.749756Z" stroke="#212121" stroke-width="1.5" stroke-linecap="round" stroke-linejoin="round"/>
    <path fill-rule="evenodd" clip-rule="evenodd" d="M8.70323 6.78496C8.70323 7.80496 7.87723 8.63096 6.85723 8.63096C5.83823 8.63096 5.01123 7.80496 5.01123 6.78496C5.01123 5.76496 5.83823 4.93896 6.85723 4.93896C7.87623 4.93996 8.70223 5.76596 8.70323 6.78496Z" stroke="#212121" stroke-width="1.5" stroke-linecap="round" stroke-linejoin="round"/>
    <path d="M19.207 12.9509C18.284 12.0009 16.509 10.0819 14.579 10.0819C12.648 10.0819 11.535 14.3149 9.678 14.3149C7.821 14.3149 6.134 12.4009 4.646 13.6279C3.158 14.8539 1.75 17.3609 1.75 17.3609" stroke="#212121" stroke-width="1.5" stroke-linecap="round" stroke-linejoin="round"/>
</svg>
