<svg width="22" height="22" viewBox="0 0 22 22" fill="none" xmlns="http://www.w3.org/2000/svg">
    <path fill-rule="evenodd" clip-rule="evenodd" d="M16.2779 12.8891C16.9527 12.8891 17.519 13.446 17.4158 14.1123C16.8106 18.0323 13.4548 20.9428 9.40742 20.9428C4.92952 20.9428 1.30005 17.3134 1.30005 12.8365C1.30005 9.14809 4.10215 5.7123 7.25689 4.93546C7.93479 4.76809 8.62952 5.24493 8.62952 5.94283C8.62952 10.6712 8.78847 11.8944 9.68636 12.5597C10.5843 13.2249 11.64 12.8891 16.2779 12.8891Z" stroke="#212121" stroke-width="1.5" stroke-linecap="round" stroke-linejoin="round"/>
    <path fill-rule="evenodd" clip-rule="evenodd" d="M20.6926 8.95157C20.7463 5.91368 17.0147 1.01684 12.4674 1.10105C12.1137 1.10736 11.8305 1.4021 11.8147 1.75473C11.7 4.25263 11.8547 7.48947 11.9411 8.95684C11.9674 9.41368 12.3263 9.77263 12.7821 9.79894C14.2905 9.88526 17.6453 10.0032 20.1074 9.63052C20.4421 9.57999 20.6874 9.28947 20.6926 8.95157Z" stroke="#212121" stroke-width="1.5" stroke-linecap="round" stroke-linejoin="round"/>
</svg>
