<svg width="24" height="24" viewBox="0 0 22 16" fill="none" xmlns="http://www.w3.org/2000/svg">
    <path fill-rule="evenodd" clip-rule="evenodd" d="M1.50185 8.00014C1.49906 9.22979 1.44419 10.907 2.20494 11.5339C2.91453 12.1187 3.41395 11.968 4.70945 12.0631C6.00587 12.1591 8.74195 15.97 10.8512 14.7646C11.9393 13.9089 12.0202 12.1151 12.0202 8.00014C12.0202 3.88515 11.9393 2.09135 10.8512 1.23571C8.74195 0.0293753 6.00587 3.84121 4.70945 3.93717C3.41395 4.03225 2.91453 3.88157 2.20494 4.46635C1.44419 5.09328 1.49906 6.77049 1.50185 8.00014Z" stroke="#212121" stroke-width="1.5" stroke-linecap="round" stroke-linejoin="round"/>
    <path d="M18.5842 1.90393C21.1343 5.57495 21.1427 10.4173 18.5842 14.0955" stroke="#212121" stroke-width="1.5" stroke-linecap="round" stroke-linejoin="round"/>
    <path d="M16.0813 4.31445C17.3926 6.60514 17.3926 9.40257 16.0813 11.6861" stroke="#212121" stroke-width="1.5" stroke-linecap="round" stroke-linejoin="round"/>
</svg>
