<svg width="24" height="24" viewBox="0 0 20 20" fill="none" xmlns="http://www.w3.org/2000/svg">
    <mask id="mask0_430_8406" style="mask-type:luminance" maskUnits="userSpaceOnUse" x="0" y="11" width="16" height="9">
        <path fill-rule="evenodd" clip-rule="evenodd" d="M0 11.957H15.1838V19.0566H0V11.957Z" fill="white"/>
    </mask>
    <g mask="url(#mask0_430_8406)">
        <path fill-rule="evenodd" clip-rule="evenodd" d="M7.59176 13.457C4.81276 13.457 1.49976 13.814 1.49976 15.519C1.49976 16.871 3.54976 17.557 7.59176 17.557C11.6338 17.557 13.6838 16.864 13.6838 15.499C13.6838 14.144 11.6338 13.457 7.59176 13.457ZM7.59176 19.057C5.51576 19.057 -0.000244141 19.057 -0.000244141 15.519C-0.000244141 11.957 5.71376 11.957 7.59176 11.957C10.8508 11.957 15.1838 12.324 15.1838 15.499C15.1838 19.057 9.46976 19.057 7.59176 19.057Z" fill="#212121"/>
    </g>
    <path fill-rule="evenodd" clip-rule="evenodd" d="M7.59181 1.5C5.58681 1.5 3.95581 3.131 3.95581 5.135C3.95581 7.139 5.58681 8.77 7.59181 8.77H7.62281C8.58681 8.766 9.49481 8.387 10.1758 7.7C10.8578 7.015 11.2308 6.104 11.2268 5.138C11.2268 3.131 9.59581 1.5 7.59181 1.5ZM7.59181 10.27C4.75981 10.27 2.45581 7.966 2.45581 5.135C2.45581 2.304 4.75981 0 7.59181 0C10.4228 0 12.7268 2.304 12.7268 5.135C12.7328 6.499 12.2038 7.787 11.2398 8.757C10.2778 9.728 8.99281 10.265 7.62581 10.27H7.59181Z" fill="#212121"/>
    <path fill-rule="evenodd" clip-rule="evenodd" d="M14.4824 9.13177C14.1144 9.13177 13.7934 8.86077 13.7404 8.48577C13.6834 8.07577 13.9684 7.69577 14.3784 7.63877C15.6264 7.46377 16.5684 6.38077 16.5704 5.11877C16.5704 3.86477 15.6724 2.80677 14.4374 2.60477C14.0284 2.53677 13.7514 2.15177 13.8184 1.74277C13.8854 1.33377 14.2724 1.05877 14.6794 1.12377C16.6444 1.44577 18.0704 3.12677 18.0704 5.11977C18.0664 7.12477 16.5694 8.84677 14.5874 9.12477C14.5524 9.12977 14.5174 9.13177 14.4824 9.13177Z" fill="#212121"/>
    <mask id="mask1_430_8406" style="mask-type:luminance" maskUnits="userSpaceOnUse" x="15" y="11" width="5" height="6">
        <path fill-rule="evenodd" clip-rule="evenodd" d="M15.8452 11.4834H19.979V16.4609H15.8452V11.4834Z" fill="white"/>
    </mask>
    <g mask="url(#mask1_430_8406)">
        <path fill-rule="evenodd" clip-rule="evenodd" d="M17.8955 16.4609C17.5925 16.4609 17.3075 16.2759 17.1945 15.9769C17.0475 15.5899 17.2425 15.1559 17.6295 15.0099C18.4795 14.6879 18.4795 14.2949 18.4795 14.1269C18.4795 13.5599 17.8085 13.1719 16.4855 12.9749C16.0755 12.9129 15.7925 12.5309 15.8535 12.1219C15.9155 11.7119 16.3045 11.4369 16.7065 11.4899C19.4125 11.8949 19.9795 13.1479 19.9795 14.1269C19.9795 14.8559 19.6645 15.8429 18.1615 16.4119C18.0745 16.4449 17.9845 16.4609 17.8955 16.4609Z" fill="#212121"/>
    </g>
</svg>
