<svg width="24" height="24" viewBox="0 0 22 17" fill="none" xmlns="http://www.w3.org/2000/svg">
    <path fill-rule="evenodd" clip-rule="evenodd" d="M16.8867 8.14651C16.5187 8.14651 16.1977 7.87551 16.1447 7.50051C16.0877 7.08951 16.3727 6.71051 16.7837 6.65351C17.8237 6.50751 18.6087 5.60551 18.6107 4.55351C18.6107 3.51051 17.8627 2.62851 16.8317 2.45951C16.4237 2.39251 16.1467 2.00651 16.2137 1.59751C16.2817 1.18851 16.6647 0.914506 17.0757 0.979506C18.8337 1.26851 20.1107 2.77251 20.1107 4.55551C20.1067 6.35051 18.7657 7.89051 16.9907 8.13951C16.9557 8.14451 16.9207 8.14651 16.8867 8.14651Z" fill="#212121"/>
    <mask id="mask0_430_8540" style="mask-type:luminance" maskUnits="userSpaceOnUse" x="17" y="10" width="5" height="5">
        <path fill-rule="evenodd" clip-rule="evenodd" d="M17.978 10.0016H21.772V14.5312H17.978V10.0016Z" fill="white"/>
    </mask>
    <g mask="url(#mask0_430_8540)">
        <path fill-rule="evenodd" clip-rule="evenodd" d="M19.8613 14.5312C19.5593 14.5312 19.2743 14.3472 19.1603 14.0482C19.0123 13.6612 19.2073 13.2272 19.5943 13.0802C20.2723 12.8222 20.2723 12.5372 20.2723 12.4002C20.2723 11.9622 19.7153 11.6562 18.6173 11.4922C18.2083 11.4302 17.9253 11.0492 17.9863 10.6382C18.0473 10.2282 18.4273 9.95515 18.8403 10.0082C21.2633 10.3712 21.7723 11.5092 21.7723 12.4002C21.7723 12.9442 21.5583 13.9372 20.1283 14.4822C20.0403 14.5152 19.9503 14.5312 19.8613 14.5312Z" fill="#212121"/>
    </g>
    <path fill-rule="evenodd" clip-rule="evenodd" d="M10.8865 11.9139C8.51049 11.9139 5.67749 12.2059 5.67749 13.5959C5.67749 14.9969 8.51049 15.2909 10.8865 15.2909C13.2625 15.2909 16.0945 14.9999 16.0945 13.6129C16.0945 12.2089 13.2625 11.9139 10.8865 11.9139ZM10.8865 16.7909C9.22749 16.7909 4.17749 16.7909 4.17749 13.5959C4.17749 10.4139 9.22749 10.4139 10.8865 10.4139C12.5455 10.4139 17.5945 10.4139 17.5945 13.6129C17.5945 16.7909 12.7215 16.7909 10.8865 16.7909Z" fill="#212121"/>
    <path fill-rule="evenodd" clip-rule="evenodd" d="M10.8866 1.5C9.19464 1.5 7.81864 2.877 7.81864 4.569C7.81564 5.389 8.12964 6.156 8.70464 6.735C9.27964 7.314 10.0456 7.635 10.8616 7.638L10.8866 8.388V7.638C12.5786 7.638 13.9556 6.262 13.9556 4.569C13.9556 2.877 12.5786 1.5 10.8866 1.5ZM10.8866 9.138H10.8596C9.63964 9.134 8.49664 8.656 7.64064 7.792C6.78264 6.929 6.31364 5.783 6.31864 4.566C6.31864 2.05 8.36764 0 10.8866 0C13.4066 0 15.4556 2.05 15.4556 4.569C15.4556 7.088 13.4066 9.138 10.8866 9.138Z" fill="#212121"/>
    <path fill-rule="evenodd" clip-rule="evenodd" d="M4.8856 8.14645C4.8516 8.14645 4.8166 8.14445 4.7816 8.13945C3.0066 7.89045 1.6666 6.35045 1.6626 4.55745C1.6626 2.77245 2.9396 1.26845 4.6976 0.97945C5.1186 0.91345 5.4916 1.19045 5.5596 1.59745C5.6266 2.00645 5.3496 2.39245 4.9416 2.45945C3.9106 2.62845 3.1626 3.51045 3.1626 4.55545C3.1646 5.60545 3.9496 6.50845 4.9886 6.65345C5.3996 6.71045 5.6846 7.08945 5.6276 7.50045C5.5746 7.87545 5.2536 8.14645 4.8856 8.14645Z" fill="#212121"/>
    <path fill-rule="evenodd" clip-rule="evenodd" d="M1.912 14.5312C1.823 14.5312 1.733 14.5152 1.645 14.4822C0.214 13.9362 0 12.9432 0 12.4002C0 11.5102 0.509 10.3712 2.933 10.0082C3.346 9.95619 3.724 10.2282 3.786 10.6382C3.847 11.0492 3.564 11.4302 3.155 11.4922C2.057 11.6562 1.5 11.9622 1.5 12.4002C1.5 12.5372 1.5 12.8212 2.179 13.0802C2.566 13.2272 2.761 13.6612 2.613 14.0482C2.499 14.3472 2.214 14.5312 1.912 14.5312Z" fill="#212121"/>
</svg>
