<svg width="24" height="24" viewBox="0 0 21 21" fill="none" xmlns="http://www.w3.org/2000/svg">
    <path fill-rule="evenodd" clip-rule="evenodd" d="M5.21629 14.0029C5.05629 14.0029 4.89529 13.9519 4.75929 13.8479C4.43129 13.5949 4.36929 13.1239 4.62229 12.7959L7.61529 8.90587C7.73729 8.74687 7.91829 8.64387 8.11629 8.61887C8.31829 8.59287 8.51629 8.64887 8.67329 8.77387L11.4933 10.9889L13.9603 7.80587C14.2143 7.47687 14.6843 7.41587 15.0123 7.67187C15.3403 7.92587 15.4003 8.39687 15.1463 8.72387L12.2163 12.5039C12.0943 12.6619 11.9143 12.7649 11.7163 12.7889C11.5163 12.8159 11.3183 12.7579 11.1603 12.6349L8.34229 10.4209L5.81129 13.7099C5.66329 13.9019 5.44129 14.0029 5.21629 14.0029Z" fill="#212121"/>
    <mask id="mask0_430_8743" style="mask-type:luminance" maskUnits="userSpaceOnUse" x="15" y="0" width="6" height="6">
        <path fill-rule="evenodd" clip-rule="evenodd" d="M15.2954 0.00012207H20.6394V5.34502H15.2954V0.00012207Z" fill="white"/>
    </mask>
    <g mask="url(#mask0_430_8743)">
        <path fill-rule="evenodd" clip-rule="evenodd" d="M17.9674 1.5C17.3214 1.5 16.7954 2.025 16.7954 2.672C16.7954 3.318 17.3214 3.845 17.9674 3.845C18.6134 3.845 19.1394 3.318 19.1394 2.672C19.1394 2.025 18.6134 1.5 17.9674 1.5ZM17.9674 5.345C16.4944 5.345 15.2954 4.146 15.2954 2.672C15.2954 1.198 16.4944 0 17.9674 0C19.4414 0 20.6394 1.198 20.6394 2.672C20.6394 4.146 19.4414 5.345 17.9674 5.345Z" fill="#212121"/>
    </g>
    <mask id="mask1_430_8743" style="mask-type:luminance" maskUnits="userSpaceOnUse" x="0" y="0" width="20" height="21">
        <path fill-rule="evenodd" clip-rule="evenodd" d="M0 0.842163H19.8619V20.7032H0V0.842163Z" fill="white"/>
    </mask>
    <g mask="url(#mask1_430_8743)">
        <path fill-rule="evenodd" clip-rule="evenodd" d="M14.233 20.7032H5.629C2.262 20.7032 0 18.3382 0 14.8182V6.73616C0 3.21116 2.262 0.842163 5.629 0.842163H12.897C13.311 0.842163 13.647 1.17816 13.647 1.59216C13.647 2.00616 13.311 2.34216 12.897 2.34216H5.629C3.121 2.34216 1.5 4.06616 1.5 6.73616V14.8182C1.5 17.5232 3.082 19.2032 5.629 19.2032H14.233C16.741 19.2032 18.362 17.4822 18.362 14.8182V7.77916C18.362 7.36516 18.698 7.02916 19.112 7.02916C19.526 7.02916 19.862 7.36516 19.862 7.77916V14.8182C19.862 18.3382 17.6 20.7032 14.233 20.7032Z" fill="#212121"/>
    </g>
</svg>
