<svg width="24" height="24" viewBox="0 0 20 20" fill="none" xmlns="http://www.w3.org/2000/svg">
    <path fill-rule="evenodd" clip-rule="evenodd" d="M5.916 1.5C3.233 1.5 1.5 3.135 1.5 5.665V14.334C1.5 16.864 3.233 18.5 5.916 18.5H14.084C16.767 18.5 18.5 16.864 18.5 14.334V5.665C18.5 3.135 16.767 1.5 14.084 1.5H5.916ZM14.084 20H5.916C2.378 20 0 17.723 0 14.334V5.665C0 2.276 2.378 0 5.916 0H14.084C17.622 0 20 2.276 20 5.665V14.334C20 17.723 17.622 20 14.084 20Z" fill="#212121"/>
    <path fill-rule="evenodd" clip-rule="evenodd" d="M14.0858 10.75H5.91382C5.49982 10.75 5.16382 10.414 5.16382 10C5.16382 9.586 5.49982 9.25 5.91382 9.25H14.0858C14.4998 9.25 14.8358 9.586 14.8358 10C14.8358 10.414 14.4998 10.75 14.0858 10.75Z" fill="#212121"/>
    <path fill-rule="evenodd" clip-rule="evenodd" d="M10.3224 14.4979C10.1304 14.4979 9.93737 14.4249 9.79137 14.2769C9.49937 13.9829 9.50037 13.5089 9.79337 13.2169L13.0234 9.99995L9.79337 6.78295C9.50037 6.49095 9.49937 6.01695 9.79137 5.72295C10.0834 5.42895 10.5574 5.42895 10.8514 5.72095L14.6154 9.46895C14.7574 9.60895 14.8364 9.80095 14.8364 9.99995C14.8364 10.1989 14.7574 10.3909 14.6154 10.5309L10.8514 14.2789C10.7054 14.4249 10.5134 14.4979 10.3224 14.4979Z" fill="#212121"/>
</svg>
