<svg width="24" height="24" viewBox="0 0 20 20" fill="none" xmlns="http://www.w3.org/2000/svg">
    <path fill-rule="evenodd" clip-rule="evenodd" d="M10 1.5C5.313 1.5 1.5 5.313 1.5 10C1.5 14.687 5.313 18.5 10 18.5C14.687 18.5 18.5 14.687 18.5 10C18.5 5.313 14.687 1.5 10 1.5ZM10 20C4.486 20 0 15.514 0 10C0 4.486 4.486 0 10 0C15.514 0 20 4.486 20 10C20 15.514 15.514 20 10 20Z" fill="#212121"/>
    <path fill-rule="evenodd" clip-rule="evenodd" d="M8.5587 14.2207C8.3667 14.2207 8.1737 14.1477 8.0277 13.9997C7.7357 13.7057 7.7367 13.2317 8.0297 12.9397L10.9817 9.99968L8.0297 7.06068C7.7367 6.76868 7.7357 6.29368 8.0277 5.99968C8.3197 5.70468 8.7937 5.70668 9.0877 5.99768L12.5737 9.46868C12.7147 9.60968 12.7937 9.80068 12.7937 9.99968C12.7937 10.1997 12.7147 10.3907 12.5737 10.5317L9.0877 14.0017C8.9417 14.1477 8.7497 14.2207 8.5587 14.2207Z" fill="#212121"/>
</svg>
