<svg width="24" height="24" viewBox="0 0 20 20" fill="none" xmlns="http://www.w3.org/2000/svg">
    <path fill-rule="evenodd" clip-rule="evenodd" d="M10 1.5C5.313 1.5 1.5 5.313 1.5 10C1.5 14.687 5.313 18.5 10 18.5C14.687 18.5 18.5 14.687 18.5 10C18.5 5.313 14.687 1.5 10 1.5ZM10 20C4.486 20 0 15.514 0 10C0 4.486 4.486 0 10 0C15.514 0 20 4.486 20 10C20 15.514 15.514 20 10 20Z" fill="#212121"/>
    <path fill-rule="evenodd" clip-rule="evenodd" d="M10 12.7939C9.80105 12.7939 9.60905 12.7149 9.46905 12.5729L5.99805 9.08688C5.70505 8.79288 5.70705 8.31788 6.00005 8.02588C6.29405 7.73388 6.76905 7.73388 7.06105 8.02788L10 10.9819L12.94 8.02788C13.232 7.73388 13.707 7.73388 14.001 8.02588C14.294 8.31788 14.295 8.79288 14.003 9.08688L10.531 12.5729C10.391 12.7149 10.199 12.7939 10 12.7939Z" fill="#212121"/>
</svg>
