<svg width="24" height="24" viewBox="0 0 15 17" fill="none" xmlns="http://www.w3.org/2000/svg">
    <path d="M7.27441 0C7.65411 0 7.9679 0.282154 8.01757 0.648229L8.02441 0.75V15.75C8.02441 16.1642 7.68863 16.5 7.27441 16.5C6.89472 16.5 6.58092 16.2178 6.53126 15.8518L6.52441 15.75V0.75C6.52441 0.335786 6.8602 0 7.27441 0Z" fill="#212121"/>
    <path d="M12.7673 9.17101C13.0595 8.87749 13.5344 8.87646 13.8279 9.16872C14.0948 9.43442 14.1199 9.85103 13.9027 10.1451L13.8302 10.2294L7.80623 16.2794C7.53974 16.547 7.12163 16.5714 6.82755 16.3524L6.74333 16.2794L0.718329 10.2294C0.426043 9.93593 0.427026 9.46105 0.720525 9.16877C0.987342 8.90305 1.40406 8.87971 1.69721 9.09817L1.78118 9.17096L7.27506 14.687L12.7673 9.17101Z" fill="#212121"/>
</svg>
