<svg width="24" height="24" viewBox="0 0 20 20" fill="none" xmlns="http://www.w3.org/2000/svg">
    <path fill-rule="evenodd" clip-rule="evenodd" d="M10 1.5C5.313 1.5 1.5 5.313 1.5 10C1.5 14.687 5.313 18.5 10 18.5C14.687 18.5 18.5 14.687 18.5 10C18.5 5.313 14.687 1.5 10 1.5ZM10 20C4.486 20 0 15.514 0 10C0 4.486 4.486 0 10 0C15.514 0 20 4.486 20 10C20 15.514 15.514 20 10 20Z" fill="#212121"/>
    <path fill-rule="evenodd" clip-rule="evenodd" d="M13.4718 12.1924C13.2798 12.1924 13.0868 12.1194 12.9408 11.9714L9.99981 9.01836L7.06081 11.9714C6.76881 12.2654 6.29381 12.2654 5.99981 11.9734C5.70681 11.6814 5.70481 11.2074 5.99781 10.9134L9.46881 7.42636C9.74981 7.14336 10.2498 7.14336 10.5318 7.42636L14.0028 10.9134C14.2948 11.2074 14.2938 11.6814 14.0008 11.9734C13.8548 12.1194 13.6628 12.1924 13.4718 12.1924Z" fill="#212121"/>
</svg>
