<svg width="24" height="24" viewBox="0 0 20 20" fill="none" xmlns="http://www.w3.org/2000/svg">
    <path fill-rule="evenodd" clip-rule="evenodd" d="M5.666 18.5C3.136 18.5 1.5 16.767 1.5 14.084V5.916C1.5 3.233 3.136 1.5 5.666 1.5H14.335C16.865 1.5 18.5 3.233 18.5 5.916V14.084C18.5 16.767 16.865 18.5 14.335 18.5H5.666ZM14.335 0H5.666C2.277 0 0 2.378 0 5.916V14.084C0 17.622 2.277 20 5.666 20H14.335C17.724 20 20 17.622 20 14.084V5.916C20 2.378 17.724 0 14.335 0Z" fill="#212121"/>
    <path fill-rule="evenodd" clip-rule="evenodd" d="M10 5.16406C9.586 5.16406 9.25 5.50006 9.25 5.91406V14.0861C9.25 14.5001 9.586 14.8361 10 14.8361C10.414 14.8361 10.75 14.5001 10.75 14.0861V5.91406C10.75 5.50006 10.414 5.16406 10 5.16406Z" fill="#212121"/>
    <path fill-rule="evenodd" clip-rule="evenodd" d="M9.99995 5.16311C9.80095 5.16311 9.60895 5.24211 9.46895 5.38411L5.72095 9.14811C5.42795 9.44211 5.42995 9.91711 5.72295 10.2091C6.01695 10.5001 6.49095 10.5021 6.78295 10.2071L9.99995 6.97611L13.2169 10.2071C13.5099 10.5021 13.9839 10.5001 14.2769 10.2091C14.57 9.91711 14.5719 9.44211 14.2789 9.14811L10.5309 5.38411C10.3909 5.24211 10.1989 5.16311 9.99995 5.16311Z" fill="#212121"/>
</svg>
