<svg width="24" height="24" viewBox="0 0 20 20" fill="none" xmlns="http://www.w3.org/2000/svg">
    <path fill-rule="evenodd" clip-rule="evenodd" d="M10 1.5C5.313 1.5 1.5 5.313 1.5 10C1.5 14.687 5.313 18.5 10 18.5C14.687 18.5 18.5 14.687 18.5 10C18.5 5.313 14.687 1.5 10 1.5ZM10 20C4.486 20 0 15.514 0 10C0 4.486 4.486 0 10 0C15.514 0 20 4.486 20 10C20 15.514 15.514 20 10 20Z" fill="#212121"/>
    <path fill-rule="evenodd" clip-rule="evenodd" d="M11.4423 14.2207C11.2513 14.2207 11.0593 14.1477 10.9133 14.0017L7.4263 10.5317C7.2853 10.3907 7.2063 10.1997 7.2063 9.99968C7.2063 9.80068 7.2853 9.60968 7.4263 9.46868L10.9133 5.99768C11.2063 5.70568 11.6803 5.70568 11.9733 5.99968C12.2663 6.29368 12.2643 6.76868 11.9713 7.06068L9.0193 9.99968L11.9713 12.9397C12.2643 13.2317 12.2663 13.7057 11.9733 13.9997C11.8273 14.1477 11.6343 14.2207 11.4423 14.2207Z" fill="#212121"/>
</svg>
