<svg width="24" height="24" viewBox="0 0 15 17" fill="none" xmlns="http://www.w3.org/2000/svg">
    <path d="M7.72559 17C7.34589 17 7.0321 16.7178 6.98243 16.3518L6.97559 16.25L6.97559 1.25C6.97559 0.835787 7.31137 0.5 7.72559 0.5C8.10528 0.5 8.41908 0.782154 8.46874 1.14823L8.47559 1.25L8.47559 16.25C8.47559 16.6642 8.1398 17 7.72559 17Z" fill="#212121"/>
    <path d="M2.23271 7.82899C1.94045 8.12251 1.46558 8.12354 1.17206 7.83128C0.905218 7.56558 0.880116 7.14897 1.09734 6.85489L1.16977 6.77062L7.19377 0.720618C7.46026 0.452981 7.87837 0.428634 8.17245 0.647588L8.25667 0.720574L14.2817 6.77057C14.574 7.06407 14.573 7.53895 14.2795 7.83123C14.0127 8.09695 13.5959 8.12029 13.3028 7.90183L13.2188 7.82904L7.72494 2.313L2.23271 7.82899Z" fill="#212121"/>
</svg>
