<svg width="24" height="24" viewBox="0 0 20 21" fill="none" xmlns="http://www.w3.org/2000/svg">
    <mask id="mask0_430_8819" style="mask-type:luminance" maskUnits="userSpaceOnUse" x="0" y="4" width="20" height="17">
        <path fill-rule="evenodd" clip-rule="evenodd" d="M0 4.54004H19.5859V20.7216H0V4.54004Z" fill="white"/>
    </mask>
    <g mask="url(#mask0_430_8819)">
        <path fill-rule="evenodd" clip-rule="evenodd" d="M4.71553 6.04004C4.27453 6.04004 2.80053 6.21804 2.37753 8.50204L1.60553 14.502C1.35453 16.185 1.54853 17.403 2.18353 18.14C2.81053 18.868 3.93253 19.222 5.61253 19.222H13.9605C15.0085 19.222 16.4395 19.013 17.3035 18.015C17.9895 17.224 18.2255 16.046 18.0055 14.513L17.2265 8.46104C16.8945 6.97004 16.0185 6.04004 14.8945 6.04004H4.71553ZM13.9605 20.722H5.61253C3.46953 20.722 1.97653 20.197 1.04753 19.118C0.114531 18.036 -0.197469 16.413 0.120531 14.295L0.896531 8.26904C1.40653 5.50604 3.27153 4.54004 4.71553 4.54004H14.8945C16.3445 4.54004 18.1075 5.50304 18.7025 8.20404L19.4915 14.311C19.7745 16.282 19.4205 17.863 18.4375 18.997C17.4595 20.125 15.9115 20.722 13.9605 20.722Z" fill="#212121"/>
    </g>
    <path fill-rule="evenodd" clip-rule="evenodd" d="M14.0977 5.82024C13.6837 5.82024 13.3477 5.48424 13.3477 5.07024C13.3477 3.10124 11.7457 1.50024 9.77772 1.50024H9.76272C8.82172 1.50024 7.90472 1.87924 7.23972 2.54024C6.57172 3.20524 6.18872 4.12824 6.18872 5.07024C6.18872 5.48424 5.85272 5.82024 5.43872 5.82024C5.02472 5.82024 4.68872 5.48424 4.68872 5.07024C4.68872 3.73124 5.23272 2.42224 6.18072 1.47724C7.12572 0.538244 8.42872 0.000244141 9.75972 0.000244141H9.78072C12.5737 0.000244141 14.8477 2.27424 14.8477 5.07024C14.8477 5.48424 14.5117 5.82024 14.0977 5.82024Z" fill="#212121"/>
    <path fill-rule="evenodd" clip-rule="evenodd" d="M12.7433 10.3241H12.6973C12.2833 10.3241 11.9473 9.9881 11.9473 9.5741C11.9473 9.1601 12.2833 8.8241 12.6973 8.8241C13.1113 8.8241 13.4703 9.1601 13.4703 9.5741C13.4703 9.9881 13.1573 10.3241 12.7433 10.3241Z" fill="#212121"/>
    <path fill-rule="evenodd" clip-rule="evenodd" d="M6.91219 10.3241H6.86719C6.45319 10.3241 6.11719 9.9881 6.11719 9.5741C6.11719 9.1601 6.45319 8.8241 6.86719 8.8241C7.28119 8.8241 7.64019 9.1601 7.64019 9.5741C7.64019 9.9881 7.32619 10.3241 6.91219 10.3241Z" fill="#212121"/>
</svg>
