<svg width="24" height="24" viewBox="0 0 20 20" fill="none" xmlns="http://www.w3.org/2000/svg">
    <mask id="mask0_430_8833" style="mask-type:luminance" maskUnits="userSpaceOnUse" x="5" y="0" width="10" height="9">
        <path fill-rule="evenodd" clip-rule="evenodd" d="M5.21094 0H14.2729V8.3057H5.21094V0Z" fill="white"/>
    </mask>
    <g mask="url(#mask0_430_8833)">
        <path fill-rule="evenodd" clip-rule="evenodd" d="M13.5229 8.30576C13.1089 8.30576 12.7729 7.96976 12.7729 7.55576V4.52376C12.7729 2.85676 11.4179 1.49976 9.75094 1.49976C8.93994 1.52776 8.17994 1.80776 7.60594 2.37576C7.03194 2.94476 6.71394 3.70176 6.71094 4.50876V7.55576C6.71094 7.96976 6.37494 8.30576 5.96094 8.30576C5.54694 8.30576 5.21094 7.96976 5.21094 7.55576V4.52376C5.21594 3.29476 5.69094 2.16076 6.54994 1.31076C7.40794 0.459756 8.55994 0.0347559 9.75394 -0.000244141C12.2449 -0.000244141 14.2729 2.02976 14.2729 4.52376V7.55576C14.2729 7.96976 13.9369 8.30576 13.5229 8.30576Z" fill="#212121"/>
    </g>
    <mask id="mask1_430_8833" style="mask-type:luminance" maskUnits="userSpaceOnUse" x="0" y="4" width="20" height="16">
        <path fill-rule="evenodd" clip-rule="evenodd" d="M0 4.47461H19.4998V19.9996H0V4.47461Z" fill="white"/>
    </mask>
    <g mask="url(#mask1_430_8833)">
        <path fill-rule="evenodd" clip-rule="evenodd" d="M5.00776 5.97461C3.07376 5.97461 1.49976 7.54661 1.49976 9.47961V14.9956C1.49976 16.9276 3.07376 18.4996 5.00776 18.4996H14.4918C16.4258 18.4996 17.9998 16.9276 17.9998 14.9956V9.47961C17.9998 7.54661 16.4258 5.97461 14.4918 5.97461H5.00776ZM14.4918 19.9996H5.00776C2.24676 19.9996 -0.000244141 17.7546 -0.000244141 14.9956V9.47961C-0.000244141 6.71961 2.24676 4.47461 5.00776 4.47461H14.4918C17.2538 4.47461 19.4998 6.71961 19.4998 9.47961V14.9956C19.4998 17.7546 17.2538 19.9996 14.4918 19.9996Z" fill="#212121"/>
    </g>
</svg>
