<svg width="24" height="24" viewBox="0 0 18 21" fill="none" xmlns="http://www.w3.org/2000/svg">
    <mask id="mask0_430_8230" style="mask-type:luminance" maskUnits="userSpaceOnUse" x="0" y="0" width="18" height="21">
        <path fill-rule="evenodd" clip-rule="evenodd" d="M0 0H17.0388V20.8467H0V0Z" fill="white"/>
    </mask>
    <g mask="url(#mask0_430_8230)">
        <path fill-rule="evenodd" clip-rule="evenodd" d="M5.34176 1.5C2.79276 1.5 1.49976 2.482 1.49976 4.421V19.145C1.49976 19.239 1.55376 19.29 1.59876 19.316C1.64376 19.344 1.71476 19.364 1.79676 19.318L8.17876 15.738C8.40676 15.611 8.68576 15.61 8.91476 15.739L15.2418 19.313C15.3248 19.361 15.3958 19.339 15.4408 19.312C15.4858 19.285 15.5388 19.234 15.5388 19.14V4.604C15.5388 3.837 15.5388 1.5 11.7008 1.5H5.34176ZM1.69876 20.847C1.40376 20.847 1.10876 20.768 0.840756 20.61C0.313756 20.303 -0.000244141 19.754 -0.000244141 19.145V4.421C-0.000244141 1.611 1.94676 0 5.34176 0H11.7008C15.0928 0 17.0388 1.679 17.0388 4.604V19.14C17.0388 19.75 16.7248 20.299 16.1968 20.606C15.6708 20.914 15.0368 20.92 14.5048 20.62L8.54476 17.253L2.52976 20.627C2.26976 20.773 1.98476 20.847 1.69876 20.847Z" fill="#212121"/>
    </g>
    <path fill-rule="evenodd" clip-rule="evenodd" d="M12.1395 8.22852H4.82153C4.40753 8.22852 4.07153 7.89252 4.07153 7.47852C4.07153 7.06452 4.40753 6.72852 4.82153 6.72852H12.1395C12.5535 6.72852 12.8895 7.06452 12.8895 7.47852C12.8895 7.89252 12.5535 8.22852 12.1395 8.22852Z" fill="#212121"/>
</svg>
