<svg width="24" height="24" viewBox="0 0 21 20" fill="none" xmlns="http://www.w3.org/2000/svg">
    <path fill-rule="evenodd" clip-rule="evenodd" d="M4.32759 5.34736L4.93059 12.5194C4.97459 13.0714 5.42559 13.4854 5.97659 13.4854H5.98059H16.8916H16.8936C17.4146 13.4854 17.8596 13.0974 17.9336 12.5824L18.8836 6.02337C18.9056 5.86736 18.8666 5.71136 18.7716 5.58536C18.6776 5.45836 18.5396 5.37636 18.3836 5.35436C18.1746 5.36236 9.50159 5.35036 4.32759 5.34736ZM5.97459 14.9854C4.65759 14.9854 3.54259 13.9574 3.43559 12.6424L2.51959 1.74836L1.01259 1.48836C0.603593 1.41636 0.330593 1.02936 0.400593 0.620365C0.472593 0.211365 0.867593 -0.054635 1.26759 0.00936497L3.34759 0.369365C3.68259 0.428365 3.93759 0.706365 3.96659 1.04637L4.20159 3.84736C18.4776 3.85336 18.5236 3.86037 18.5926 3.86837C19.1496 3.94937 19.6396 4.24037 19.9736 4.68836C20.3076 5.13537 20.4476 5.68637 20.3676 6.23837L19.4186 12.7964C19.2396 14.0444 18.1556 14.9854 16.8956 14.9854H16.8906H5.98259H5.97459Z" fill="#212121"/>
    <path fill-rule="evenodd" clip-rule="evenodd" d="M15.2874 9.0437H12.5154C12.1004 9.0437 11.7654 8.7077 11.7654 8.2937C11.7654 7.8797 12.1004 7.5437 12.5154 7.5437H15.2874C15.7014 7.5437 16.0374 7.8797 16.0374 8.2937C16.0374 8.7077 15.7014 9.0437 15.2874 9.0437Z" fill="#212121"/>
    <path fill-rule="evenodd" clip-rule="evenodd" d="M5.54451 17.7019C5.84551 17.7019 6.08851 17.9449 6.08851 18.2459C6.08851 18.5469 5.84551 18.7909 5.54451 18.7909C5.24251 18.7909 4.99951 18.5469 4.99951 18.2459C4.99951 17.9449 5.24251 17.7019 5.54451 17.7019Z" fill="#212121"/>
    <mask id="mask0_430_8384" style="mask-type:luminance" maskUnits="userSpaceOnUse" x="4" y="17" width="3" height="2">
        <path fill-rule="evenodd" clip-rule="evenodd" d="M4.99878 18.2454C4.99878 18.5474 5.24178 18.7914 5.54478 18.7914C5.84578 18.7914 6.08878 18.5474 6.08878 18.2454C6.08878 17.9444 5.84578 17.7014 5.54478 17.7014C5.24178 17.7014 4.99878 17.9444 4.99878 18.2454Z" fill="white"/>
    </mask>
    <g mask="url(#mask0_430_8384)">
        <path fill-rule="evenodd" clip-rule="evenodd" d="M-0.000244141 23.7904H11.0888V12.7014H-0.000244141V23.7904Z" fill="#212121"/>
    </g>
    <path fill-rule="evenodd" clip-rule="evenodd" d="M5.54351 18.0408C5.43051 18.0408 5.33851 18.1328 5.33851 18.2458C5.33851 18.4728 5.74951 18.4728 5.74951 18.2458C5.74951 18.1328 5.65651 18.0408 5.54351 18.0408ZM5.54351 19.5408C4.82951 19.5408 4.24951 18.9598 4.24951 18.2458C4.24951 17.5318 4.82951 16.9518 5.54351 16.9518C6.25751 16.9518 6.83851 17.5318 6.83851 18.2458C6.83851 18.9598 6.25751 19.5408 5.54351 19.5408Z" fill="#212121"/>
    <path fill-rule="evenodd" clip-rule="evenodd" d="M16.8248 17.7019C17.1258 17.7019 17.3698 17.9449 17.3698 18.2459C17.3698 18.5469 17.1258 18.7909 16.8248 18.7909C16.5228 18.7909 16.2798 18.5469 16.2798 18.2459C16.2798 17.9449 16.5228 17.7019 16.8248 17.7019Z" fill="#212121"/>
    <mask id="mask1_430_8384" style="mask-type:luminance" maskUnits="userSpaceOnUse" x="16" y="17" width="2" height="2">
        <path fill-rule="evenodd" clip-rule="evenodd" d="M16.2798 18.2454C16.2798 18.5474 16.5228 18.7914 16.8248 18.7914C17.1248 18.7914 17.3698 18.5474 17.3698 18.2454C17.3698 17.9444 17.1248 17.7014 16.8248 17.7014C16.5228 17.7014 16.2798 17.9444 16.2798 18.2454Z" fill="white"/>
    </mask>
    <g mask="url(#mask1_430_8384)">
        <path fill-rule="evenodd" clip-rule="evenodd" d="M11.2798 23.7904H22.3698V12.7014H11.2798V23.7904Z" fill="#212121"/>
    </g>
    <path fill-rule="evenodd" clip-rule="evenodd" d="M16.8238 18.0408C16.7118 18.0408 16.6198 18.1328 16.6198 18.2458C16.6208 18.4748 17.0308 18.4728 17.0298 18.2458C17.0298 18.1328 16.9368 18.0408 16.8238 18.0408ZM16.8238 19.5408C16.1098 19.5408 15.5298 18.9598 15.5298 18.2458C15.5298 17.5318 16.1098 16.9518 16.8238 16.9518C17.5388 16.9518 18.1198 17.5318 18.1198 18.2458C18.1198 18.9598 17.5388 19.5408 16.8238 19.5408Z" fill="#212121"/>
</svg>
