<svg width="24" height="24" viewBox="0 0 22 22" fill="none" xmlns="http://www.w3.org/2000/svg">
    <path d="M19.7846 2.21955C20.0775 1.92665 20.5524 1.92665 20.8453 2.21955C21.1115 2.48581 21.1357 2.90248 20.9179 3.19609L20.8453 3.28021L14.8453 9.28021C14.5524 9.5731 14.0775 9.5731 13.7846 9.28021C13.5183 9.01394 13.4941 8.59728 13.712 8.30367L13.7846 8.21955L19.7846 2.21955Z" fill="#212121"/>
    <path d="M13.7846 2.21955C14.0509 1.95328 14.4675 1.92908 14.7612 2.14693L14.8453 2.21955L20.8453 8.21955C21.1382 8.51244 21.1382 8.98731 20.8453 9.28021C20.579 9.54647 20.1623 9.57068 19.8687 9.35283L19.7846 9.28021L13.7846 3.28021C13.4917 2.98731 13.4917 2.51244 13.7846 2.21955Z" fill="#212121"/>
    <path fill-rule="evenodd" clip-rule="evenodd" d="M1.47109 2.82943L1.54364 2.75361C3.47106 0.826017 4.72622 0.315089 6.06544 1.0852C6.45067 1.30673 6.81183 1.61681 7.30291 2.11559L8.80929 3.67761C9.64131 4.58551 9.83046 5.45636 9.55954 6.47623L9.52221 6.61125L9.48078 6.7455L9.27941 7.33632C8.8484 8.6613 9.02834 9.40886 10.5618 10.942C12.1565 12.5363 12.9009 12.6667 14.3281 12.168L14.5825 12.0795L14.89 11.9797L15.0247 11.9423C16.1087 11.6531 17.0244 11.8839 17.9956 12.8544L19.2093 14.0268L19.5666 14.3782C19.9627 14.7821 20.2245 15.1022 20.4179 15.4405C21.1832 16.7793 20.6717 18.0337 18.6887 20.0093L18.5 20.2005C18.204 20.4858 17.9274 20.6902 17.521 20.8832C16.8388 21.207 16.033 21.3291 15.0966 21.1989C12.7891 20.878 9.86253 19.0574 6.15425 15.35C5.85239 15.0482 5.56327 14.7523 5.28662 14.4621L4.74985 13.8892C-0.280004 8.42442 -0.723739 5.06746 1.33755 2.96208L1.47109 2.82943ZM6.08879 3.0225C5.76299 2.70131 5.52633 2.50551 5.31769 2.38553C4.85616 2.12014 4.35787 2.23232 3.43567 3.02605L3.1459 3.28492C3.09536 3.33158 3.04366 3.38001 2.99075 3.43026L2.65848 3.75389L2.62854 3.7913L2.40328 4.01761C1.85893 4.57362 1.60108 5.25221 1.82328 6.41925C2.18788 8.33427 3.85679 10.9321 7.21478 14.2892C10.7137 17.7872 13.3795 19.4457 15.3032 19.7132C16.4246 19.8692 16.9966 19.5976 17.5799 19L18.0248 18.551C18.2334 18.3328 18.4116 18.1349 18.5621 17.9542L18.7674 17.6955C19.2921 16.9966 19.34 16.5774 19.1156 16.1849C19.0302 16.0355 18.906 15.8717 18.7253 15.6716L18.48 15.4126L18.3349 15.2674L16.8036 13.7888C16.2919 13.3169 15.9423 13.25 15.4113 13.3916L15.2581 13.4357L14.6238 13.651C12.7837 14.2453 11.4562 13.9571 9.50131 12.0028C7.47667 9.97863 7.23922 8.62695 7.91759 6.68075L7.96111 6.55569L8.08145 6.19311L8.14061 5.96201C8.24551 5.45904 8.12574 5.10835 7.58507 4.56758C7.5628 4.54532 7.53792 4.52024 7.51085 4.49278L6.08879 3.0225Z" fill="#212121"/>
</svg>
