<svg width="24" height="24" viewBox="0 0 21 21" fill="none" xmlns="http://www.w3.org/2000/svg">
    <mask id="mask0_430_8678" style="mask-type:luminance" maskUnits="userSpaceOnUse" x="0" y="0" width="10" height="14">
        <path fill-rule="evenodd" clip-rule="evenodd" d="M0 0.000488281H9.29534V13.1045H0V0.000488281Z" fill="white"/>
    </mask>
    <g mask="url(#mask0_430_8678)">
        <path fill-rule="evenodd" clip-rule="evenodd" d="M4.72535 13.1045C4.51835 13.1045 4.31135 13.0185 4.16335 12.8505C-1.17865 6.79849 -0.412645 3.66449 1.17135 2.10049C1.18735 2.08049 1.24235 2.02649 1.25935 2.00849C2.66335 0.583488 3.62335 0.000488281 4.56035 0.000488281H4.58935C5.70035 0.0144883 6.48535 0.853488 7.47935 1.91649C7.72335 2.17749 7.98935 2.46049 8.28335 2.75949C9.71336 4.21849 9.30735 5.40649 8.98035 6.36049C8.74435 7.05149 8.53835 7.64949 8.91235 8.50049C9.07935 8.88049 8.90735 9.32349 8.52835 9.48949C8.14635 9.65549 7.70535 9.48349 7.53935 9.10449C6.93035 7.71549 7.29435 6.65149 7.56135 5.87449C7.85035 5.03149 7.99535 4.60849 7.21335 3.81149C6.91035 3.50349 6.63635 3.21049 6.38335 2.94149C5.60435 2.10749 5.04035 1.50549 4.57035 1.50049H4.56235C4.09535 1.50049 3.36435 2.01049 2.32835 3.06149C2.32935 3.05949 2.33135 3.05849 2.33135 3.05849C2.33335 3.05849 2.28635 3.10749 2.22535 3.16749C0.0833547 5.28349 3.22435 9.52049 5.28735 11.8585C5.56135 12.1685 5.53235 12.6425 5.22135 12.9175C5.07935 13.0425 4.90235 13.1045 4.72535 13.1045Z" fill="#212121"/>
    </g>
    <path fill-rule="evenodd" clip-rule="evenodd" d="M15.9628 20.8174C13.6718 20.8174 10.7338 19.0784 7.2258 15.6454C6.9298 15.3554 6.9238 14.8804 7.2138 14.5854C7.5048 14.2884 7.9798 14.2844 8.2748 14.5734C12.3338 18.5464 14.7058 19.3744 16.0278 19.3164C16.9928 19.2964 17.4488 18.8074 17.6678 18.5734C17.7288 18.5084 17.7768 18.4604 17.8128 18.4284C18.8058 17.4124 19.3068 16.6644 19.3008 16.1804C19.2938 15.6874 18.6988 15.1094 17.8748 14.3084C17.6138 14.0554 17.3318 13.7814 17.0328 13.4774C16.2658 12.6954 15.8858 12.8314 15.0508 13.1334C14.0228 13.5034 12.6128 14.0134 10.5658 12.3294C10.2448 12.0664 10.1978 11.5934 10.4618 11.2744C10.7238 10.9534 11.1998 10.9074 11.5168 11.1714C12.9078 12.3094 13.6268 12.0494 14.5428 11.7214C15.4368 11.3994 16.6618 10.9614 18.1038 12.4254C18.3938 12.7214 18.6678 12.9874 18.9198 13.2334C19.9628 14.2464 20.7858 15.0464 20.7998 16.1624C20.8128 17.1144 20.2438 18.0874 18.8418 19.5194L18.7459 19.6165L18.7939 19.568C18.4909 19.892 17.6568 20.7814 16.0618 20.8164C16.0278 20.8174 15.9948 20.8174 15.9628 20.8174Z" fill="#212121"/>
    <path fill-rule="evenodd" clip-rule="evenodd" d="M2.63941 20.3994C2.45541 20.3994 2.27141 20.3324 2.12641 20.1964C1.82441 19.9134 1.80941 19.4384 2.09241 19.1364L17.0924 3.13643C17.3744 2.83343 17.8504 2.81843 18.1524 3.10243C18.4544 3.38543 18.4694 3.86043 18.1864 4.16243L3.18641 20.1624C3.03841 20.3204 2.83941 20.3994 2.63941 20.3994Z" fill="#212121"/>
</svg>
