<svg width="24" height="24" viewBox="0 0 20 18" fill="none" xmlns="http://www.w3.org/2000/svg">
    <path fill-rule="evenodd" clip-rule="evenodd" d="M5.19406 1.83146C5.59601 1.10093 6.03328 0.612585 6.68213 0.354329C7.87114 -0.118451 12.1295 -0.118451 13.3176 0.354424C13.9661 0.61254 14.4035 1.1008 14.8058 1.83118L15.258 2.69833C15.2684 2.71551 15.2779 2.73062 15.2864 2.74362L15.3248 2.79613C15.5308 3.02063 15.8757 3.15626 16.1032 3.15626C18.2553 3.15626 20.0002 4.90085 20.0002 7.05226V12.8473C20.0002 15.5915 17.7745 17.8173 15.0302 17.8173H4.97024C2.22535 17.8173 0.000244141 15.5918 0.000244141 12.8473V7.05226C0.000244141 4.90085 1.74522 3.15626 3.89724 3.15626C4.12402 3.15626 4.46932 3.02043 4.67568 2.79613C4.67981 2.79164 4.68519 2.78495 4.69169 2.77609L4.74312 2.69721L5.19406 1.83146ZM13.4919 2.55484C13.2419 2.101 13.016 1.84885 12.7629 1.74809L12.6436 1.70842C11.6144 1.41754 8.03465 1.43076 7.2366 1.74809C6.98358 1.84879 6.75793 2.10081 6.50826 2.55456L6.1234 3.29866L6.02868 3.47009C5.9496 3.60161 5.87051 3.71264 5.78019 3.81105C5.27373 4.36155 4.52449 4.65626 3.89724 4.65626L3.73315 4.66179C2.48599 4.74611 1.50024 5.78447 1.50024 7.05226V12.8473C1.50024 14.7634 3.05383 16.3173 4.97024 16.3173H15.0302C16.946 16.3173 18.5002 14.763 18.5002 12.8473V7.05226C18.5002 5.72935 17.4269 4.65626 16.1032 4.65626L15.9291 4.64898C15.3406 4.60055 14.6795 4.31142 14.2197 3.81038C14.1306 3.71328 14.0519 3.60304 13.9733 3.47263C13.962 3.45392 13.948 3.42929 13.9319 3.40014L13.8158 3.1824L13.4919 2.55484Z" fill="#212121"/>
    <path d="M15.5046 5.5C16.0569 5.5 16.5046 5.94772 16.5046 6.5C16.5046 7.01284 16.1186 7.43551 15.6212 7.49327L15.5046 7.5C14.9433 7.5 14.4956 7.05228 14.4956 6.5C14.4956 5.98716 14.8816 5.56449 15.379 5.50673L15.5046 5.5Z" fill="#212121"/>
    <path fill-rule="evenodd" clip-rule="evenodd" d="M6.07104 10.128C6.07104 7.95776 7.82983 6.19897 10 6.19897C12.1703 6.19897 13.929 7.95776 13.929 10.128C13.929 12.2982 12.1703 14.057 10 14.057C7.82983 14.057 6.07104 12.2982 6.07104 10.128ZM12.429 10.128C12.429 8.78619 11.3418 7.69897 10 7.69897C8.65826 7.69897 7.57104 8.78619 7.57104 10.128C7.57104 11.4698 8.65826 12.557 10 12.557C11.3418 12.557 12.429 11.4698 12.429 10.128Z" fill="#212121"/>
</svg>
