<svg width="24" height="24" viewBox="0 0 20 20" fill="none" xmlns="http://www.w3.org/2000/svg">
    <path fill-rule="evenodd" clip-rule="evenodd" d="M7.60253 13.1367C7.41053 13.1367 7.21853 13.0637 7.07253 12.9167C6.77953 12.6237 6.77953 12.1497 7.07253 11.8567L11.8645 7.06472C12.1575 6.77172 12.6315 6.77172 12.9245 7.06472C13.2175 7.35772 13.2175 7.83172 12.9245 8.12472L8.13253 12.9167C7.98653 13.0637 7.79453 13.1367 7.60253 13.1367Z" fill="#212121"/>
    <path fill-rule="evenodd" clip-rule="evenodd" d="M12.3966 13.1396C12.2046 13.1396 12.0126 13.0666 11.8666 12.9196L7.07058 8.12265C6.77758 7.82965 6.77758 7.35565 7.07058 7.06265C7.36458 6.76965 7.83858 6.76965 8.13058 7.06265L12.9266 11.8596C13.2196 12.1526 13.2196 12.6266 12.9266 12.9196C12.7806 13.0666 12.5876 13.1396 12.3966 13.1396Z" fill="#212121"/>
    <path fill-rule="evenodd" clip-rule="evenodd" d="M5.665 1.5C3.135 1.5 1.5 3.233 1.5 5.916V14.084C1.5 16.767 3.135 18.5 5.665 18.5H14.333C16.864 18.5 18.5 16.767 18.5 14.084V5.916C18.5 3.233 16.864 1.5 14.334 1.5H5.665ZM14.333 20H5.665C2.276 20 0 17.622 0 14.084V5.916C0 2.378 2.276 0 5.665 0H14.334C17.723 0 20 2.378 20 5.916V14.084C20 17.622 17.723 20 14.333 20Z" fill="#212121"/>
</svg>
