<svg width="24" height="24" viewBox="0 0 21 21" fill="none" xmlns="http://www.w3.org/2000/svg">
    <mask id="mask0_430_8481" style="mask-type:luminance" maskUnits="userSpaceOnUse" x="0" y="0" width="21" height="21">
        <path fill-rule="evenodd" clip-rule="evenodd" d="M0.000244141 0.000244141H20.003V20.0012H0.000244141V0.000244141Z" fill="white"/>
    </mask>
    <g mask="url(#mask0_430_8481)">
        <path fill-rule="evenodd" clip-rule="evenodd" d="M8.94497 18.0755C9.53497 18.6515 10.485 18.6445 11.071 18.0555L11.793 17.3355C12.353 16.7765 13.127 16.4575 13.916 16.4575H14.946C15.78 16.4575 16.458 15.7795 16.458 14.9465V13.9175C16.458 13.1165 16.768 12.3635 17.334 11.7965L18.054 11.0755C18.347 10.7815 18.504 10.4005 18.503 9.99651C18.502 9.59351 18.343 9.21451 18.056 8.92851L17.335 8.20651C16.768 7.63551 16.458 6.88351 16.458 6.08251V5.05551C16.458 4.22151 15.78 3.54351 14.946 3.54351H13.918C13.117 3.54351 12.364 3.23251 11.797 2.66951L11.075 1.94651C10.474 1.35151 9.51497 1.35451 8.92797 1.94551L8.20897 2.66651C7.63497 3.23351 6.88197 3.54351 6.08397 3.54351H5.05497C4.22197 3.54451 3.54397 4.22251 3.54397 5.05551V6.08051C3.54397 6.88151 3.23297 7.63451 2.66897 8.20251L1.95897 8.91351C1.95197 8.92151 1.94497 8.92751 1.93797 8.93451C1.35097 9.52551 1.35397 10.4845 1.94497 11.0715L2.66697 11.7935C3.23297 12.3615 3.54397 13.1145 3.54397 13.9155V14.9465C3.54397 15.7795 4.22097 16.4575 5.05497 16.4575H6.08197C6.88397 16.4585 7.63697 16.7695 8.20397 17.3345L8.92497 18.0535C8.93097 18.0605 8.93797 18.0675 8.94497 18.0755ZM9.99897 20.0015C9.23197 20.0015 8.46497 19.7115 7.87797 19.1295C7.86997 19.1215 7.86197 19.1135 7.85397 19.1045L7.14397 18.3955C6.86097 18.1145 6.48297 17.9585 6.08097 17.9575H5.05497C3.39397 17.9575 2.04397 16.6065 2.04397 14.9465V13.9155C2.04397 13.5135 1.88697 13.1365 1.60497 12.8525L0.885966 12.1345C-0.282034 10.9725 -0.296034 9.08051 0.850966 7.90051C0.859966 7.89151 0.868966 7.88251 0.877966 7.87351L1.60597 7.14351C1.88697 6.86051 2.04397 6.48151 2.04397 6.08051V5.05551C2.04397 3.39551 3.39397 2.04451 5.05397 2.04351H6.08397C6.48497 2.04351 6.86297 1.88651 7.14997 1.60351L7.86497 0.886509C9.03397 -0.290491 10.945 -0.296491 12.124 0.875509L12.855 1.60651C13.138 1.88751 13.516 2.04351 13.918 2.04351H14.946C16.607 2.04351 17.958 3.39451 17.958 5.05551V6.08251C17.958 6.48351 18.114 6.86251 18.397 7.14751L19.115 7.86651C19.684 8.43151 20 9.18651 20.003 9.99151C20.006 10.7965 19.695 11.5535 19.128 12.1245L18.395 12.8555C18.114 13.1385 17.958 13.5155 17.958 13.9175V14.9465C17.958 16.6065 16.607 17.9575 14.947 17.9575H13.916C13.52 17.9575 13.133 18.1175 12.852 18.3965L12.134 19.1145C11.547 19.7055 10.773 20.0015 9.99897 20.0015Z" fill="#212121"/>
    </g>
    <path fill-rule="evenodd" clip-rule="evenodd" d="M7.43041 13.3215C7.23841 13.3215 7.04641 13.2485 6.90041 13.1015C6.60741 12.8085 6.60741 12.3345 6.90041 12.0415L12.0404 6.90054C12.3334 6.60754 12.8084 6.60754 13.1014 6.90054C13.3944 7.19354 13.3944 7.66854 13.1014 7.96154L7.96041 13.1015C7.81441 13.2485 7.62241 13.3215 7.43041 13.3215Z" fill="#212121"/>
    <path fill-rule="evenodd" clip-rule="evenodd" d="M12.5035 13.4993C11.9505 13.4993 11.4985 13.0523 11.4985 12.4993C11.4985 11.9463 11.9415 11.4993 12.4945 11.4993H12.5035C13.0565 11.4993 13.5035 11.9463 13.5035 12.4993C13.5035 13.0523 13.0565 13.4993 12.5035 13.4993Z" fill="#212121"/>
    <path fill-rule="evenodd" clip-rule="evenodd" d="M7.50354 8.49927C6.95054 8.49927 6.49854 8.05227 6.49854 7.49927C6.49854 6.94627 6.94154 6.49927 7.49454 6.49927H7.50354C8.05654 6.49927 8.50354 6.94627 8.50354 7.49927C8.50354 8.05227 8.05654 8.49927 7.50354 8.49927Z" fill="#212121"/>
</svg>
