<svg width="24" height="24" viewBox="0 0 19 20" fill="none" xmlns="http://www.w3.org/2000/svg">
    <path fill-rule="evenodd" clip-rule="evenodd" d="M12.7158 14.9738H5.49585C5.08185 14.9738 4.74585 14.6378 4.74585 14.2238C4.74585 13.8098 5.08185 13.4738 5.49585 13.4738H12.7158C13.1298 13.4738 13.4658 13.8098 13.4658 14.2238C13.4658 14.6378 13.1298 14.9738 12.7158 14.9738Z" fill="#212121"/>
    <path fill-rule="evenodd" clip-rule="evenodd" d="M12.7158 10.7872H5.49585C5.08185 10.7872 4.74585 10.4512 4.74585 10.0372C4.74585 9.62323 5.08185 9.28723 5.49585 9.28723H12.7158C13.1298 9.28723 13.4658 9.62323 13.4658 10.0372C13.4658 10.4512 13.1298 10.7872 12.7158 10.7872Z" fill="#212121"/>
    <path fill-rule="evenodd" clip-rule="evenodd" d="M8.25061 6.61047H5.49561C5.08161 6.61047 4.74561 6.27447 4.74561 5.86047C4.74561 5.44647 5.08161 5.11047 5.49561 5.11047H8.25061C8.66461 5.11047 9.00061 5.44647 9.00061 5.86047C9.00061 6.27447 8.66461 6.61047 8.25061 6.61047Z" fill="#212121"/>
    <mask id="mask0_430_8875" style="mask-type:luminance" maskUnits="userSpaceOnUse" x="0" y="0" width="19" height="20">
        <path fill-rule="evenodd" clip-rule="evenodd" d="M0 0.000244141H18.1647V19.91H0V0.000244141Z" fill="white"/>
    </mask>
    <g mask="url(#mask0_430_8875)">
        <path fill-rule="evenodd" clip-rule="evenodd" d="M12.9088 1.5L5.21976 1.504C2.89176 1.518 1.49976 2.958 1.49976 5.357V14.553C1.49976 16.968 2.90476 18.41 5.25576 18.41L12.9448 18.407C15.2728 18.393 16.6648 16.951 16.6648 14.553V5.357C16.6648 2.942 15.2608 1.5 12.9088 1.5ZM5.25676 19.91C2.11276 19.91 -0.000244141 17.757 -0.000244141 14.553V5.357C-0.000244141 2.124 2.04676 0.023 5.21476 0.004L12.9078 0H12.9088C16.0528 0 18.1648 2.153 18.1648 5.357V14.553C18.1648 17.785 16.1178 19.887 12.9498 19.907L5.25676 19.91Z" fill="#212121"/>
    </g>
</svg>
