<svg width="24" height="24" viewBox="0 0 20 19" fill="none" xmlns="http://www.w3.org/2000/svg">
    <path fill-rule="evenodd" clip-rule="evenodd" d="M10.001 13.5411C9.58698 13.5411 9.25098 13.2051 9.25098 12.7911V0.750122C9.25098 0.336122 9.58698 0.00012207 10.001 0.00012207C10.415 0.00012207 10.751 0.336122 10.751 0.750122V12.7911C10.751 13.2051 10.415 13.5411 10.001 13.5411Z" fill="#212121"/>
    <path fill-rule="evenodd" clip-rule="evenodd" d="M10.0011 13.5412C9.80207 13.5412 9.61007 13.4622 9.47007 13.3202L6.55407 10.3932C6.26207 10.0992 6.26307 9.62415 6.55607 9.33215C6.85007 9.04015 7.32407 9.04015 7.61607 9.33415L10.0011 11.7292L12.3861 9.33415C12.6781 9.04015 13.1521 9.04015 13.4461 9.33215C13.7391 9.62415 13.7401 10.0992 13.4481 10.3932L10.5321 13.3202C10.3921 13.4622 10.2001 13.5412 10.0011 13.5412Z" fill="#212121"/>
    <mask id="mask0_430_8619" style="mask-type:luminance" maskUnits="userSpaceOnUse" x="0" y="4" width="20" height="15">
        <path fill-rule="evenodd" clip-rule="evenodd" d="M0.000244141 4.73267H20V18.4767H0.000244141V4.73267Z" fill="white"/>
    </mask>
    <g mask="url(#mask0_430_8619)">
        <path fill-rule="evenodd" clip-rule="evenodd" d="M15.5752 18.4767H4.43524C1.99024 18.4767 0.000244141 16.4877 0.000244141 14.0417V9.15667C0.000244141 6.71667 1.98524 4.73267 4.42624 4.73267H5.36724C5.78124 4.73267 6.11724 5.06867 6.11724 5.48267C6.11724 5.89667 5.78124 6.23267 5.36724 6.23267H4.42624C2.81224 6.23267 1.50024 7.54367 1.50024 9.15667V14.0417C1.50024 15.6607 2.81624 16.9767 4.43524 16.9767H15.5752C17.1872 16.9767 18.5002 15.6637 18.5002 14.0517V9.16767C18.5002 7.54867 17.1832 6.23267 15.5662 6.23267H14.6342C14.2202 6.23267 13.8842 5.89667 13.8842 5.48267C13.8842 5.06867 14.2202 4.73267 14.6342 4.73267H15.5662C18.0112 4.73267 20.0002 6.72267 20.0002 9.16767V14.0517C20.0002 16.4917 18.0142 18.4767 15.5752 18.4767Z" fill="#212121"/>
    </g>
</svg>
