<svg width="24" height="24" viewBox="0 0 20 19" fill="none" xmlns="http://www.w3.org/2000/svg">
    <path fill-rule="evenodd" clip-rule="evenodd" d="M18.7508 18.9397H11.4978C11.0838 18.9397 10.7478 18.6037 10.7478 18.1897C10.7478 17.7757 11.0838 17.4397 11.4978 17.4397H18.7508C19.1648 17.4397 19.5008 17.7757 19.5008 18.1897C19.5008 18.6037 19.1648 18.9397 18.7508 18.9397Z" fill="#212121"/>
    <mask id="mask0_430_8514" style="mask-type:luminance" maskUnits="userSpaceOnUse" x="0" y="0" width="18" height="19">
        <path fill-rule="evenodd" clip-rule="evenodd" d="M0.000244141 0.00012207H17.1808V18.9397H0.000244141V0.00012207Z" fill="white"/>
    </mask>
    <g mask="url(#mask0_430_8514)">
        <path fill-rule="evenodd" clip-rule="evenodd" d="M11.1105 2.01676L1.69552 13.7918C1.52452 14.0058 1.46152 14.2818 1.52452 14.5468L2.20552 17.4318L5.24452 17.3938C5.53352 17.3908 5.80052 17.2618 5.97752 17.0418C9.19452 13.0168 15.3275 5.34276 15.5015 5.11776C15.6655 4.85176 15.7295 4.47576 15.6435 4.11376C15.5555 3.74276 15.3245 3.42776 14.9915 3.22676C14.9205 3.17776 13.2355 1.86976 13.1835 1.82876C12.5495 1.32076 11.6245 1.40876 11.1105 2.01676ZM1.61352 18.9398C1.26652 18.9398 0.964518 18.7018 0.883518 18.3628L0.0645184 14.8918C-0.104482 14.1728 0.0635184 13.4308 0.524518 12.8548L9.94452 1.07276C9.94852 1.06876 9.95152 1.06376 9.95552 1.05976C10.9885 -0.175235 12.8565 -0.357235 14.1165 0.653765C14.1665 0.692765 15.8395 1.99276 15.8395 1.99276C16.4475 2.35476 16.9225 3.00176 17.1025 3.76776C17.2815 4.52576 17.1515 5.30777 16.7345 5.96876C16.7035 6.01776 16.6765 6.05976 7.14852 17.9798C6.68952 18.5518 6.00152 18.8848 5.26252 18.8938L1.62352 18.9398H1.61352Z" fill="#212121"/>
    </g>
    <path fill-rule="evenodd" clip-rule="evenodd" d="M14.2234 8.68474C14.0634 8.68474 13.9034 8.63375 13.7664 8.52975L8.31442 4.34175C7.98642 4.08975 7.92442 3.61975 8.17642 3.28975C8.42942 2.96175 8.89942 2.90075 9.22842 3.15275L14.6814 7.33975C15.0094 7.59174 15.0714 8.06275 14.8184 8.39175C14.6714 8.58375 14.4484 8.68474 14.2234 8.68474Z" fill="#212121"/>
</svg>
