<svg width="24" height="24" viewBox="0 0 20 20" fill="none" xmlns="http://www.w3.org/2000/svg">
    <mask id="mask0_430_8456" style="mask-type:luminance" maskUnits="userSpaceOnUse" x="0" y="0" width="20" height="20">
        <path fill-rule="evenodd" clip-rule="evenodd" d="M0.000488281 0H19.5001V19.5007H0.000488281V0Z" fill="white"/>
    </mask>
    <g mask="url(#mask0_430_8456)">
        <path fill-rule="evenodd" clip-rule="evenodd" d="M6.77349 9.59876C6.79149 9.61476 6.80849 9.62976 6.82549 9.64776C7.90449 10.7538 8.49949 12.2188 8.49949 13.7738V17.7578L10.7355 16.5398C10.9115 16.4438 11.0205 16.2558 11.0205 16.0488V13.7618C11.0205 12.2128 11.6095 10.7528 12.6785 9.65276L17.5155 4.50776C17.8285 4.17476 18.0005 3.73776 18.0005 3.27676V2.34076C18.0005 1.87676 17.6345 1.49976 17.1865 1.49976H2.31549C1.86649 1.49976 1.50049 1.87676 1.50049 2.34076V3.27676C1.50049 3.73776 1.67249 4.17476 1.98549 4.50676L6.77349 9.59876ZM8.14649 19.5008C7.94449 19.5008 7.74449 19.4468 7.56249 19.3388C7.21049 19.1288 6.99949 18.7578 6.99949 18.3458V13.7738C6.99949 12.6388 6.57649 11.5698 5.80549 10.7508C5.78249 10.7318 5.75949 10.7108 5.73949 10.6888L0.893488 5.53576C0.317488 4.92376 0.000488281 4.12076 0.000488281 3.27676V2.34076C0.000488281 1.04976 1.03949 -0.000244141 2.31549 -0.000244141H17.1865C18.4615 -0.000244141 19.5005 1.04976 19.5005 2.34076V3.27676C19.5005 4.11976 19.1835 4.92176 18.6095 5.53476L13.7625 10.6888C12.9595 11.5168 12.5205 12.6058 12.5205 13.7618V16.0488C12.5205 16.8048 12.1115 17.4968 11.4535 17.8568L8.69249 19.3608C8.52049 19.4538 8.33349 19.5008 8.14649 19.5008Z" fill="#212121"/>
    </g>
</svg>
