<svg width="24" height="24" viewBox="0 0 18 16" fill="none" xmlns="http://www.w3.org/2000/svg">
    <path fill-rule="evenodd" clip-rule="evenodd" d="M7.08005 13.5928H0.779053C0.365053 13.5928 0.0290527 13.2568 0.0290527 12.8428C0.0290527 12.4288 0.365053 12.0928 0.779053 12.0928H7.08005C7.49405 12.0928 7.83005 12.4288 7.83005 12.8428C7.83005 13.2568 7.49405 13.5928 7.08005 13.5928Z" fill="#212121"/>
    <path fill-rule="evenodd" clip-rule="evenodd" d="M16.1909 3.90039H9.89087C9.47687 3.90039 9.14087 3.56439 9.14087 3.15039C9.14087 2.73639 9.47687 2.40039 9.89087 2.40039H16.1909C16.6049 2.40039 16.9409 2.73639 16.9409 3.15039C16.9409 3.56439 16.6049 3.90039 16.1909 3.90039Z" fill="#212121"/>
    <mask id="mask0_430_8314" style="mask-type:luminance" maskUnits="userSpaceOnUse" x="0" y="0" width="7" height="7">
        <path fill-rule="evenodd" clip-rule="evenodd" d="M0 0.000366211H6.2258V6.19197H0V0.000366211Z" fill="white"/>
    </mask>
    <g mask="url(#mask0_430_8314)">
        <path fill-rule="evenodd" clip-rule="evenodd" d="M3.11276 1.5C2.22376 1.5 1.49976 2.216 1.49976 3.097C1.49976 3.977 2.22376 4.692 3.11276 4.692C4.00276 4.692 4.72576 3.977 4.72576 3.097C4.72576 2.216 4.00276 1.5 3.11276 1.5ZM3.11276 6.192C1.39676 6.192 -0.000244141 4.804 -0.000244141 3.097C-0.000244141 1.39 1.39676 0 3.11276 0C4.82976 0 6.22576 1.39 6.22576 3.097C6.22576 4.804 4.82976 6.192 3.11276 6.192Z" fill="#212121"/>
    </g>
    <path fill-rule="evenodd" clip-rule="evenodd" d="M14.3877 11.208C13.4977 11.208 12.7737 11.924 12.7737 12.804C12.7737 13.685 13.4977 14.4 14.3877 14.4C15.2767 14.4 15.9997 13.685 15.9997 12.804C15.9997 11.924 15.2767 11.208 14.3877 11.208ZM14.3877 15.9C12.6707 15.9 11.2737 14.511 11.2737 12.804C11.2737 11.097 12.6707 9.70801 14.3877 9.70801C16.1037 9.70801 17.4997 11.097 17.4997 12.804C17.4997 14.511 16.1037 15.9 14.3877 15.9Z" fill="#212121"/>
</svg>
