<svg width="24" height="24" viewBox="0 0 21 21" fill="none" xmlns="http://www.w3.org/2000/svg">
    <mask id="mask0_430_8202" style="mask-type:luminance" maskUnits="userSpaceOnUse" x="0" y="0" width="21" height="21">
        <path fill-rule="evenodd" clip-rule="evenodd" d="M0 0H20.6966V20.6689H0V0Z" fill="white"/>
    </mask>
    <g mask="url(#mask0_430_8202)">
        <path fill-rule="evenodd" clip-rule="evenodd" d="M5.64251 1.5C2.73851 1.5 1.49951 2.976 1.49951 6.433V14.232C1.49951 17.416 3.25751 19.169 6.44951 19.169H14.2315C17.4155 19.169 19.1685 17.416 19.1685 14.232V14.229L19.1965 9.264C19.1965 5.865 18.0305 4.54 15.0355 4.54H12.2055C11.2565 4.539 10.3505 4.086 9.78051 3.328L8.86751 2.114C8.58051 1.729 8.12151 1.501 7.64151 1.5H5.64251ZM14.2315 20.669H6.44951C2.47151 20.669 -0.000488281 18.202 -0.000488281 14.232V6.433C-0.000488281 2.164 1.89851 0 5.64251 0H7.64251C8.59351 0.001 9.49951 0.455 10.0675 1.214L10.9785 2.426C11.2675 2.81 11.7265 3.039 12.2065 3.04H15.0355C18.8975 3.04 20.6965 5.019 20.6965 9.268L20.6685 14.235C20.6675 18.203 18.2015 20.669 14.2315 20.669Z" fill="#212121"/>
    </g>
    <path fill-rule="evenodd" clip-rule="evenodd" d="M14.7157 13.7128H5.98071C5.56671 13.7128 5.23071 13.3768 5.23071 12.9628C5.23071 12.5488 5.56671 12.2128 5.98071 12.2128H14.7157C15.1297 12.2128 15.4657 12.5488 15.4657 12.9628C15.4657 13.3768 15.1297 13.7128 14.7157 13.7128Z" fill="#212121"/>
</svg>
