<svg width="24" height="24" viewBox="0 0 22 22" fill="none" xmlns="http://www.w3.org/2000/svg">
    <path fill-rule="evenodd" clip-rule="evenodd" d="M7.59814 15.5596C7.18414 15.5596 6.84814 15.2236 6.84814 14.8096V11.0646C6.84814 10.6506 7.18414 10.3146 7.59814 10.3146C8.01214 10.3146 8.34814 10.6506 8.34814 11.0646V14.8096C8.34814 15.2236 8.01214 15.5596 7.59814 15.5596Z" fill="#212121"/>
    <path fill-rule="evenodd" clip-rule="evenodd" d="M9.50874 13.6865H5.68774C5.27374 13.6865 4.93774 13.3505 4.93774 12.9365C4.93774 12.5225 5.27374 12.1865 5.68774 12.1865H9.50874C9.92274 12.1865 10.2587 12.5225 10.2587 12.9365C10.2587 13.3505 9.92274 13.6865 9.50874 13.6865Z" fill="#212121"/>
    <path fill-rule="evenodd" clip-rule="evenodd" d="M14.1163 11.9287H14.0093C13.5953 11.9287 13.2593 11.5927 13.2593 11.1787C13.2593 10.7647 13.5953 10.4287 14.0093 10.4287H14.1163C14.5303 10.4287 14.8663 10.7647 14.8663 11.1787C14.8663 11.5927 14.5303 11.9287 14.1163 11.9287Z" fill="#212121"/>
    <path fill-rule="evenodd" clip-rule="evenodd" d="M15.9298 15.5029H15.8228C15.4088 15.5029 15.0728 15.1669 15.0728 14.7529C15.0728 14.3389 15.4088 14.0029 15.8228 14.0029H15.9298C16.3438 14.0029 16.6798 14.3389 16.6798 14.7529C16.6798 15.1669 16.3438 15.5029 15.9298 15.5029Z" fill="#212121"/>
    <mask id="mask0_430_8805" style="mask-type:luminance" maskUnits="userSpaceOnUse" x="6" y="0" width="7" height="6">
        <path fill-rule="evenodd" clip-rule="evenodd" d="M6.07178 0H12.1118V5.5879H6.07178V0Z" fill="white"/>
    </mask>
    <g mask="url(#mask0_430_8805)">
        <path fill-rule="evenodd" clip-rule="evenodd" d="M11.3618 5.58788C10.9478 5.58788 10.6118 5.25188 10.6118 4.83788V4.16288C10.6088 3.43888 9.99478 2.84388 9.24378 2.84088H8.18978C7.02278 2.84088 6.07178 1.90288 6.07178 0.749878C6.07178 0.335878 6.40778 -0.00012207 6.82178 -0.00012207C7.23678 -0.00012207 7.57178 0.335878 7.57178 0.749878C7.57178 1.07588 7.84878 1.34088 8.18978 1.34088H9.24678C10.8198 1.34588 12.1048 2.60988 12.1118 4.15888V4.83788C12.1118 5.25188 11.7758 5.58788 11.3618 5.58788Z" fill="#212121"/>
    </g>
    <mask id="mask1_430_8805" style="mask-type:luminance" maskUnits="userSpaceOnUse" x="0" y="4" width="22" height="18">
        <path fill-rule="evenodd" clip-rule="evenodd" d="M0.000244141 4.37329H21.5V21.5H0.000244141V4.37329Z" fill="white"/>
    </mask>
    <g mask="url(#mask1_430_8805)">
        <path fill-rule="evenodd" clip-rule="evenodd" d="M10.7012 5.87304C9.22524 5.87304 7.76724 5.88604 6.33524 5.91004C3.52824 5.91004 1.50024 7.88804 1.50024 10.612V15.262C1.50024 17.985 3.52824 19.963 6.32324 19.963C9.27024 20.012 12.2412 20.012 15.1652 19.963H15.1782C17.9722 19.963 20.0002 17.985 20.0002 15.262V10.612C20.0002 7.88804 17.9722 5.91004 15.1782 5.91004C13.6742 5.88604 12.1792 5.87304 10.7012 5.87304ZM10.7542 21.5C9.27124 21.5 7.78624 21.487 6.31024 21.463C2.65924 21.463 0.000244141 18.854 0.000244141 15.262V10.612C0.000244141 7.01904 2.65924 4.41004 6.32324 4.41004C9.19224 4.36104 12.1802 4.36104 15.1902 4.41004C18.8412 4.41004 21.5002 7.01904 21.5002 10.612V15.262C21.5002 18.852 18.8452 21.46 15.1842 21.463C13.7162 21.487 12.2362 21.5 10.7542 21.5Z" fill="#212121"/>
    </g>
</svg>
