<svg width="24" height="24" viewBox="0 0 21 22" fill="none" xmlns="http://www.w3.org/2000/svg">
    <path fill-rule="evenodd" clip-rule="evenodd" d="M6.98249 5.3035C6.95049 5.3035 6.91849 5.3075 6.88649 5.3155C3.91649 6.0465 1.50049 9.2645 1.50049 12.4885C1.50049 16.5445 4.80049 19.8445 8.85749 19.8445C12.5145 19.8445 15.5705 17.2395 16.1245 13.6495C16.1285 13.6195 16.1425 13.5325 16.0605 13.4355C15.9825 13.3445 15.8585 13.2905 15.7285 13.2905C14.3175 13.2905 13.2405 13.3225 12.3995 13.3465C10.3635 13.4075 9.52149 13.4305 8.68949 12.8135C7.43549 11.8845 7.32949 10.2885 7.32949 5.5945C7.32949 5.5105 7.29349 5.4405 7.22149 5.3845C7.15449 5.3315 7.06949 5.3035 6.98249 5.3035ZM8.85749 21.3445C3.97349 21.3445 0.000488281 17.3715 0.000488281 12.4885C0.000488281 8.6165 2.92849 4.7445 6.52749 3.8585C7.08949 3.7215 7.69349 3.8495 8.14749 4.2035C8.58049 4.5435 8.82949 5.0505 8.82949 5.5945C8.82949 9.9795 8.97749 11.1595 9.58249 11.6085C9.97949 11.9015 10.5235 11.8985 12.3565 11.8475C13.2085 11.8225 14.2995 11.7905 15.7285 11.7905C16.2985 11.7905 16.8355 12.0345 17.1995 12.4595C17.5375 12.8545 17.6855 13.3705 17.6075 13.8785C16.9395 18.2035 13.2595 21.3445 8.85749 21.3445Z" fill="#212121"/>
    <mask id="mask0_430_8220" style="mask-type:luminance" maskUnits="userSpaceOnUse" x="10" y="0" width="11" height="11">
        <path fill-rule="evenodd" clip-rule="evenodd" d="M10.4741 0.000488281H20.8931V10.2898H10.4741V0.000488281Z" fill="white"/>
    </mask>
    <g mask="url(#mask0_430_8220)">
        <path fill-rule="evenodd" clip-rule="evenodd" d="M12.0109 1.50174C11.9009 4.02074 12.0639 7.27474 12.1399 8.56374C12.1439 8.64074 12.1999 8.69674 12.2759 8.70074C13.3039 8.75974 16.8459 8.92374 19.3929 8.54874C19.3989 7.14474 18.4379 5.24074 16.9909 3.79474C15.5069 2.31274 13.7509 1.50174 12.0329 1.50174H12.0109ZM15.3149 10.2897C14.0049 10.2897 12.8519 10.2367 12.1889 10.1987C11.3549 10.1497 10.6909 9.48474 10.6429 8.65074C10.5649 7.32874 10.3959 3.96974 10.5159 1.37174C10.5489 0.616742 11.1589 0.0157416 11.9049 0.00274156C14.0419 -0.0592584 16.2469 0.932742 18.0509 2.73374C19.8089 4.49074 20.9249 6.79974 20.8929 8.61674C20.8809 9.32574 20.3659 9.91774 19.6699 10.0227C18.3119 10.2277 16.7219 10.2897 15.3149 10.2897Z" fill="#212121"/>
    </g>
</svg>
