<svg width="24" height="24" viewBox="0 0 20 18" fill="none" xmlns="http://www.w3.org/2000/svg">
    <path fill-rule="evenodd" clip-rule="evenodd" d="M7.76069 11.6172C7.56869 11.6172 7.37669 11.5442 7.23069 11.3972C6.49269 10.6602 6.08569 9.68019 6.08569 8.63819C6.08569 6.47819 7.84169 4.72119 9.99969 4.72119C11.0377 4.72119 12.0457 5.14019 12.7647 5.87119C13.0547 6.16719 13.0517 6.64119 12.7557 6.93119C12.4607 7.22319 11.9867 7.21819 11.6957 6.92419C11.2567 6.47719 10.6387 6.22119 9.99969 6.22119C8.66869 6.22119 7.58569 7.30519 7.58569 8.63819C7.58569 9.27919 7.83669 9.88319 8.29069 10.3372C8.58369 10.6302 8.58369 11.1042 8.29169 11.3972C8.14469 11.5442 7.95269 11.6172 7.76069 11.6172Z" fill="#212121"/>
    <path fill-rule="evenodd" clip-rule="evenodd" d="M10.5673 12.4912C10.2123 12.4912 9.89632 12.2372 9.83032 11.8752C9.75632 11.4682 10.0263 11.0772 10.4343 11.0032C11.4143 10.8252 12.1903 10.0472 12.3663 9.06618C12.4403 8.65918 12.8303 8.39118 13.2373 8.46118C13.6453 8.53418 13.9163 8.92418 13.8433 9.33218C13.5563 10.9252 12.2943 12.1892 10.7023 12.4792C10.6573 12.4872 10.6113 12.4912 10.5673 12.4912Z" fill="#212121"/>
    <mask id="mask0_430_8723" style="mask-type:luminance" maskUnits="userSpaceOnUse" x="0" y="0" width="17" height="15">
        <path fill-rule="evenodd" clip-rule="evenodd" d="M0 0.62439H16.0862V14.7225H0V0.62439Z" fill="white"/>
    </mask>
    <g mask="url(#mask0_430_8723)">
        <path fill-rule="evenodd" clip-rule="evenodd" d="M4.6545 14.7225C4.4925 14.7225 4.3295 14.6695 4.1915 14.5625C2.5005 13.2345 1.0715 11.2875 0.0615 8.93352C-0.0205 8.74352 -0.0205 8.52952 0.0615 8.34052C1.0825 5.97652 2.5205 4.01952 4.2205 2.68252C7.6865 -0.0604832 12.3005 -0.0694833 15.8015 2.70252C16.1265 2.95952 16.1815 3.43152 15.9245 3.75652C15.6665 4.07952 15.1965 4.13652 14.8705 3.87852C11.9045 1.53052 8.0835 1.53852 5.1495 3.86052C3.7135 4.99052 2.4805 6.63652 1.5705 8.63852C2.4715 10.6285 3.6935 12.2645 5.1185 13.3825C5.4445 13.6385 5.5005 14.1105 5.2445 14.4355C5.0965 14.6235 4.8765 14.7225 4.6545 14.7225Z" fill="#212121"/>
    </g>
    <mask id="mask1_430_8723" style="mask-type:luminance" maskUnits="userSpaceOnUse" x="6" y="4" width="14" height="13">
        <path fill-rule="evenodd" clip-rule="evenodd" d="M6.71753 4.74121H20.0001V16.6894H6.71753V4.74121Z" fill="white"/>
    </mask>
    <g mask="url(#mask1_430_8723)">
        <path fill-rule="evenodd" clip-rule="evenodd" d="M10.0002 16.6894C9.06316 16.6894 8.13116 16.5374 7.23116 16.2384C6.83816 16.1074 6.62516 15.6824 6.75616 15.2894C6.88716 14.8954 7.31016 14.6864 7.70516 14.8144C8.45216 15.0634 9.22416 15.1894 10.0002 15.1894C13.4282 15.1894 16.5612 12.7474 18.4302 8.63642C17.9742 7.63742 17.4432 6.73242 16.8492 5.94242C16.6002 5.61142 16.6662 5.14042 16.9972 4.89142C17.3272 4.64242 17.7982 4.71042 18.0472 5.04042C18.7712 6.00142 19.4072 7.11242 19.9382 8.33842C20.0212 8.52842 20.0212 8.74442 19.9382 8.93342C17.8422 13.7904 14.1272 16.6894 10.0002 16.6894Z" fill="#212121"/>
    </g>
    <mask id="mask2_430_8723" style="mask-type:luminance" maskUnits="userSpaceOnUse" x="1" y="0" width="18" height="18">
        <path fill-rule="evenodd" clip-rule="evenodd" d="M1.36353 0.000366211H18.637V17.2734H1.36353V0.000366211Z" fill="white"/>
    </mask>
    <g mask="url(#mask2_430_8723)">
        <path fill-rule="evenodd" clip-rule="evenodd" d="M2.11328 17.2734C1.92128 17.2734 1.72928 17.2004 1.58328 17.0534C1.29028 16.7604 1.29028 16.2864 1.58328 15.9934L17.3573 0.219384C17.6503 -0.0736162 18.1243 -0.0736162 18.4173 0.219384C18.7103 0.512384 18.7103 0.987384 18.4173 1.28038L2.64328 17.0534C2.49728 17.2004 2.30528 17.2734 2.11328 17.2734Z" fill="#212121"/>
    </g>
</svg>
