<svg width="24" height="24" viewBox="0 0 20 20" fill="none" xmlns="http://www.w3.org/2000/svg">
    <mask id="mask0_430_8503" style="mask-type:luminance" maskUnits="userSpaceOnUse" x="0" y="0" width="20" height="20">
        <path fill-rule="evenodd" clip-rule="evenodd" d="M0.000488281 0.00012207H19.9535V19.954H0.000488281V0.00012207Z" fill="white"/>
    </mask>
    <g mask="url(#mask0_430_8503)">
        <path fill-rule="evenodd" clip-rule="evenodd" d="M5.65149 1.5C3.13049 1.5 1.50049 3.229 1.50049 5.904V14.05C1.50049 16.726 3.13049 18.454 5.65149 18.454H14.2975C16.8225 18.454 18.4535 16.726 18.4535 14.05V5.904C18.4555 4.541 18.0395 3.403 17.2515 2.614C16.5235 1.885 15.5045 1.5 14.3025 1.5H5.65149ZM14.2975 19.954H5.65149C2.27149 19.954 0.000488281 17.581 0.000488281 14.05V5.904C0.000488281 2.373 2.27149 0 5.65149 0H14.3025C15.9105 0 17.2975 0.537 18.3125 1.554C19.3735 2.616 19.9555 4.161 19.9535 5.905V14.05C19.9535 17.581 17.6805 19.954 14.2975 19.954Z" fill="#212121"/>
    </g>
    <path fill-rule="evenodd" clip-rule="evenodd" d="M6.85647 5.68958C6.25247 5.68958 5.76147 6.18058 5.76147 6.78558C5.76147 7.38958 6.25247 7.88058 6.85747 7.88058C7.46147 7.88058 7.95347 7.38958 7.95347 6.78658C7.95247 6.18158 7.46047 5.69058 6.85647 5.68958ZM6.85747 9.38058C5.42547 9.38058 4.26147 8.21658 4.26147 6.78558C4.26147 5.35358 5.42547 4.18958 6.85747 4.18958C8.28847 4.19058 9.45247 5.35458 9.45347 6.78458V6.78558C9.45347 8.21658 8.28947 9.38058 6.85747 9.38058Z" fill="#212121"/>
    <path fill-rule="evenodd" clip-rule="evenodd" d="M1.74918 18.1113C1.62518 18.1113 1.49918 18.0803 1.38318 18.0153C1.02118 17.8123 0.894178 17.3553 1.09618 16.9943C1.15618 16.8863 2.59118 14.3493 4.17018 13.0493C5.42218 12.0193 6.77018 12.5853 7.85618 13.0423C8.49518 13.3113 9.09918 13.5653 9.67918 13.5653C10.2112 13.5653 10.8782 12.6253 11.4682 11.7963C12.2872 10.6403 13.2172 9.33228 14.5792 9.33228C16.7492 9.33228 18.6222 11.2683 19.6292 12.3083L19.7452 12.4283C20.0332 12.7253 20.0262 13.2003 19.7292 13.4893C19.4342 13.7783 18.9592 13.7713 18.6692 13.4733L18.5512 13.3513C17.6992 12.4703 16.1132 10.8323 14.5792 10.8323C13.9912 10.8323 13.3012 11.8053 12.6902 12.6643C11.8522 13.8443 10.9852 15.0653 9.67918 15.0653C8.79618 15.0653 7.98718 14.7253 7.27418 14.4243C6.14018 13.9463 5.62618 13.7933 5.12318 14.2073C3.75918 15.3313 2.41718 17.7053 2.40418 17.7283C2.26718 17.9733 2.01218 18.1113 1.74918 18.1113Z" fill="#212121"/>
</svg>
