<svg width="24" height="24" viewBox="0 0 20 20" fill="none" xmlns="http://www.w3.org/2000/svg">
    <mask id="mask0_430_8358" style="mask-type:luminance" maskUnits="userSpaceOnUse" x="0" y="0" width="20" height="20">
        <path fill-rule="evenodd" clip-rule="evenodd" d="M0.000488281 0.000244141H19.9601V19.95H0.000488281V0.000244141Z" fill="white"/>
    </mask>
    <g mask="url(#mask0_430_8358)">
        <path fill-rule="evenodd" clip-rule="evenodd" d="M5.65049 1.5C3.12949 1.5 1.50049 3.227 1.50049 5.899V14.051C1.50049 16.724 3.12949 18.45 5.65049 18.45H14.3005C16.8275 18.45 18.4605 16.724 18.4605 14.051V5.899C18.4605 3.227 16.8275 1.5 14.3005 1.5H5.65049ZM14.3005 19.95H5.65049C2.27049 19.95 0.000488281 17.579 0.000488281 14.051V5.899C0.000488281 2.371 2.27049 0 5.65049 0H14.3005C17.6855 0 19.9605 2.371 19.9605 5.899V14.051C19.9605 17.579 17.6855 19.95 14.3005 19.95Z" fill="#212121"/>
    </g>
    <path fill-rule="evenodd" clip-rule="evenodd" d="M3.2815 15.1805C3.0955 15.1805 2.9105 15.1125 2.7655 14.9745C2.4645 14.6905 2.4525 14.2145 2.7375 13.9155L4.2655 12.3025C5.0745 11.4435 6.4395 11.4015 7.3025 12.2115L8.2605 13.1835C8.5275 13.4535 8.9615 13.4585 9.2295 13.1945C9.3305 13.0755 11.5085 10.4305 11.5085 10.4305C11.9225 9.9285 12.5065 9.6185 13.1555 9.5545C13.8055 9.4975 14.4365 9.6865 14.9395 10.0995C14.9825 10.1345 15.0215 10.1685 17.2175 12.4235C17.5065 12.7195 17.5015 13.1945 17.2045 13.4835C16.9085 13.7745 16.4325 13.7655 16.1435 13.4695C16.1435 13.4695 14.0945 11.3665 13.9485 11.2245C13.7935 11.0975 13.5445 11.0235 13.2995 11.0475C13.0505 11.0725 12.8265 11.1915 12.6675 11.3845C10.3435 14.2035 10.3155 14.2305 10.2775 14.2675C9.4195 15.1095 8.0345 15.0955 7.1915 14.2355C7.1915 14.2355 6.2615 13.2915 6.2455 13.2725C6.0145 13.0585 5.6025 13.0725 5.3555 13.3335L3.8255 14.9465C3.6775 15.1025 3.4795 15.1805 3.2815 15.1805Z" fill="#212121"/>
    <path fill-rule="evenodd" clip-rule="evenodd" d="M6.55769 6.12891C6.00469 6.12891 5.55469 6.57891 5.55469 7.13291C5.55469 7.68691 6.00469 8.13791 6.55869 8.13791C7.11269 8.13791 7.56369 7.68691 7.56369 7.13291C7.56369 6.57991 7.11269 6.12991 6.55769 6.12891ZM6.55869 9.63791C5.17769 9.63791 4.05469 8.51391 4.05469 7.13291C4.05469 5.75191 5.17769 4.62891 6.55869 4.62891C7.94069 4.62991 9.06369 5.75391 9.06369 7.13291C9.06369 8.51391 7.93969 9.63791 6.55869 9.63791Z" fill="#212121"/>
</svg>
