<svg width="24" height="24" viewBox="0 0 19 20" fill="none" xmlns="http://www.w3.org/2000/svg">
    <path fill-rule="evenodd" clip-rule="evenodd" d="M12.791 10.75H0.75C0.336 10.75 0 10.414 0 10C0 9.586 0.336 9.25 0.75 9.25H12.791C13.205 9.25 13.541 9.586 13.541 10C13.541 10.414 13.205 10.75 12.791 10.75Z" fill="#212121"/>
    <path fill-rule="evenodd" clip-rule="evenodd" d="M9.86328 13.665C9.67128 13.665 9.47828 13.592 9.33228 13.444C9.03928 13.15 9.04128 12.676 9.33428 12.384L11.7283 9.99998L9.33428 7.61498C9.04128 7.32298 9.03928 6.84898 9.33228 6.55498C9.62528 6.26098 10.0993 6.26098 10.3923 6.55298L13.3213 9.46898C13.4633 9.60898 13.5423 9.80098 13.5423 9.99998C13.5423 10.199 13.4633 10.391 13.3213 10.531L10.3923 13.446C10.2463 13.592 10.0543 13.665 9.86328 13.665Z" fill="#212121"/>
    <path fill-rule="evenodd" clip-rule="evenodd" d="M14.0419 20H9.15691C6.71791 20 4.73291 18.015 4.73291 15.575V14.633C4.73291 14.219 5.06891 13.883 5.48291 13.883C5.89691 13.883 6.23291 14.219 6.23291 14.633V15.575C6.23291 17.187 7.54491 18.5 9.15691 18.5H14.0419C15.6609 18.5 16.9779 17.184 16.9779 15.564V4.425C16.9779 2.813 15.6649 1.5 14.0529 1.5H9.16791C7.54991 1.5 6.23291 2.816 6.23291 4.434V5.367C6.23291 5.781 5.89691 6.117 5.48291 6.117C5.06891 6.117 4.73291 5.781 4.73291 5.367V4.434C4.73291 1.989 6.72291 0 9.16791 0H14.0529C16.4919 0 18.4779 1.985 18.4779 4.425V15.564C18.4779 18.01 16.4869 20 14.0419 20Z" fill="#212121"/>
</svg>
