<svg width="24" height="24" viewBox="0 0 20 20" fill="none" xmlns="http://www.w3.org/2000/svg">
    <path fill-rule="evenodd" clip-rule="evenodd" d="M5.665 1.5C3.135 1.5 1.5 3.233 1.5 5.916V14.084C1.5 16.767 3.135 18.5 5.665 18.5H14.333C16.864 18.5 18.5 16.767 18.5 14.084V5.916C18.5 3.233 16.864 1.5 14.334 1.5H5.665ZM14.333 20H5.665C2.276 20 0 17.622 0 14.084V5.916C0 2.378 2.276 0 5.665 0H14.334C17.723 0 20 2.378 20 5.916V14.084C20 17.622 17.723 20 14.333 20Z" fill="#212121"/>
    <path fill-rule="evenodd" clip-rule="evenodd" d="M13.9481 11.0137C13.3951 11.0137 12.9431 10.5667 12.9431 10.0137C12.9431 9.46067 13.3861 9.01367 13.9381 9.01367H13.9481C14.5011 9.01367 14.9481 9.46067 14.9481 10.0137C14.9481 10.5667 14.5011 11.0137 13.9481 11.0137Z" fill="#212121"/>
    <path fill-rule="evenodd" clip-rule="evenodd" d="M9.93857 11.0137C9.38557 11.0137 8.93457 10.5667 8.93457 10.0137C8.93457 9.46067 9.37657 9.01367 9.92957 9.01367H9.93857C10.4916 9.01367 10.9386 9.46067 10.9386 10.0137C10.9386 10.5667 10.4916 11.0137 9.93857 11.0137Z" fill="#212121"/>
    <path fill-rule="evenodd" clip-rule="evenodd" d="M5.9298 11.0137C5.3768 11.0137 4.9248 10.5667 4.9248 10.0137C4.9248 9.46067 5.3678 9.01367 5.9208 9.01367H5.9298C6.4828 9.01367 6.9298 9.46067 6.9298 10.0137C6.9298 10.5667 6.4828 11.0137 5.9298 11.0137Z" fill="#212121"/>
</svg>
