<svg width="24" height="24" viewBox="0 0 20 20" fill="none" xmlns="http://www.w3.org/2000/svg">
    <path fill-rule="evenodd" clip-rule="evenodd" d="M10 1.5C5.313 1.5 1.5 5.313 1.5 10C1.5 14.687 5.313 18.5 10 18.5C14.687 18.5 18.5 14.687 18.5 10C18.5 5.313 14.687 1.5 10 1.5ZM10 20C4.486 20 0 15.514 0 10C0 4.486 4.486 0 10 0C15.514 0 20 4.486 20 10C20 15.514 15.514 20 10 20Z" fill="#212121"/>
    <path fill-rule="evenodd" clip-rule="evenodd" d="M13.9481 11.0137C13.3951 11.0137 12.9431 10.5667 12.9431 10.0137C12.9431 9.46067 13.3861 9.01367 13.9381 9.01367H13.9481C14.5011 9.01367 14.9481 9.46067 14.9481 10.0137C14.9481 10.5667 14.5011 11.0137 13.9481 11.0137Z" fill="#212121"/>
    <path fill-rule="evenodd" clip-rule="evenodd" d="M9.93857 11.0137C9.38557 11.0137 8.93457 10.5667 8.93457 10.0137C8.93457 9.46067 9.37657 9.01367 9.92957 9.01367H9.93857C10.4916 9.01367 10.9386 9.46067 10.9386 10.0137C10.9386 10.5667 10.4916 11.0137 9.93857 11.0137Z" fill="#212121"/>
    <path fill-rule="evenodd" clip-rule="evenodd" d="M5.9298 11.0137C5.3768 11.0137 4.9248 10.5667 4.9248 10.0137C4.9248 9.46067 5.3678 9.01367 5.9208 9.01367H5.9298C6.4828 9.01367 6.9298 9.46067 6.9298 10.0137C6.9298 10.5667 6.4828 11.0137 5.9298 11.0137Z" fill="#212121"/>
</svg>
