<svg width="24" height="24" viewBox="0 0 18 20" fill="none" xmlns="http://www.w3.org/2000/svg">
    <path fill-rule="evenodd" clip-rule="evenodd" d="M4.5719 1.51172C2.9149 1.51172 1.5399 2.85372 1.5009 4.50872V15.3397C1.4719 16.9867 2.7789 18.3387 4.4129 18.3667L4.5609 18.3657H12.5729C14.2149 18.3477 15.5539 16.9907 15.5519 15.3407V6.34172L10.9169 1.51172H4.5849H4.5719ZM4.3989 19.8667C1.9259 19.8237 -0.0410956 17.7867 0.000904404 15.3267V4.49072C0.0579044 2.00972 2.1059 0.0117188 4.5689 0.0117188H4.5879H11.2359C11.4399 0.0117188 11.6349 0.0947188 11.7769 0.241719L16.8429 5.52072C16.9769 5.65972 17.0519 5.84672 17.0519 6.03972V15.3397C17.0559 17.8087 15.0499 19.8397 12.5809 19.8657L4.3989 19.8667Z" fill="#212121"/>
    <path fill-rule="evenodd" clip-rule="evenodd" d="M16.2966 6.98437H13.5426C11.7116 6.97937 10.2236 5.48737 10.2236 3.65937V0.750366C10.2236 0.336366 10.5596 0.000366211 10.9736 0.000366211C11.3876 0.000366211 11.7236 0.336366 11.7236 0.750366V3.65937C11.7236 4.66337 12.5406 5.48137 13.5446 5.48437H16.2966C16.7106 5.48437 17.0466 5.82037 17.0466 6.23437C17.0466 6.64837 16.7106 6.98437 16.2966 6.98437Z" fill="#212121"/>
    <path fill-rule="evenodd" clip-rule="evenodd" d="M10.7926 12.4971H5.89355C5.47955 12.4971 5.14355 12.1611 5.14355 11.7471C5.14355 11.3331 5.47955 10.9971 5.89355 10.9971H10.7926C11.2066 10.9971 11.5426 11.3331 11.5426 11.7471C11.5426 12.1611 11.2066 12.4971 10.7926 12.4971Z" fill="#212121"/>
</svg>
