<svg width="24" height="24" viewBox="0 0 18 20" fill="none" xmlns="http://www.w3.org/2000/svg">
    <mask id="mask0_430_8284" style="mask-type:luminance" maskUnits="userSpaceOnUse" x="0" y="0" width="18" height="20">
        <path fill-rule="evenodd" clip-rule="evenodd" d="M0.000244141 0.0115967H17.0529V19.8651H0.000244141V0.0115967Z" fill="white"/>
    </mask>
    <g mask="url(#mask0_430_8284)">
        <path fill-rule="evenodd" clip-rule="evenodd" d="M4.57335 1.5116C2.91635 1.5116 1.54035 2.8536 1.50135 4.5086V15.2036C1.46435 16.9166 2.81435 18.3276 4.51035 18.3656H12.5743C14.2433 18.2966 15.5653 16.9096 15.5533 15.2096V6.3396L10.9183 1.5116H4.58535H4.57335ZM4.58535 19.8656H4.47635C1.95435 19.8086 -0.0536524 17.7106 0.00134757 15.1876V4.4906C0.0593476 2.0096 2.10835 0.0115967 4.57135 0.0115967H4.58835H11.2383C11.4423 0.0115967 11.6373 0.0945967 11.7793 0.241597L16.8443 5.5186C16.9783 5.6576 17.0533 5.8446 17.0533 6.0376V15.2036C17.0713 17.7126 15.1173 19.7626 12.6043 19.8646L4.58535 19.8656Z" fill="#212121"/>
    </g>
    <path fill-rule="evenodd" clip-rule="evenodd" d="M16.2983 6.98424H13.5433C11.7133 6.97924 10.2253 5.48724 10.2253 3.65924V0.750244C10.2253 0.336244 10.5613 0.000244141 10.9753 0.000244141C11.3893 0.000244141 11.7253 0.336244 11.7253 0.750244V3.65924C11.7253 4.66324 12.5423 5.48124 13.5453 5.48424H16.2983C16.7123 5.48424 17.0483 5.82024 17.0483 6.23424C17.0483 6.64824 16.7123 6.98424 16.2983 6.98424Z" fill="#212121"/>
    <path fill-rule="evenodd" clip-rule="evenodd" d="M10.7887 14.1084H5.38867C4.97467 14.1084 4.63867 13.7724 4.63867 13.3584C4.63867 12.9444 4.97467 12.6084 5.38867 12.6084H10.7887C11.2027 12.6084 11.5387 12.9444 11.5387 13.3584C11.5387 13.7724 11.2027 14.1084 10.7887 14.1084Z" fill="#212121"/>
    <path fill-rule="evenodd" clip-rule="evenodd" d="M8.7437 10.3563H5.3877C4.9737 10.3563 4.6377 10.0203 4.6377 9.60632C4.6377 9.19232 4.9737 8.85632 5.3877 8.85632H8.7437C9.1577 8.85632 9.4937 9.19232 9.4937 9.60632C9.4937 10.0203 9.1577 10.3563 8.7437 10.3563Z" fill="#212121"/>
</svg>
