<svg width="24" height="24" viewBox="0 0 18 20" fill="none" xmlns="http://www.w3.org/2000/svg">
    <mask id="mask0_430_8523" style="mask-type:luminance" maskUnits="userSpaceOnUse" x="0" y="0" width="18" height="20">
        <path fill-rule="evenodd" clip-rule="evenodd" d="M0.000244141 0.0115967H17.0524V19.8651H0.000244141V0.0115967Z" fill="white"/>
    </mask>
    <g mask="url(#mask0_430_8523)">
        <path fill-rule="evenodd" clip-rule="evenodd" d="M4.57331 1.5116C2.91631 1.5116 1.54031 2.8536 1.50131 4.5086V15.2276C1.46531 16.9286 2.80531 18.3286 4.49031 18.3656H12.5733C14.2423 18.3056 15.5633 16.9286 15.5523 15.2326V6.3396L10.9183 1.5116H4.58531H4.57331ZM4.58531 19.8656H4.45931C1.94731 19.8116 -0.0526876 17.7236 0.00131242 15.2116V4.4906C0.0603124 2.0096 2.10831 0.0115967 4.57031 0.0115967H4.58831H11.2373C11.4413 0.0115967 11.6363 0.0945967 11.7783 0.241597L16.8443 5.5186C16.9773 5.6576 17.0523 5.8446 17.0523 6.0376V15.2276C17.0683 17.7366 15.1123 19.7756 12.5993 19.8656H4.58531Z" fill="#212121"/>
    </g>
    <path fill-rule="evenodd" clip-rule="evenodd" d="M16.2978 6.98424H13.5438C11.7128 6.97924 10.2258 5.48724 10.2258 3.65924V0.750244C10.2258 0.336244 10.5618 0.000244141 10.9758 0.000244141C11.3898 0.000244141 11.7258 0.336244 11.7258 0.750244V3.65924C11.7258 4.66324 12.5418 5.48124 13.5458 5.48424H16.2978C16.7118 5.48424 17.0478 5.82024 17.0478 6.23424C17.0478 6.64824 16.7118 6.98424 16.2978 6.98424Z" fill="#212121"/>
    <path fill-rule="evenodd" clip-rule="evenodd" d="M8.1416 14.7002C7.7276 14.7002 7.3916 14.3642 7.3916 13.9502V7.90918C7.3916 7.49518 7.7276 7.15918 8.1416 7.15918C8.5556 7.15918 8.8916 7.49518 8.8916 7.90918V13.9502C8.8916 14.3642 8.5556 14.7002 8.1416 14.7002Z" fill="#212121"/>
    <path fill-rule="evenodd" clip-rule="evenodd" d="M5.79712 11.0145C5.60612 11.0145 5.41412 10.9415 5.26812 10.7955C4.97512 10.5035 4.97312 10.0295 5.26612 9.73549L7.61012 7.37949C7.89212 7.09649 8.39212 7.09649 8.67312 7.37949L11.0191 9.73549C11.3111 10.0295 11.3101 10.5035 11.0171 10.7955C10.7231 11.0875 10.2481 11.0875 9.95612 10.7935L8.14212 8.97149L6.32812 10.7935C6.18212 10.9415 5.98912 11.0145 5.79712 11.0145Z" fill="#212121"/>
</svg>
