<svg width="24" height="24" viewBox="0 0 18 20" fill="none" xmlns="http://www.w3.org/2000/svg">
    <mask id="mask0_430_8374" style="mask-type:luminance" maskUnits="userSpaceOnUse" x="0" y="0" width="18" height="20">
        <path fill-rule="evenodd" clip-rule="evenodd" d="M0.000244141 0.0115967H17.0524V19.8651H0.000244141V0.0115967Z" fill="white"/>
    </mask>
    <g mask="url(#mask0_430_8374)">
        <path fill-rule="evenodd" clip-rule="evenodd" d="M4.57331 1.5116C2.91631 1.5116 1.54031 2.8536 1.50131 4.5086V15.2276C1.46531 16.9286 2.80531 18.3286 4.49031 18.3656H12.5733C14.2423 18.3056 15.5633 16.9286 15.5523 15.2326V6.3396L10.9183 1.5116H4.58531H4.57331ZM4.58531 19.8656H4.45931C1.94731 19.8116 -0.0526876 17.7236 0.00131242 15.2116V4.4906C0.0603124 2.0096 2.10831 0.0115967 4.57031 0.0115967H4.58831H11.2373C11.4413 0.0115967 11.6363 0.0945967 11.7783 0.241597L16.8443 5.5186C16.9773 5.6576 17.0523 5.8446 17.0523 6.0376V15.2276C17.0683 17.7366 15.1123 19.7756 12.5993 19.8656H4.58531Z" fill="#212121"/>
    </g>
    <path fill-rule="evenodd" clip-rule="evenodd" d="M16.2978 6.98424H13.5438C11.7128 6.97924 10.2258 5.48724 10.2258 3.65924V0.750244C10.2258 0.336244 10.5618 0.000244141 10.9758 0.000244141C11.3898 0.000244141 11.7258 0.336244 11.7258 0.750244V3.65924C11.7258 4.66324 12.5418 5.48124 13.5458 5.48424H16.2978C16.7118 5.48424 17.0478 5.82024 17.0478 6.23424C17.0478 6.64824 16.7118 6.98424 16.2978 6.98424Z" fill="#212121"/>
    <path fill-rule="evenodd" clip-rule="evenodd" d="M8.14282 14.7002C7.72882 14.7002 7.39282 14.3642 7.39282 13.9502V7.90918C7.39282 7.49518 7.72882 7.15918 8.14282 7.15918C8.55682 7.15918 8.89282 7.49518 8.89282 7.90918V13.9502C8.89282 14.3642 8.55682 14.7002 8.14282 14.7002Z" fill="#212121"/>
    <path fill-rule="evenodd" clip-rule="evenodd" d="M8.14174 14.6991C7.94274 14.6991 7.75074 14.6201 7.61074 14.4781L5.26574 12.1241C4.97374 11.8301 4.97474 11.3551 5.26774 11.0631C5.56174 10.7711 6.03674 10.7711 6.32874 11.0651L8.14174 12.8871L9.95474 11.0651C10.2467 10.7711 10.7217 10.7711 11.0157 11.0631C11.3087 11.3551 11.3097 11.8301 11.0177 12.1241L8.67274 14.4781C8.53274 14.6201 8.34074 14.6991 8.14174 14.6991Z" fill="#212121"/>
</svg>
