<svg width="24" height="24" viewBox="0 0 18 20" fill="none" xmlns="http://www.w3.org/2000/svg">
    <mask id="mask0_430_8471" style="mask-type:luminance" maskUnits="userSpaceOnUse" x="0" y="0" width="18" height="20">
        <path fill-rule="evenodd" clip-rule="evenodd" d="M0 0.0117188H17.0515V19.8667H0V0.0117188Z" fill="white"/>
    </mask>
    <g mask="url(#mask0_430_8471)">
        <path fill-rule="evenodd" clip-rule="evenodd" d="M4.47851 1.51172C2.83551 1.51172 1.49951 2.84872 1.49951 4.49072V15.3397C1.50451 16.1507 1.82651 16.9147 2.40551 17.4877C2.98351 18.0587 3.78051 18.3867 4.56651 18.3667C4.57351 18.3667 4.68351 18.3657 4.68951 18.3657H12.5725C14.2145 18.3477 15.5545 16.9907 15.5515 15.3407V6.34172L10.9165 1.51172H4.47851ZM4.54251 19.8667C3.34251 19.8667 2.20751 19.4017 1.35051 18.5537C0.486512 17.6997 0.00651172 16.5597 -0.000488281 15.3437V4.49072C-0.000488281 2.02172 2.00851 0.0117188 4.47851 0.0117188H11.2365C11.4405 0.0117188 11.6355 0.0947188 11.7775 0.241719L16.8425 5.52072C16.9765 5.65972 17.0515 5.84672 17.0515 6.03972V15.3397C17.0565 17.8087 15.0505 19.8397 12.5805 19.8657L4.57151 19.8667H4.54251Z" fill="#212121"/>
    </g>
    <path fill-rule="evenodd" clip-rule="evenodd" d="M16.2969 6.98437H13.5409C11.7109 6.97937 10.2239 5.48737 10.2239 3.65937V0.750366C10.2239 0.336366 10.5599 0.000366211 10.9739 0.000366211C11.3879 0.000366211 11.7239 0.336366 11.7239 0.750366V3.65937C11.7239 4.66337 12.5399 5.48137 13.5429 5.48437H16.2969C16.7109 5.48437 17.0469 5.82037 17.0469 6.23437C17.0469 6.64837 16.7109 6.98437 16.2969 6.98437Z" fill="#212121"/>
    <path fill-rule="evenodd" clip-rule="evenodd" d="M10.0751 13.3985C9.88313 13.3985 9.69112 13.3255 9.54513 13.1785L6.07913 9.71249C5.78612 9.41949 5.78612 8.94549 6.07913 8.65249C6.37213 8.35949 6.84613 8.35949 7.13912 8.65249L10.6051 12.1185C10.8981 12.4115 10.8981 12.8855 10.6051 13.1785C10.4591 13.3255 10.2671 13.3985 10.0751 13.3985Z" fill="#212121"/>
    <path fill-rule="evenodd" clip-rule="evenodd" d="M6.61035 13.3985C6.41835 13.3985 6.22635 13.3255 6.08035 13.1785C5.78735 12.8855 5.78735 12.4115 6.08035 12.1185L9.54635 8.65249C9.83935 8.35949 10.3133 8.35949 10.6063 8.65249C10.8993 8.94549 10.8993 9.41949 10.6063 9.71249L7.14035 13.1785C6.99435 13.3255 6.80235 13.3985 6.61035 13.3985Z" fill="#212121"/>
</svg>
