<svg width="24" height="24" viewBox="0 0 17 21" fill="none" xmlns="http://www.w3.org/2000/svg">
    <mask id="mask0_430_8685" style="mask-type:luminance" maskUnits="userSpaceOnUse" x="0" y="0" width="17" height="21">
        <path fill-rule="evenodd" clip-rule="evenodd" d="M0.000244141 0.000366211H16.967V20.356H0.000244141V0.000366211Z" fill="white"/>
    </mask>
    <g mask="url(#mask0_430_8685)">
        <path fill-rule="evenodd" clip-rule="evenodd" d="M8.48368 1.5C7.63568 1.5 2.28468 3.384 1.66768 3.899C1.48668 4.081 1.47968 4.399 1.51768 6.526C1.53668 7.552 1.56168 8.947 1.56168 10.879C1.56168 16.08 7.28368 18.389 8.48268 18.814C9.68068 18.387 15.4057 16.065 15.4057 10.879C15.4057 8.949 15.4307 7.555 15.4487 6.529C15.4877 4.4 15.4807 4.082 15.2877 3.889C14.6817 3.384 9.33168 1.5 8.48368 1.5ZM8.48368 20.356C8.41068 20.356 8.33768 20.346 8.26668 20.324C7.93168 20.223 0.0616797 17.761 0.0616797 10.879C0.0616797 8.959 0.0366797 7.572 0.0186797 6.554C-0.0273203 4.014 -0.0373203 3.484 0.61768 2.828C1.40468 2.041 7.35068 0 8.48368 0C9.61668 0 15.5627 2.041 16.3487 2.828C17.0047 3.484 16.9947 4.014 16.9487 6.557C16.9307 7.575 16.9057 8.962 16.9057 10.879C16.9057 17.761 9.03568 20.223 8.70068 20.324C8.62968 20.346 8.55668 20.356 8.48368 20.356Z" fill="#212121"/>
    </g>
    <path fill-rule="evenodd" clip-rule="evenodd" d="M10.3625 12.5751C10.1705 12.5751 9.97849 12.5021 9.83249 12.3551L6.07449 8.59713C5.78149 8.30413 5.78149 7.83013 6.07449 7.53713C6.36749 7.24413 6.84149 7.24413 7.13449 7.53713L10.8925 11.2951C11.1855 11.5881 11.1855 12.0621 10.8925 12.3551C10.7465 12.5021 10.5545 12.5751 10.3625 12.5751Z" fill="#212121"/>
    <path fill-rule="evenodd" clip-rule="evenodd" d="M6.60473 12.5751C6.41273 12.5751 6.22073 12.5021 6.07473 12.3551C5.78173 12.0621 5.78173 11.5881 6.07473 11.2951L9.83273 7.53713C10.1257 7.24413 10.5997 7.24413 10.8927 7.53713C11.1857 7.83013 11.1857 8.30413 10.8927 8.59713L7.13473 12.3551C6.98873 12.5021 6.79673 12.5751 6.60473 12.5751Z" fill="#212121"/>
</svg>
