<svg width="24" height="24" viewBox="0 0 17 21" fill="none" xmlns="http://www.w3.org/2000/svg">
    <mask id="mask0_430_8598" style="mask-type:luminance" maskUnits="userSpaceOnUse" x="0" y="0" width="17" height="21">
        <path fill-rule="evenodd" clip-rule="evenodd" d="M0.000244141 0.000366211H16.9671V20.356H0.000244141V0.000366211Z" fill="white"/>
    </mask>
    <g mask="url(#mask0_430_8598)">
        <path fill-rule="evenodd" clip-rule="evenodd" d="M8.48366 1.5C7.63566 1.5 2.28566 3.384 1.66866 3.899C1.48666 4.082 1.47966 4.4 1.51866 6.529C1.53666 7.555 1.56166 8.949 1.56166 10.879C1.56166 16.08 7.28366 18.389 8.48266 18.814C9.68066 18.387 15.4057 16.065 15.4057 10.879C15.4057 8.947 15.4307 7.552 15.4497 6.526C15.4877 4.399 15.4807 4.081 15.2877 3.889C14.6827 3.384 9.33166 1.5 8.48366 1.5ZM8.48366 20.356C8.41066 20.356 8.33766 20.346 8.26666 20.324C7.93166 20.223 0.0616587 17.761 0.0616587 10.879C0.0616587 8.962 0.0366587 7.575 0.0186587 6.557C-0.0273413 4.014 -0.0373414 3.484 0.619659 2.828C1.40466 2.041 7.34966 0 8.48366 0C9.61666 0 15.5617 2.041 16.3487 2.828C17.0047 3.484 16.9947 4.014 16.9487 6.554C16.9307 7.572 16.9057 8.959 16.9057 10.879C16.9057 17.761 9.03566 20.223 8.70066 20.324C8.62966 20.346 8.55666 20.356 8.48366 20.356Z" fill="#212121"/>
    </g>
    <path fill-rule="evenodd" clip-rule="evenodd" d="M7.77713 12.5195C7.57813 12.5195 7.38713 12.4405 7.24613 12.2995L5.35413 10.4055C5.06213 10.1125 5.06213 9.6365 5.35513 9.3445C5.64713 9.0515 6.12313 9.0515 6.41613 9.3445L7.77713 10.7075L11.1451 7.3395C11.4381 7.0465 11.9121 7.0465 12.2051 7.3395C12.4981 7.6325 12.4981 8.1075 12.2051 8.4005L8.30713 12.2995C8.16713 12.4405 7.97613 12.5195 7.77713 12.5195Z" fill="#212121"/>
</svg>
