<svg width="24" height="24" viewBox="0 0 20 18" fill="none" xmlns="http://www.w3.org/2000/svg">
    <path d="M14.8396 2.79639C15.2193 2.79639 15.5331 3.07854 15.5828 3.44462L15.5896 3.54639V17.1642C15.5896 17.5784 15.2538 17.9142 14.8396 17.9142C14.4599 17.9142 14.1461 17.632 14.0964 17.2659L14.0896 17.1642V3.54639C14.0896 3.13217 14.4254 2.79639 14.8396 2.79639Z" fill="#212121"/>
    <path d="M18.3857 12.5389C18.6779 12.2453 19.1528 12.2442 19.4464 12.5364C19.7133 12.8021 19.7384 13.2187 19.5213 13.5128L19.4488 13.5971L15.3711 17.6938C15.1045 17.9615 14.6863 17.9859 14.3922 17.7668L14.3079 17.6938L10.2302 13.5971C9.93795 13.3035 9.93905 12.8287 10.2326 12.5364C10.4995 12.2708 10.9162 12.2475 11.2093 12.4661L11.2933 12.5389L14.8391 16.1009L18.3857 12.5389Z" fill="#212121"/>
    <path d="M4.91113 0.0828857C5.29083 0.0828857 5.60462 0.36504 5.65429 0.731115L5.66113 0.832886V14.4507C5.66113 14.8649 5.32535 15.2007 4.91113 15.2007C4.53144 15.2007 4.21764 14.9185 4.16798 14.5524L4.16113 14.4507V0.832886C4.16113 0.418672 4.49692 0.0828857 4.91113 0.0828857Z" fill="#212121"/>
    <path d="M4.37972 0.303172C4.64624 0.0354185 5.06449 0.0110773 5.3586 0.230148L5.44283 0.303172L9.52061 4.39984C9.81282 4.69341 9.81172 5.16828 9.51816 5.4605C9.25127 5.72615 8.83455 5.74939 8.54145 5.53086L8.4575 5.45805L4.91105 1.89494L1.36505 5.45805C1.0994 5.72493 0.682793 5.7501 0.388679 5.53292L0.304393 5.4605C0.0375118 5.19485 0.012343 4.77824 0.229518 4.48412L0.301942 4.39984L4.37972 0.303172Z" fill="#212121"/>
</svg>
