<svg width="24" height="24" viewBox="0 0 20 19" fill="none" xmlns="http://www.w3.org/2000/svg">
    <path fill-rule="evenodd" clip-rule="evenodd" d="M15.8572 17.4171C17.7302 17.4171 19.2492 15.8991 19.2502 14.0261V14.0241V11.3241C18.0132 11.3241 17.0112 10.3221 17.0102 9.08512C17.0102 7.84912 18.0122 6.84612 19.2492 6.84612H19.2502V4.14612C19.2522 2.27212 17.7352 0.752122 15.8622 0.750122H15.8562H4.14424C2.27024 0.750122 0.751245 2.26812 0.750245 4.14212V4.14312V6.93312C1.94424 6.89112 2.94524 7.82512 2.98724 9.01912C2.98824 9.04112 2.98924 9.06312 2.98924 9.08512C2.99024 10.3201 1.99124 11.3221 0.756245 11.3241H0.750245V14.0241C0.749245 15.8971 2.26824 17.4171 4.14124 17.4171H4.14224H15.8572Z" stroke="#212121" stroke-width="1.5" stroke-linecap="round" stroke-linejoin="round"/>
    <path fill-rule="evenodd" clip-rule="evenodd" d="M10.3713 6.06315L10.9873 7.31015C11.0473 7.43215 11.1633 7.51715 11.2983 7.53715L12.6753 7.73815C13.0163 7.78815 13.1513 8.20615 12.9053 8.44515L11.9093 9.41515C11.8113 9.51015 11.7673 9.64715 11.7893 9.78215L12.0243 11.1522C12.0823 11.4912 11.7273 11.7492 11.4233 11.5892L10.1923 10.9422C10.0713 10.8782 9.92734 10.8782 9.80634 10.9422L8.57634 11.5892C8.27134 11.7492 7.91634 11.4912 7.97434 11.1522L8.20934 9.78215C8.23234 9.64715 8.18734 9.51015 8.08934 9.41515L7.09434 8.44515C6.84834 8.20615 6.98334 7.78815 7.32334 7.73815L8.70034 7.53715C8.83534 7.51715 8.95234 7.43215 9.01234 7.31015L9.62734 6.06315C9.77934 5.75515 10.2193 5.75515 10.3713 6.06315Z" stroke="#212121" stroke-width="1.5" stroke-linecap="round" stroke-linejoin="round"/>
</svg>
