<svg width="24" height="24" viewBox="0 0 20 19" fill="none" xmlns="http://www.w3.org/2000/svg">
    <mask id="mask0_430_8294" style="mask-type:luminance" maskUnits="userSpaceOnUse" x="0" y="0" width="20" height="19">
        <path fill-rule="evenodd" clip-rule="evenodd" d="M0 0.000488281H20V18.1665H0V0.000488281Z" fill="white"/>
    </mask>
    <g mask="url(#mask0_430_8294)">
        <path fill-rule="evenodd" clip-rule="evenodd" d="M1.5 11.9795V14.0245C1.5 14.7305 1.774 15.3935 2.273 15.8925C2.772 16.3915 3.436 16.6665 4.141 16.6665H15.857C17.313 16.6665 18.499 15.4825 18.5 14.0265V11.9785C17.214 11.6455 16.261 10.4745 16.26 9.08549C16.26 7.69649 17.213 6.52549 18.499 6.19149L18.5 4.14649C18.501 2.68849 17.318 1.50149 15.861 1.50049H4.144C2.687 1.50049 1.501 2.68549 1.5 4.14249V6.25949C1.986 6.37549 2.437 6.61449 2.812 6.96449C3.381 7.49549 3.709 8.21549 3.737 8.99349C3.74 10.4595 2.787 11.6435 1.5 11.9795ZM15.857 18.1665H4.142C3.035 18.1665 1.995 17.7365 1.212 16.9535C0.43 16.1705 0 15.1305 0 14.0245V11.3245C0 10.9105 0.336 10.5745 0.75 10.5745C1.574 10.5735 2.24 9.90549 2.239 9.08549C2.225 8.66749 2.065 8.31949 1.789 8.06149C1.514 7.80349 1.158 7.66249 0.776 7.68349C0.569 7.68549 0.375 7.61449 0.229 7.47349C0.083 7.33249 0 7.13649 0 6.93349V4.14349C0.001 1.85849 1.86 0.000488281 4.144 0.000488281H15.856C18.146 0.00148828 20.002 1.86349 20 4.14749V6.84649C20 7.26049 19.664 7.59649 19.25 7.59649C18.429 7.59649 17.76 8.26449 17.76 9.08449C17.761 9.90649 18.429 10.5745 19.25 10.5745C19.664 10.5745 20 10.9105 20 11.3245V14.0245C19.999 16.3085 18.14 18.1665 15.857 18.1665Z" fill="#212121"/>
    </g>
    <path fill-rule="evenodd" clip-rule="evenodd" d="M8.10383 8.38152L8.61283 8.87752C8.88883 9.14852 9.01383 9.53452 8.94783 9.91152L8.82783 10.6095L9.45683 10.2785C9.79583 10.0975 10.2028 10.0985 10.5448 10.2805L11.1698 10.6085L11.0498 9.90952C10.9868 9.52652 11.1128 9.14352 11.3858 8.87752L11.8948 8.38152L11.1898 8.27952C10.8118 8.22452 10.4838 7.98652 10.3148 7.64152L9.99983 7.00452L9.68483 7.64252C9.51583 7.98652 9.18783 8.22452 8.80783 8.27952L8.10383 8.38152ZM11.6178 12.3875C11.4318 12.3875 11.2458 12.3425 11.0738 12.2515L9.99983 11.6885L8.92483 12.2525C8.52883 12.4595 8.05783 12.4265 7.69783 12.1645C7.33683 11.9015 7.15983 11.4655 7.23483 11.0255L7.43983 9.82952L6.57083 8.98252C6.25183 8.67152 6.13783 8.21452 6.27483 7.79052C6.41283 7.36552 6.77283 7.06052 7.21383 6.99652L8.41783 6.82052L8.95483 5.73152C9.15183 5.33152 9.55183 5.08252 9.99983 5.08252C10.4458 5.08252 10.8468 5.33152 11.0438 5.73252L11.5818 6.82052L12.7838 6.99652C13.2258 7.06052 13.5868 7.36552 13.7238 7.79052C13.8608 8.21452 13.7478 8.67152 13.4278 8.98352L12.5578 9.83052L12.7638 11.0255C12.8388 11.4665 12.6608 11.9035 12.2988 12.1655C12.0948 12.3125 11.8568 12.3875 11.6178 12.3875Z" fill="#212121"/>
</svg>
