<svg width="24" height="24" viewBox="0 0 22 18" fill="none" xmlns="http://www.w3.org/2000/svg">
    <path fill-rule="evenodd" clip-rule="evenodd" d="M12.5996 4.17088C12.1856 4.17088 11.8496 3.83488 11.8496 3.42088V0.999878C11.8496 0.585878 12.1856 0.249878 12.5996 0.249878C13.0136 0.249878 13.3496 0.585878 13.3496 0.999878V3.42088C13.3496 3.83488 13.0136 4.17088 12.5996 4.17088Z" fill="#212121"/>
    <path fill-rule="evenodd" clip-rule="evenodd" d="M12.5996 17.2842C12.1856 17.2842 11.8496 16.9482 11.8496 16.5342V14.5112C11.8496 14.0962 12.1856 13.7612 12.5996 13.7612C13.0136 13.7612 13.3496 14.0962 13.3496 14.5112V16.5342C13.3496 16.9482 13.0136 17.2842 12.5996 17.2842Z" fill="#212121"/>
    <path fill-rule="evenodd" clip-rule="evenodd" d="M12.5996 11.8252C12.1856 11.8252 11.8496 11.4892 11.8496 11.0752V6.25415C11.8496 5.84015 12.1856 5.50415 12.5996 5.50415C13.0136 5.50415 13.3496 5.84015 13.3496 6.25415V11.0752C13.3496 11.4892 13.0136 11.8252 12.5996 11.8252Z" fill="#212121"/>
    <mask id="mask0_430_8304" style="mask-type:luminance" maskUnits="userSpaceOnUse" x="0" y="0" width="22" height="18">
        <path fill-rule="evenodd" clip-rule="evenodd" d="M0 0H21.5V17.4997H0V0Z" fill="white"/>
    </mask>
    <g mask="url(#mask0_430_8304)">
        <path fill-rule="evenodd" clip-rule="evenodd" d="M1.5 11.5538V13.4928C1.5 14.8748 2.643 15.9998 4.048 15.9998H17.452C18.857 15.9998 20 14.8748 20 13.4928V11.5538C18.749 11.2248 17.823 10.0928 17.823 8.75076C17.823 7.40776 18.748 6.27676 20 5.94776L19.999 4.00676C19.999 2.62476 18.856 1.49976 17.451 1.49976H4.049C2.644 1.49976 1.501 2.62476 1.501 4.00676L1.5 6.02476C2.767 6.33576 3.677 7.42176 3.677 8.75076C3.677 10.0928 2.751 11.2248 1.5 11.5538ZM17.452 17.4998H4.048C1.816 17.4998 0 15.7018 0 13.4928V10.9008C0 10.4868 0.336 10.1508 0.75 10.1508C1.537 10.1508 2.177 9.52276 2.177 8.75076C2.177 8.00076 1.563 7.43476 0.75 7.43476C0.551 7.43476 0.36 7.35576 0.22 7.21476C0.079 7.07476 0 6.88276 0 6.68476L0.001 4.00676C0.001 1.79776 1.817 -0.000244141 4.049 -0.000244141H17.451C19.683 -0.000244141 21.499 1.79776 21.499 4.00676L21.5 6.60076C21.5 6.79876 21.421 6.99076 21.28 7.13076C21.14 7.27176 20.949 7.35076 20.75 7.35076C19.963 7.35076 19.323 7.97876 19.323 8.75076C19.323 9.52276 19.963 10.1508 20.75 10.1508C21.164 10.1508 21.5 10.4868 21.5 10.9008V13.4928C21.5 15.7018 19.684 17.4998 17.452 17.4998Z" fill="#212121"/>
    </g>
</svg>
