<svg width="24" height="24" viewBox="0 0 20 20" fill="none" xmlns="http://www.w3.org/2000/svg">
    <path fill-rule="evenodd" clip-rule="evenodd" d="M5.665 1.5C3.135 1.5 1.5 3.233 1.5 5.916V14.084C1.5 16.767 3.135 18.5 5.665 18.5H14.333C16.864 18.5 18.5 16.767 18.5 14.084V5.916C18.5 3.233 16.864 1.5 14.334 1.5H5.665ZM14.333 20H5.665C2.276 20 0 17.622 0 14.084V5.916C0 2.378 2.276 0 5.665 0H14.334C17.723 0 20 2.378 20 5.916V14.084C20 17.622 17.723 20 14.333 20Z" fill="#212121"/>
    <path fill-rule="evenodd" clip-rule="evenodd" d="M8.81345 13.1229C8.62245 13.1229 8.42945 13.0499 8.28345 12.9029L5.90945 10.5299C5.61645 10.2369 5.61645 9.76295 5.90945 9.46995C6.20245 9.17695 6.67645 9.17695 6.96945 9.46995L8.81345 11.3119L13.0294 7.09695C13.3224 6.80395 13.7964 6.80395 14.0894 7.09695C14.3824 7.38995 14.3824 7.86395 14.0894 8.15695L9.34345 12.9029C9.19745 13.0499 9.00545 13.1229 8.81345 13.1229Z" fill="#212121"/>
</svg>
