<svg width="24" height="24" viewBox="0 0 20 20" fill="none" xmlns="http://www.w3.org/2000/svg">
    <path fill-rule="evenodd" clip-rule="evenodd" d="M5.665 1.5C3.135 1.5 1.5 3.233 1.5 5.916V14.084C1.5 16.767 3.135 18.5 5.665 18.5H14.333C16.864 18.5 18.5 16.767 18.5 14.084V5.916C18.5 3.233 16.865 1.5 14.334 1.5H5.665ZM14.333 20H5.665C2.276 20 0 17.622 0 14.084V5.916C0 2.378 2.276 0 5.665 0H14.334C17.723 0 20 2.378 20 5.916V14.084C20 17.622 17.723 20 14.333 20Z" fill="#212121"/>
    <path fill-rule="evenodd" clip-rule="evenodd" d="M13.39 12.7675C13.259 12.7675 13.127 12.7335 13.006 12.6625L9.61502 10.6395C9.38902 10.5035 9.24902 10.2585 9.24902 9.99554V5.63354C9.24902 5.21954 9.58502 4.88354 9.99902 4.88354C10.413 4.88354 10.749 5.21954 10.749 5.63354V9.56954L13.775 11.3725C14.13 11.5855 14.247 12.0455 14.035 12.4015C13.894 12.6365 13.645 12.7675 13.39 12.7675Z" fill="#212121"/>
</svg>
