<svg width="24" height="24" viewBox="0 0 17 20" fill="none" xmlns="http://www.w3.org/2000/svg">
    <path fill-rule="evenodd" clip-rule="evenodd" d="M3.80273 8.19824C3.38873 8.19824 3.05273 7.86224 3.05273 7.44824V5.30124C3.06573 2.36324 5.44173 0.000244141 8.35473 0.000244141H8.37473C10.6307 0.000244141 12.6447 1.43324 13.3837 3.56724C13.5197 3.95824 13.3117 4.38524 12.9197 4.52124C12.5287 4.65824 12.1017 4.44924 11.9657 4.05724C11.4367 2.52824 9.99173 1.50024 8.37173 1.50024H8.35773C6.26573 1.50024 4.56173 3.19424 4.55273 5.28424V7.44824C4.55273 7.86224 4.21673 8.19824 3.80273 8.19824Z" fill="#212121"/>
    <path fill-rule="evenodd" clip-rule="evenodd" d="M4.542 8.12695C2.864 8.12695 1.5 9.49195 1.5 11.17V15.458C1.5 17.136 2.864 18.501 4.542 18.501H12.184C13.861 18.501 15.226 17.136 15.226 15.458V11.17C15.226 9.49195 13.861 8.12695 12.184 8.12695H4.542ZM12.184 20.001H4.542C2.037 20.001 0 17.963 0 15.458V11.17C0 8.66495 2.037 6.62695 4.542 6.62695H12.184C14.688 6.62695 16.726 8.66495 16.726 11.17V15.458C16.726 17.963 14.688 20.001 12.184 20.001Z" fill="#212121"/>
    <path fill-rule="evenodd" clip-rule="evenodd" d="M8.36328 15.1748C7.94928 15.1748 7.61328 14.8388 7.61328 14.4248V12.2028C7.61328 11.7888 7.94928 11.4528 8.36328 11.4528C8.77728 11.4528 9.11328 11.7888 9.11328 12.2028V14.4248C9.11328 14.8388 8.77728 15.1748 8.36328 15.1748Z" fill="#212121"/>
</svg>
