<svg width="24" height="24" viewBox="0 0 21 16" fill="none" xmlns="http://www.w3.org/2000/svg">
    <mask id="mask0_430_8350" style="mask-type:luminance" maskUnits="userSpaceOnUse" x="0" y="0" width="16" height="16">
        <path fill-rule="evenodd" clip-rule="evenodd" d="M0.000244141 0.000244141H15.5005V15.5016H0.000244141V0.000244141Z" fill="white"/>
    </mask>
    <g mask="url(#mask0_430_8350)">
        <path fill-rule="evenodd" clip-rule="evenodd" d="M4.84735 1.50159C4.40835 1.50159 4.12535 1.50159 4.07635 1.50359C3.33835 1.53459 2.65735 1.84759 2.16635 2.38359C1.70835 2.88459 1.47235 3.52459 1.50335 4.18859C1.50335 7.08159 1.50435 11.4236 1.51135 11.6616C1.62535 13.0466 2.92335 14.1056 4.40935 13.9916C7.15935 13.9956 11.2334 14.0046 11.4244 13.9976C12.1594 13.9676 12.8414 13.6556 13.3324 13.1206C13.7914 12.6216 14.0274 11.9816 13.9984 11.3206C13.9974 11.3096 13.9974 11.2986 13.9974 11.2876C13.9984 8.42759 13.9984 4.08859 13.9914 3.85559C13.8784 2.46359 12.5744 1.39159 11.0804 1.50859C9.01435 1.50559 6.19535 1.50159 4.84735 1.50159ZM4.14635 15.5016C2.03235 15.5026 0.188351 13.8826 0.0143512 11.7576C0.0113511 11.7166 0.00135115 11.5916 0.00435115 4.22259C-0.0436489 3.19159 0.330351 2.16759 1.06035 1.37059C1.82235 0.53859 2.87335 0.0535903 4.02035 0.00459027C4.15935 -0.00540973 8.96735 0.00659027 11.0264 0.0105903C13.2764 -0.14741 15.3074 1.52259 15.4884 3.76359C15.4964 3.87259 15.4994 6.39759 15.4974 11.2726C15.5394 12.3286 15.1634 13.3456 14.4374 14.1356C13.6744 14.9666 12.6224 15.4496 11.4764 15.4966C11.3364 15.5066 6.52635 15.4936 4.46435 15.4896C4.35835 15.4976 4.25235 15.5016 4.14635 15.5016Z" fill="#212121"/>
    </g>
    <path fill-rule="evenodd" clip-rule="evenodd" d="M18.8186 13.3493C18.3676 13.3493 17.9226 13.1943 17.5556 12.8933L14.2746 10.1973C13.9546 9.93431 13.9086 9.46131 14.1716 9.14131C14.4336 8.82231 14.9066 8.77431 15.2266 9.03831L18.5066 11.7343C18.7276 11.9143 18.9496 11.8403 19.0356 11.7983C19.1216 11.7583 19.3206 11.6333 19.3206 11.3493L19.3326 4.00031C19.3336 3.71631 19.1336 3.59131 19.0476 3.55031C18.9626 3.51031 18.7376 3.43531 18.5186 3.61531L15.2256 6.31031C14.9036 6.57331 14.4326 6.52631 14.1706 6.20431C13.9076 5.88431 13.9556 5.41231 14.2756 5.15031L17.5686 2.45431C18.1726 1.95931 18.9856 1.86231 19.6906 2.19531C20.3956 2.53031 20.8336 3.22231 20.8326 4.00231L20.8206 11.3513C20.8196 12.1313 20.3806 12.8233 19.6766 13.1553C19.4006 13.2863 19.1086 13.3493 18.8186 13.3493Z" fill="#212121"/>
</svg>
