<svg width="24" height="24" viewBox="0 0 18 22" fill="none" xmlns="http://www.w3.org/2000/svg">
    <path fill-rule="evenodd" clip-rule="evenodd" d="M8.74951 21.5C8.33551 21.5 7.99951 21.164 7.99951 20.75V17.589C7.99951 17.175 8.33551 16.839 8.74951 16.839C9.16351 16.839 9.49951 17.175 9.49951 17.589V20.75C9.49951 21.164 9.16351 21.5 8.74951 21.5Z" fill="#212121"/>
    <path fill-rule="evenodd" clip-rule="evenodd" d="M8.7495 1.5C6.9235 1.5 5.4375 2.994 5.4375 4.831V9.519C5.4375 11.354 6.9235 12.849 8.7495 12.849C10.5755 12.849 12.0615 11.354 12.0615 9.519V4.831C12.0615 2.994 10.5755 1.5 8.7495 1.5ZM8.7495 14.349C6.0965 14.349 3.9375 12.182 3.9375 9.519V4.831C3.9375 2.167 6.0965 0 8.7495 0C11.4025 0 13.5615 2.167 13.5615 4.831V9.519C13.5615 12.182 11.4025 14.349 8.7495 14.349Z" fill="#212121"/>
    <mask id="mask0_430_8326" style="mask-type:luminance" maskUnits="userSpaceOnUse" x="0" y="8" width="18" height="11">
        <path fill-rule="evenodd" clip-rule="evenodd" d="M0 8.8009H17.4995V18.3389H0V8.8009Z" fill="white"/>
    </mask>
    <g mask="url(#mask0_430_8326)">
        <path fill-rule="evenodd" clip-rule="evenodd" d="M8.74951 18.3389C3.92451 18.3389 -0.000488281 14.3969 -0.000488281 9.5509C-0.000488281 9.1369 0.335512 8.8009 0.749512 8.8009C1.16451 8.8009 1.49951 9.1369 1.49951 9.5509C1.49951 13.5689 4.75151 16.8389 8.74951 16.8389C12.7475 16.8389 15.9995 13.5689 15.9995 9.5509C15.9995 9.1369 16.3355 8.8009 16.7495 8.8009C17.1645 8.8009 17.4995 9.1369 17.4995 9.5509C17.4995 14.3969 13.5745 18.3389 8.74951 18.3389Z" fill="#212121"/>
    </g>
</svg>
