<svg width="24" height="24" viewBox="0 0 18 18" fill="none" xmlns="http://www.w3.org/2000/svg">
    <mask id="mask0_430_8914" style="mask-type:luminance" maskUnits="userSpaceOnUse" x="0" y="0" width="13" height="14">
        <path fill-rule="evenodd" clip-rule="evenodd" d="M0 0.601074H12.0337V13.7873H0V0.601074Z" fill="white"/>
    </mask>
    <g mask="url(#mask0_430_8914)">
        <path fill-rule="evenodd" clip-rule="evenodd" d="M9.23051 2.11133C8.36451 2.11133 7.25151 3.02733 6.32551 3.78933C5.43551 4.52133 4.73351 5.09933 4.02851 5.15533C3.71351 5.17933 3.44351 5.19033 3.20551 5.19933C2.46651 5.22633 2.27951 5.24433 1.94751 5.52833C1.49451 5.91533 1.49851 7.46333 1.50051 8.38733L1.50151 8.63333L1.50051 8.88033C1.49851 9.80433 1.49451 11.3523 1.94751 11.7393C2.28651 12.0293 2.47851 12.0473 3.23551 12.0733C3.46451 12.0813 3.72351 12.0903 4.02251 12.1113C4.10851 12.1173 4.19651 12.1313 4.28651 12.1533L10.5245 5.91533C10.4515 3.69033 10.2265 2.69233 9.69651 2.21833C9.55251 2.14433 9.39651 2.11133 9.23051 2.11133ZM4.46351 13.7873C4.33451 13.7873 4.20551 13.7543 4.08851 13.6863C3.96851 13.6173 3.91351 13.6073 3.91351 13.6073C3.63751 13.5883 3.39751 13.5793 3.18351 13.5723C2.36751 13.5443 1.72251 13.5213 0.97251 12.8803C-0.00748998 12.0423 -0.00348994 10.2873 0.000510061 8.87633L0.00151006 8.63333L0.000510061 8.39133C-0.00348994 6.98033 -0.00748992 5.22433 0.97351 4.38733C1.71351 3.75433 2.34751 3.73033 3.14851 3.70033C3.36951 3.69133 3.61851 3.68233 3.91051 3.65933C4.16151 3.62733 4.89051 3.02733 5.37251 2.63133C6.77851 1.47233 8.70551 -0.113669 10.5075 0.954331C10.5405 0.972331 10.5715 0.994331 10.6005 1.01833C11.7245 1.93333 11.9645 3.48133 12.0335 6.19833C12.0385 6.40333 11.9595 6.60133 11.8135 6.74733L4.99451 13.5673C4.84951 13.7123 4.65751 13.7873 4.46351 13.7873Z" fill="#212121"/>
    </g>
    <path fill-rule="evenodd" clip-rule="evenodd" d="M9.23278 16.666C8.22278 16.666 7.26379 16.081 6.55279 15.566C6.21679 15.324 6.14179 14.855 6.38379 14.52C6.62779 14.184 7.09679 14.107 7.43179 14.352C8.74479 15.301 9.33679 15.238 9.69579 15.05C10.2778 14.531 10.4988 13.363 10.5328 10.657C10.5388 10.243 10.8418 9.92099 11.2928 9.91699C11.7068 9.92299 12.0388 10.263 12.0328 10.677C11.9948 13.632 11.7628 15.305 10.5998 16.25C10.5698 16.273 10.5398 16.295 10.5078 16.313C10.0838 16.564 9.65378 16.666 9.23278 16.666Z" fill="#212121"/>
    <mask id="mask1_430_8914" style="mask-type:luminance" maskUnits="userSpaceOnUse" x="0" y="0" width="18" height="18">
        <path fill-rule="evenodd" clip-rule="evenodd" d="M0.00170898 0.000244141H17.5V17.5H0.00170898V0.000244141Z" fill="white"/>
    </mask>
    <g mask="url(#mask1_430_8914)">
        <path fill-rule="evenodd" clip-rule="evenodd" d="M0.751459 17.5C0.559459 17.5 0.367459 17.427 0.221459 17.28C-0.071541 16.987 -0.071541 16.513 0.221459 16.22L16.2205 0.219994C16.5135 -0.0730059 16.9875 -0.0730059 17.2805 0.219994C17.5735 0.512994 17.5735 0.986994 17.2805 1.27999L1.28146 17.28C1.13546 17.427 0.943459 17.5 0.751459 17.5Z" fill="#212121"/>
    </g>
</svg>
