<svg width="24" height="24" viewBox="0 0 18 16" fill="none" xmlns="http://www.w3.org/2000/svg">
    <path fill-rule="evenodd" clip-rule="evenodd" d="M1.00185 8.00014C0.999065 9.22979 0.944194 10.907 1.70494 11.5339C2.41453 12.1187 2.91395 11.968 4.20945 12.0631C5.50587 12.1591 8.24195 15.97 10.3512 14.7646C11.4393 13.9089 11.5202 12.1151 11.5202 8.00014C11.5202 3.88515 11.4393 2.09135 10.3512 1.23571C8.24195 0.0293753 5.50587 3.84121 4.20945 3.93717C2.91395 4.03225 2.41453 3.88157 1.70494 4.46635C0.944194 5.09328 0.999065 6.77049 1.00185 8.00014Z" stroke="#212121" stroke-width="1.5" stroke-linecap="round" stroke-linejoin="round"/>
    <path d="M15.5813 4.31445C16.8926 6.60514 16.8926 9.40257 15.5813 11.6861" stroke="#212121" stroke-width="1.5" stroke-linecap="round" stroke-linejoin="round"/>
</svg>
