<svg width="24" height="24" viewBox="0 0 18 16" fill="none" xmlns="http://www.w3.org/2000/svg">
    <mask id="mask0_430_8906" style="mask-type:luminance" maskUnits="userSpaceOnUse" x="0" y="0" width="13" height="16">
        <path fill-rule="evenodd" clip-rule="evenodd" d="M0 0.000244141H12.02V15.5021H0V0.000244141Z" fill="white"/>
    </mask>
    <g mask="url(#mask0_430_8906)">
        <path fill-rule="evenodd" clip-rule="evenodd" d="M9.20798 1.50613C8.33998 1.50613 7.22998 2.38713 6.30598 3.12113C5.41698 3.82613 4.71498 4.38413 4.01498 4.43613C3.70498 4.45813 3.43898 4.46813 3.20498 4.47613C2.45798 4.50113 2.26898 4.51813 1.93198 4.79613C1.48998 5.15913 1.49698 6.64213 1.50098 7.52713L1.50198 7.74813V7.75213L1.50098 7.97313C1.49698 8.85913 1.48998 10.3421 1.93198 10.7051C2.26798 10.9831 2.45698 10.9991 3.20198 11.0261C3.43698 11.0331 3.70398 11.0431 4.01498 11.0661C4.71498 11.1171 5.41698 11.6751 6.30598 12.3801C7.40898 13.2551 8.77598 14.3401 9.68098 13.8891C10.439 13.2321 10.52 11.4901 10.52 7.75013C10.52 4.01013 10.439 2.26913 9.68098 1.61113C9.53398 1.53813 9.37498 1.50613 9.20798 1.50613ZM9.21798 15.5021C7.82698 15.5021 6.44798 14.4071 5.37398 13.5551C4.88898 13.1701 4.15598 12.5881 3.90298 12.5621C3.61598 12.5401 3.36798 12.5311 3.14898 12.5251C2.35098 12.4961 1.71998 12.4751 0.977984 11.8631C-0.0140164 11.0461 -0.00501642 9.33813 0.000983581 7.96613L0.00198358 7.75013L0.000983581 7.53413C-0.00501642 6.16213 -0.0140164 4.45513 0.977984 3.63813C1.72098 3.02613 2.35298 3.00413 3.15298 2.97713C3.37098 2.96913 3.61798 2.96113 3.90498 2.94013C4.15598 2.91313 4.88898 2.33113 5.37398 1.94613C6.77198 0.83513 8.68898 -0.68187 10.474 0.33513C10.505 0.35413 10.536 0.37413 10.564 0.39713C11.958 1.49213 12.02 3.55713 12.02 7.75013C12.02 11.9441 11.958 14.0091 10.564 15.1051C10.536 15.1271 10.505 15.1481 10.473 15.1661C10.059 15.4021 9.63798 15.5021 9.21798 15.5021Z" fill="#212121"/>
    </g>
    <path fill-rule="evenodd" clip-rule="evenodd" d="M15.3306 12.1868C15.2036 12.1868 15.0756 12.1548 14.9576 12.0868C14.5986 11.8808 14.4746 11.4218 14.6806 11.0638C15.8516 9.0228 15.8516 6.4848 14.6806 4.4378C14.4746 4.0778 14.5996 3.6198 14.9586 3.4138C15.3186 3.2118 15.7756 3.3328 15.9816 3.6918C17.4166 6.1998 17.4166 9.3098 15.9816 11.8098C15.8426 12.0518 15.5906 12.1868 15.3306 12.1868Z" fill="#212121"/>
</svg>
