<svg width="24" height="24" viewBox="0 0 20 20" fill="none" xmlns="http://www.w3.org/2000/svg">
    <path fill-rule="evenodd" clip-rule="evenodd" d="M9.99512 15.4268C9.58112 15.4268 9.24512 15.0908 9.24512 14.6768V12.1398C9.24512 11.7258 9.58112 11.3898 9.99512 11.3898C10.4091 11.3898 10.7451 11.7258 10.7451 12.1398V14.6768C10.7451 15.0908 10.4091 15.4268 9.99512 15.4268Z" fill="#212121"/>
    <mask id="mask0_430_8626" style="mask-type:luminance" maskUnits="userSpaceOnUse" x="0" y="2" width="20" height="11">
        <path fill-rule="evenodd" clip-rule="evenodd" d="M0.000244141 2.58008H19.99V12.8911H0.000244141V2.58008Z" fill="white"/>
    </mask>
    <g mask="url(#mask0_430_8626)">
        <path fill-rule="evenodd" clip-rule="evenodd" d="M1.50024 9.39308C3.87624 10.6841 6.87224 11.3911 9.99024 11.3911C13.1142 11.3911 16.1132 10.6841 18.4902 9.39308V6.39108C18.4902 5.11608 17.4592 4.08008 16.1902 4.08008H3.81024C2.53624 4.08008 1.50024 5.11208 1.50024 6.38108V9.39308ZM9.99024 12.8911C6.44524 12.8911 3.02824 12.0331 0.371244 10.4771C0.141244 10.3431 0.000244141 10.0971 0.000244141 9.83008V6.38108C0.000244141 4.28508 1.70924 2.58008 3.81024 2.58008H16.1902C18.2862 2.58008 19.9902 4.28908 19.9902 6.39108V9.83008C19.9902 10.0971 19.8482 10.3431 19.6192 10.4771C16.9622 12.0331 13.5422 12.8911 9.99024 12.8911Z" fill="#212121"/>
    </g>
    <mask id="mask1_430_8626" style="mask-type:luminance" maskUnits="userSpaceOnUse" x="5" y="0" width="10" height="5">
        <path fill-rule="evenodd" clip-rule="evenodd" d="M5.74512 0.000244141H14.2451V4.07614H5.74512V0.000244141Z" fill="white"/>
    </mask>
    <g mask="url(#mask1_430_8626)">
        <path fill-rule="evenodd" clip-rule="evenodd" d="M13.4951 4.07612C13.0811 4.07612 12.7451 3.74012 12.7451 3.32612V2.96012C12.7451 2.15512 12.0901 1.50012 11.2851 1.50012H8.70512C7.90012 1.50012 7.24512 2.15512 7.24512 2.96012V3.32612C7.24512 3.74012 6.90912 4.07612 6.49512 4.07612C6.08112 4.07612 5.74512 3.74012 5.74512 3.32612V2.96012C5.74512 1.32812 7.07312 0.00012207 8.70512 0.00012207H11.2851C12.9171 0.00012207 14.2451 1.32812 14.2451 2.96012V3.32612C14.2451 3.74012 13.9091 4.07612 13.4951 4.07612Z" fill="#212121"/>
    </g>
    <path fill-rule="evenodd" clip-rule="evenodd" d="M15.7951 19.7402H4.19506C2.12006 19.7402 0.373062 18.1192 0.216062 16.0492L0.0260623 13.5402C-0.00493768 13.1272 0.305062 12.7662 0.718062 12.7352C1.13306 12.7202 1.49106 13.0132 1.52306 13.4272L1.71206 15.9352C1.81006 17.2272 2.90006 18.2402 4.19506 18.2402H15.7951C17.0901 18.2402 18.1811 17.2272 18.2781 15.9352L18.4681 13.4272C18.5001 13.0132 18.8671 12.7192 19.2731 12.7352C19.6861 12.7662 19.9951 13.1272 19.9641 13.5402L19.7741 16.0492C19.6171 18.1192 17.8701 19.7402 15.7951 19.7402Z" fill="#212121"/>
</svg>
