<svg width="24" height="25" viewBox="0 0 24 25" fill="none" xmlns="http://www.w3.org/2000/svg">
    <g clip-path="url(#clip0_1845_9292)">
        <path d="M16.7729 0.762011C16.7219 0.705011 14.8844 0.784511 13.2854 2.52001C11.6864 4.25401 11.9324 6.24301 11.9684 6.29401C12.0044 6.34501 14.2484 6.42451 15.6809 4.40701C17.1134 2.38951 16.8239 0.820511 16.7729 0.762011ZM21.7439 18.3615C21.6719 18.2175 18.2564 16.5105 18.5744 13.2285C18.8924 9.94501 21.0869 9.04501 21.1214 8.94751C21.1559 8.85001 20.2259 7.76251 19.2404 7.21201C18.5168 6.82389 17.716 6.60152 16.8959 6.56101C16.7339 6.55651 16.1714 6.41851 15.0149 6.73501C14.2529 6.94351 12.5354 7.61851 12.0629 7.64551C11.5889 7.67251 10.1789 6.86251 8.66239 6.64801C7.69189 6.46051 6.66289 6.84451 5.92639 7.14001C5.19139 7.43401 3.79339 8.27101 2.81539 10.4955C1.83739 12.7185 2.34889 16.2405 2.71489 17.3355C3.08089 18.429 3.65239 20.2215 4.62439 21.5295C5.48839 23.0055 6.63439 24.03 7.11289 24.378C7.59139 24.726 8.94139 24.957 9.87739 24.4785C10.6304 24.0165 11.9894 23.751 12.5264 23.7705C13.0619 23.79 14.1179 24.0015 15.1994 24.579C16.0559 24.8745 16.8659 24.7515 17.6774 24.4215C18.4889 24.09 19.6634 22.833 21.0344 20.2845C21.5549 19.0995 21.7919 18.459 21.7439 18.3615Z" fill="black"/>
        <path d="M16.7729 0.762011C16.7219 0.705011 14.8844 0.784511 13.2854 2.52001C11.6864 4.25401 11.9324 6.24301 11.9684 6.29401C12.0044 6.34501 14.2484 6.42451 15.6809 4.40701C17.1134 2.38951 16.8239 0.820511 16.7729 0.762011ZM21.7439 18.3615C21.6719 18.2175 18.2564 16.5105 18.5744 13.2285C18.8924 9.94501 21.0869 9.04501 21.1214 8.94751C21.1559 8.85001 20.2259 7.76251 19.2404 7.21201C18.5168 6.82389 17.716 6.60152 16.8959 6.56101C16.7339 6.55651 16.1714 6.41851 15.0149 6.73501C14.2529 6.94351 12.5354 7.61851 12.0629 7.64551C11.5889 7.67251 10.1789 6.86251 8.66239 6.64801C7.69189 6.46051 6.66289 6.84451 5.92639 7.14001C5.19139 7.43401 3.79339 8.27101 2.81539 10.4955C1.83739 12.7185 2.34889 16.2405 2.71489 17.3355C3.08089 18.429 3.65239 20.2215 4.62439 21.5295C5.48839 23.0055 6.63439 24.03 7.11289 24.378C7.59139 24.726 8.94139 24.957 9.87739 24.4785C10.6304 24.0165 11.9894 23.751 12.5264 23.7705C13.0619 23.79 14.1179 24.0015 15.1994 24.579C16.0559 24.8745 16.8659 24.7515 17.6774 24.4215C18.4889 24.09 19.6634 22.833 21.0344 20.2845C21.5549 19.0995 21.7919 18.459 21.7439 18.3615Z" fill="black"/>
    </g>
    <defs>
        <clipPath id="clip0_1845_9292">
            <rect width="24" height="24" fill="white" transform="translate(0 0.75)"/>
        </clipPath>
    </defs>
</svg>
