<svg width="25" height="25" viewBox="0 0 25 25" fill="none" xmlns="http://www.w3.org/2000/svg">
    <g clip-path="url(#clip0_1845_9320)">
        <path d="M24.0078 12.9744C24.0078 11.9912 23.9295 11.2736 23.7598 10.5295H12.7295V14.9675H19.2041C19.0736 16.0704 18.3687 17.7314 16.8022 18.8475L16.7802 18.996L20.2678 21.7462L20.5095 21.7708C22.7285 19.6846 24.0078 16.6152 24.0078 12.9744Z" fill="#4285F4"/>
        <path d="M12.7296 24.6676C15.9016 24.6676 18.5645 23.6045 20.5095 21.7709L16.8023 18.8476C15.8102 19.5518 14.4787 20.0434 12.7296 20.0434C9.6228 20.0434 6.98598 17.9574 6.04603 15.074L5.90825 15.0859L2.2818 17.9427L2.23438 18.0769C4.1663 21.9834 8.13462 24.6676 12.7296 24.6676Z" fill="#34A853"/>
        <path d="M6.04621 15.074C5.7982 14.33 5.65466 13.5326 5.65466 12.7089C5.65466 11.885 5.7982 11.0878 6.03316 10.3437L6.02659 10.1852L2.3547 7.28247L2.23457 7.34064C1.43833 8.96174 0.981445 10.7822 0.981445 12.7089C0.981445 14.6355 1.43833 16.4559 2.23457 18.077L6.04621 15.074Z" fill="#FBBC05"/>
        <path d="M12.7295 5.37403C14.9356 5.37403 16.4237 6.34401 17.2722 7.15461L20.5878 3.85928C18.5515 1.9326 15.9015 0.75 12.7295 0.75C8.13462 0.75 4.1663 3.43406 2.23438 7.34056L6.03297 10.3436C6.98597 7.4602 9.62279 5.37403 12.7295 5.37403Z" fill="#EB4335"/>
    </g>
    <defs>
        <clipPath id="clip0_1845_9320">
            <rect width="23.04" height="24" fill="white" transform="translate(0.980469 0.75)"/>
        </clipPath>
    </defs>
</svg>
