<svg width="24" height="24" viewBox="0 0 22 16" fill="none" xmlns="http://www.w3.org/2000/svg">
    <path fill-rule="evenodd" clip-rule="evenodd" d="M15.2969 11.5383C15.3778 13.3704 13.8992 14.9196 11.9946 14.9975C11.8543 15.0034 5.01531 14.9896 5.01531 14.9896C3.11996 15.1335 1.46115 13.7715 1.31165 11.9463C1.30039 11.8103 1.30346 4.47219 1.30346 4.47219C1.21949 2.63815 2.69604 1.08499 4.60163 1.00418C4.74396 0.997278 11.5738 1.01009 11.5738 1.01009C13.4783 0.868176 15.1423 2.24001 15.2897 4.07405C15.3 4.2061 15.2969 11.5383 15.2969 11.5383Z" stroke="#212121" stroke-width="1.5" stroke-linecap="round" stroke-linejoin="round"/>
    <path d="M15.3 5.97984L18.593 3.28484C19.409 2.61684 20.633 3.19884 20.632 4.25184L20.62 11.6008C20.619 12.6538 19.394 13.2308 18.58 12.5628L15.3 9.86784" stroke="#212121" stroke-width="1.5" stroke-linecap="round" stroke-linejoin="round"/>
</svg>
