<svg width="12" height="18" viewBox="0 0 12 18" fill="none" xmlns="http://www.w3.org/2000/svg">
<g id="Arrow - Up 3">
<path id="Arrow - Up 3_2" d="M0.589897 8.85853C0.716135 9.09252 0.956179 9.2384 1.21726 9.2384H5.28271V17.2657C5.28271 17.671 5.60404 18 5.99997 18C6.3959 18 6.71724 17.671 6.71724 17.2657V9.2384H10.7827C11.0447 9.2384 11.2848 9.09252 11.4101 8.85853C11.5372 8.62453 11.5286 8.33865 11.39 8.11248L6.60726 0.342671C6.47528 0.129236 6.24671 0 5.99997 0C5.75324 0 5.52467 0.129236 5.39269 0.342671L0.60998 8.11248C0.537298 8.23193 0.5 8.36802 0.5 8.50411C0.5 8.62551 0.530603 8.74789 0.589897 8.85853Z" fill="#212121"/>
</g>
</svg>
