<svg width="12" height="18" viewBox="0 0 12 18" fill="none" xmlns="http://www.w3.org/2000/svg">
<g id="Arrow - Down 3">
<path id="Arrow - Down 3_2" d="M11.4101 9.14147C11.2839 8.90748 11.0438 8.7616 10.7827 8.7616H6.71729V0.734294C6.71729 0.328964 6.39596 0 6.00003 0C5.6041 0 5.28276 0.328964 5.28276 0.734294V8.7616H1.21731C0.955274 8.7616 0.71523 8.90748 0.589948 9.14147C0.462753 9.37547 0.471361 9.66135 0.610031 9.88752L5.39274 17.6573C5.52472 17.8708 5.75329 18 6.00003 18C6.24676 18 6.47533 17.8708 6.60731 17.6573L11.39 9.88752C11.4627 9.76807 11.5 9.63198 11.5 9.49589C11.5 9.37449 11.4694 9.25211 11.4101 9.14147Z" fill="#212121"/>
</g>
</svg>
