<svg width="12" height="18" viewBox="0 0 12 18" fill="none" xmlns="http://www.w3.org/2000/svg">
<g id="Arrow - Up">
<path id="Arrow - Up_2" fill-rule="evenodd" clip-rule="evenodd" d="M6.00661 10.165L6.3607 10.1634C7.76518 10.1513 9.01826 10.0666 9.81237 9.92061C9.82669 9.92061 10.6143 9.76134 10.8764 9.65988C11.2554 9.50061 11.577 9.21262 11.7808 8.85153C11.9262 8.56244 12 8.25917 12 7.94172C11.9884 7.69218 11.8629 7.28064 11.7576 6.98692L11.664 6.74283C11.0218 5.12612 8.92344 2.03561 7.64017 0.85199L7.55047 0.764728L7.13016 0.375268C6.80852 0.129817 6.41527 0 5.99229 0C5.61337 0 5.23444 0.115635 4.92822 0.346905C4.82901 0.41614 4.70173 0.527664 4.59419 0.626929L4.19739 1.006C2.87572 2.31046 1.02183 5.13485 0.407564 6.59883C0.394346 6.59883 0.0143198 7.50864 0 7.94172V7.99954C0 8.66389 0.378924 9.28461 0.991371 9.60207C1.1588 9.68879 1.48678 9.77197 1.77483 9.83524L2.31871 9.94897C3.19332 10.0788 4.53497 10.165 6.00661 10.165ZM4.48166 16.4967C4.48166 17.3269 5.1613 18 5.99956 18C6.83782 18 7.51746 17.3269 7.51746 16.4967L7.19031 12.7975C7.19031 12.1463 6.65827 11.6183 5.99956 11.6183C5.34195 11.6183 4.80881 12.1463 4.80881 12.7975L4.48166 16.4967Z" fill="#212121"/>
</g>
</svg>
