<svg width="12" height="18" viewBox="0 0 12 18" fill="none" xmlns="http://www.w3.org/2000/svg">
<g id="Arrow - Down">
<path id="Arrow - Down_2" fill-rule="evenodd" clip-rule="evenodd" d="M4.48254 1.50325L4.80969 5.20248C4.80969 5.85375 5.34173 6.38174 6.00044 6.38174C6.65805 6.38174 7.19119 5.85375 7.19119 5.20248L7.51834 1.50325C7.51834 0.673083 6.8387 0 6.00044 0C5.16218 0 4.48254 0.673083 4.48254 1.50325ZM4.75012 17.5141C4.80638 17.5653 4.84952 17.6046 4.86984 17.6247C5.19148 17.8702 5.58473 18 6.00771 18C6.38663 18 6.76556 17.8844 7.07178 17.6531C7.28438 17.5047 7.62585 17.1622 7.62585 17.1622C8.95319 15.9491 10.9502 12.9317 11.5924 11.4012C11.6057 11.4012 11.9857 10.4914 12 10.0583V10.0005C12 9.33611 11.6211 8.71539 11.0086 8.39793C10.7554 8.26677 10.1349 8.14371 9.84077 8.08537C9.74596 8.06657 9.68505 8.05449 9.68129 8.05103C8.80668 7.92121 7.46503 7.83503 5.99339 7.83503C4.44685 7.83503 3.04792 7.92121 2.18763 8.07939C2.17331 8.07939 1.38572 8.23866 1.12355 8.34012C0.74463 8.49939 0.422985 8.78738 0.219203 9.14847C0.0738021 9.43756 0 9.74083 0 10.0583C0.0154213 10.391 0.233523 11.0117 0.335965 11.2572C0.978153 12.8739 3.07656 15.9644 4.35983 17.148C4.4934 17.2803 4.64476 17.4181 4.75012 17.5141Z" fill="#212121"/>
</g>
</svg>
