<svg width="20" height="20" viewBox="0 0 20 20" fill="none" xmlns="http://www.w3.org/2000/svg">
<g id="Arrow - Up Square">
<path id="Arrow - Up Square_2" fill-rule="evenodd" clip-rule="evenodd" d="M20 5.92V14.09C20 17.62 17.729 20 14.34 20H5.67C2.28 20 0 17.62 0 14.09V5.92C0 2.38 2.28 0 5.67 0H14.34C17.729 0 20 2.38 20 5.92ZM9.25 7.73V14.08C9.25 14.5 9.59 14.83 10 14.83C10.42 14.83 10.75 14.5 10.75 14.08V7.73L13.22 10.21C13.36 10.35 13.56 10.43 13.75 10.43C13.939 10.43 14.13 10.35 14.28 10.21C14.57 9.92 14.57 9.44 14.28 9.15L10.53 5.38C10.25 5.1 9.75 5.1 9.47 5.38L5.72 9.15C5.43 9.44 5.43 9.92 5.72 10.21C6.02 10.5 6.49 10.5 6.79 10.21L9.25 7.73Z" fill="#212121"/>
</g>
</svg>
