<svg width="20" height="20" viewBox="0 0 20 20" fill="none" xmlns="http://www.w3.org/2000/svg">
<g id="Arrow - Down Square">
<path id="Arrow - Down Square_2" fill-rule="evenodd" clip-rule="evenodd" d="M0 14.0801V5.91009C0 2.38009 2.271 9.15527e-05 5.66 9.15527e-05H14.33C17.72 9.15527e-05 20 2.38009 20 5.91009V14.0801C20 17.6201 17.72 20.0001 14.33 20.0001H5.66C2.271 20.0001 0 17.6201 0 14.0801ZM10.75 12.2701V5.92009C10.75 5.50009 10.41 5.17009 10 5.17009C9.58 5.17009 9.25 5.50009 9.25 5.92009V12.2701L6.78 9.79009C6.64 9.65009 6.44 9.57009 6.25 9.57009C6.061 9.57009 5.87 9.65009 5.72 9.79009C5.43 10.0801 5.43 10.5601 5.72 10.8501L9.47 14.6201C9.75 14.9001 10.25 14.9001 10.53 14.6201L14.28 10.8501C14.57 10.5601 14.57 10.0801 14.28 9.79009C13.98 9.50009 13.51 9.50009 13.21 9.79009L10.75 12.2701Z" fill="#212121"/>
</g>
</svg>
