<svg width="20" height="20" viewBox="0 0 20 20" fill="none" xmlns="http://www.w3.org/2000/svg">
<g id="Arrow - Down Circle">
<path id="Arrow - Down Circle_2" fill-rule="evenodd" clip-rule="evenodd" d="M10 19.9999C4.48 19.9999 0 15.5099 0 9.99991C0 4.47991 4.48 -9.15527e-05 10 -9.15527e-05C15.51 -9.15527e-05 20 4.47991 20 9.99991C20 15.5099 15.51 19.9999 10 19.9999ZM14 8.01991C13.7 7.72991 13.23 7.72991 12.94 8.02991L10 10.9799L7.06 8.02991C6.77 7.72991 6.29 7.72991 6 8.01991C5.7 8.31991 5.7 8.78991 6 9.07991L9.47 12.5699C9.61 12.7099 9.8 12.7899 10 12.7899C10.2 12.7899 10.39 12.7099 10.53 12.5699L14 9.07991C14.15 8.93991 14.22 8.74991 14.22 8.55991C14.22 8.35991 14.15 8.16991 14 8.01991Z" fill="#212121"/>
</g>
</svg>
