<svg width="20" height="20" viewBox="0 0 20 20" fill="none" xmlns="http://www.w3.org/2000/svg">
<g id="Arrow - Up Circle">
<path id="Arrow - Up Circle_2" fill-rule="evenodd" clip-rule="evenodd" d="M10 0C15.52 0 20 4.49 20 10L19.9962 10.2798C19.8478 15.6706 15.4264 20 10 20C4.49 20 0 15.52 0 10C0 4.49 4.49 0 10 0ZM6 11.98C6.3 12.27 6.77 12.27 7.06 11.97L10 9.02L12.94 11.97C13.23 12.27 13.71 12.27 14 11.98C14.3 11.68 14.3 11.21 14 10.92L10.53 7.43C10.39 7.29 10.2 7.21 10 7.21C9.8 7.21 9.61 7.29 9.47 7.43L6 10.92C5.85 11.06 5.78 11.25 5.78 11.44C5.78 11.64 5.85 11.83 6 11.98Z" fill="#212121"/>
</g>
</svg>
