<svg width="20" height="20" viewBox="0 0 20 20" fill="none" xmlns="http://www.w3.org/2000/svg">
<g id="Bag 2">
<path id="Bag 2_2" fill-rule="evenodd" clip-rule="evenodd" d="M14.4184 4.47H14.6232C17.3152 4.47 19.5 6.72 19.5 9.48V15C19.5 17.76 17.3152 20 14.6232 20H5.3768C2.6848 20 0.5 17.76 0.5 15V9.48C0.5 6.72 2.6848 4.47 5.3768 4.47H5.58162C5.60113 3.27 6.05955 2.15 6.8886 1.31C7.72741 0.46 8.80031 0.03 10.0098 0C12.4286 0 14.3891 2 14.4184 4.47ZM7.91273 2.38C7.36653 2.94 7.06417 3.68 7.04466 4.47H12.9553C12.9261 2.83 11.6191 1.5 10.0098 1.5C9.25873 1.5 8.47844 1.81 7.91273 2.38ZM13.7064 8.32C14.116 8.32 14.4379 7.98 14.4379 7.57V6.41C14.4379 6 14.116 5.66 13.7064 5.66C13.3065 5.66 12.9748 6 12.9748 6.41V7.57C12.9748 7.98 13.3065 8.32 13.7064 8.32ZM6.93737 7.57C6.93737 7.98 6.6155 8.32 6.20585 8.32C5.80595 8.32 5.47433 7.98 5.47433 7.57V6.41C5.47433 6 5.80595 5.66 6.20585 5.66C6.6155 5.66 6.93737 6 6.93737 6.41V7.57Z" fill="#212121"/>
</g>
</svg>
