<svg width="20" height="21" viewBox="0 0 20 21" fill="none" xmlns="http://www.w3.org/2000/svg">
<g id="Call Silent">
<g id="Group">
<path id="Combined Shape" fill-rule="evenodd" clip-rule="evenodd" d="M19.3749 1.86948V1.85931C19.7019 1.51374 19.7019 0.97505 19.3749 0.629476C19.2163 0.466853 18.9982 0.364197 18.7702 0.364197C18.5423 0.364197 18.3242 0.466853 18.1755 0.629476L0.215352 19.0567C0.185617 19.0872 0.165793 19.1167 0.145969 19.1482L0.116234 19.1888C-0.0720901 19.5141 -0.0324429 19.9511 0.245087 20.2459C0.4235 20.4085 0.631647 20.5 0.849707 20.5C1.06777 20.5 1.27591 20.4085 1.44441 20.2459L6.80607 14.7478C14.2065 21.9875 16.6904 19.3327 17.2652 18.7184C17.3032 18.6777 17.3329 18.646 17.3551 18.6266C20.0221 15.9051 19.2877 15.1915 17.4481 13.4043L17.4481 13.4043C17.1913 13.1547 16.9129 12.8842 16.6192 12.5844C15.5132 11.4605 14.724 11.7446 13.8469 12.0604C12.8813 12.408 11.8092 12.7939 10.0904 11.3824L9.56259 11.9212L9.95865 11.5151L19.3749 1.86948ZM4.18525 12.2053C-1.80767 5.41506 0.575807 3.0604 1.15895 2.48431C1.20162 2.44215 1.23466 2.40951 1.25406 2.38536C3.94103 -0.339797 4.64023 0.407315 6.39096 2.27801C6.63969 2.54378 6.90964 2.83222 7.20953 3.13661C8.315 4.26403 8.03874 5.07031 7.73138 5.96734C7.47405 6.71836 7.19492 7.53299 7.6866 8.65294L4.18525 12.2053Z" fill="#212121"/>
</g>
</g>
</svg>
