<svg width="20" height="20" viewBox="0 0 20 20" fill="none" xmlns="http://www.w3.org/2000/svg">
<g id="Chart">
<path id="Chart_2" fill-rule="evenodd" clip-rule="evenodd" d="M5.33049 0.000396729H14.6695C18.0705 0.000396729 19.9905 1.9294 20.0005 5.3304V14.6704C20.0005 18.0704 18.0705 20.0004 14.6695 20.0004H5.33049C1.92949 20.0004 0.000488281 18.0704 0.000488281 14.6704V5.3304C0.000488281 1.9294 1.92949 0.000396729 5.33049 0.000396729ZM10.0495 15.8604C10.4805 15.8604 10.8395 15.5404 10.8795 15.1104V4.9204C10.9195 4.6104 10.7705 4.2994 10.5005 4.1304C10.2195 3.9604 9.87949 3.9604 9.61049 4.1304C9.33949 4.2994 9.19049 4.6104 9.21949 4.9204V15.1104C9.27049 15.5404 9.62949 15.8604 10.0495 15.8604ZM14.6505 15.8604C15.0705 15.8604 15.4295 15.5404 15.4805 15.1104V11.8304C15.5095 11.5094 15.3605 11.2104 15.0895 11.0404C14.8205 10.8704 14.4805 10.8704 14.2005 11.0404C13.9295 11.2104 13.7805 11.5094 13.8205 11.8304V15.1104C13.8605 15.5404 14.2195 15.8604 14.6505 15.8604ZM6.21949 15.1104C6.17949 15.5404 5.82049 15.8604 5.38949 15.8604C4.95949 15.8604 4.59949 15.5404 4.56049 15.1104V8.2004C4.53049 7.8894 4.67949 7.5804 4.95049 7.4104C5.21949 7.2404 5.56049 7.2404 5.83049 7.4104C6.09949 7.5804 6.25049 7.8894 6.21949 8.2004V15.1104Z" fill="#212121"/>
</g>
</svg>
