<svg width="20" height="20" viewBox="0 0 20 20" fill="none" xmlns="http://www.w3.org/2000/svg">
<g id="Discount">
<path id="Discount_2" fill-rule="evenodd" clip-rule="evenodd" d="M18.3992 7.14599L19.1194 7.86599C19.6897 8.42599 19.9998 9.18599 19.9998 9.98599C20.0098 10.786 19.6997 11.547 19.1395 12.116C19.1328 12.1233 19.1261 12.1298 19.1194 12.1362C19.1161 12.1394 19.1128 12.1427 19.1094 12.146L18.3992 12.856C18.1191 13.136 17.959 13.516 17.959 13.917V14.946C17.959 16.606 16.6085 17.957 14.9479 17.957H13.9176C13.5174 17.957 13.1373 18.116 12.8572 18.396L12.1369 19.116C11.5467 19.707 10.7764 19.996 10.0061 19.996C9.23586 19.996 8.46558 19.707 7.87537 19.127L7.14511 18.396C6.865 18.116 6.48487 17.957 6.08472 17.957H5.05435C3.39375 17.957 2.04326 16.606 2.04326 14.946V13.917C2.04326 13.516 1.8832 13.136 1.6031 12.846L0.882836 12.136C-0.287588 10.967 -0.297592 9.05599 0.872832 7.87699L1.6031 7.14599C1.8832 6.86599 2.04326 6.48599 2.04326 6.07599V5.05599C2.04326 3.39599 3.39375 2.04699 5.05435 2.04699H6.08472C6.48487 2.04699 6.865 1.88599 7.14511 1.60599L7.86537 0.885989C9.03579 -0.293011 10.9465 -0.293011 12.1269 0.876989L12.8572 1.60599C13.1373 1.88599 13.5174 2.04699 13.9176 2.04699H14.9479C16.6085 2.04699 17.959 3.39599 17.959 5.05599V6.08699C17.959 6.48599 18.1191 6.86599 18.3992 7.14599ZM7.42521 13.446C7.66529 13.446 7.88537 13.356 8.04543 13.186L13.1873 8.04699C13.5274 7.70699 13.5274 7.14599 13.1873 6.80599C12.8472 6.46699 12.297 6.46699 11.9569 6.80599L6.81499 11.946C6.47486 12.286 6.47486 12.846 6.81499 13.186C6.97504 13.356 7.19512 13.446 7.42521 13.446ZM11.6968 12.566C11.6968 13.056 12.0869 13.446 12.5771 13.446C13.0572 13.446 13.4474 13.056 13.4474 12.566C13.4474 12.087 13.0572 11.696 12.5771 11.696C12.0869 11.696 11.6968 12.087 11.6968 12.566ZM7.43521 6.55599C7.91539 6.55599 8.30553 6.94599 8.30553 7.42599C8.30553 7.91699 7.91539 8.30599 7.43521 8.30599C6.95504 8.30599 6.55489 7.91699 6.55489 7.42599C6.55489 6.94599 6.95504 6.55599 7.43521 6.55599Z" fill="#212121"/>
</g>
</svg>
