<svg width="20" height="20" viewBox="0 0 20 20" fill="none" xmlns="http://www.w3.org/2000/svg">
<g id="Edit Square">
<path id="Edit Square_2" fill-rule="evenodd" clip-rule="evenodd" d="M14.6653 0.0103353C16.1038 -0.0795717 17.5224 0.419911 18.5913 1.3989C19.5703 2.46779 20.0697 3.88633 19.9898 5.33483V14.6652C20.0797 16.1137 19.5703 17.5322 18.6013 18.6011C17.5323 19.5801 16.1038 20.0796 14.6653 19.9897H5.33487C3.88636 20.0796 2.46781 19.5801 1.39891 18.6011C0.419915 17.5322 -0.0795724 16.1137 0.0103353 14.6652V5.33483C-0.0795724 3.88633 0.419915 2.46779 1.39891 1.3989C2.46781 0.419911 3.88636 -0.0795717 5.33487 0.0103353H14.6653ZM8.98113 14.845L15.7042 8.10196C16.3136 7.4826 16.3136 6.48364 15.7042 5.87427L14.4056 4.57561C13.7862 3.95625 12.7872 3.95625 12.1679 4.57561L11.4985 5.25491C11.3986 5.35481 11.3986 5.52463 11.4985 5.62453C11.4985 5.62453 13.0869 7.20289 13.1169 7.24285C13.2268 7.36273 13.2967 7.52256 13.2967 7.70238C13.2967 8.06201 13.007 8.36169 12.6374 8.36169C12.4675 8.36169 12.3077 8.29177 12.1978 8.18188L10.5295 6.5236C10.4496 6.44368 10.3098 6.44368 10.2298 6.5236L5.46474 11.2887C5.13507 11.6183 4.94527 12.0579 4.93528 12.5274L4.87534 14.8949C4.87534 15.0248 4.9153 15.1447 5.00521 15.2346C5.09512 15.3245 5.21499 15.3744 5.34486 15.3744H7.69245C8.17196 15.3744 8.63149 15.1846 8.98113 14.845Z" fill="#212121"/>
</g>
</svg>
