<svg width="28" height="28" viewBox="0 0 28 28" fill="none" xmlns="http://www.w3.org/2000/svg">
    <path d="M13.9997 18.6666C16.577 18.6666 18.6663 16.5772 18.6663 13.9999C18.6663 11.4226 16.577 9.33325 13.9997 9.33325C11.4223 9.33325 9.33301 11.4226 9.33301 13.9999C9.33301 16.5772 11.4223 18.6666 13.9997 18.6666Z" fill="#35383F"/>
    <path d="M15.1663 4.74708V2.33325H12.833V4.74708C10.78 5.00921 8.87214 5.94545 7.40867 7.40892C5.94521 8.87238 5.00897 10.7803 4.74684 12.8333H2.33301V15.1666H4.74684C5.00859 17.2197 5.9447 19.1278 7.40824 20.5914C8.87177 22.0549 10.7799 22.991 12.833 23.2528V25.6666H15.1663V23.2528C17.2196 22.9912 19.1278 22.0551 20.5913 20.5916C22.0549 19.128 22.991 17.2198 23.2525 15.1666H25.6663V12.8333H23.2525C22.9908 10.7801 22.0546 8.87202 20.5911 7.40848C19.1276 5.94494 17.2195 5.00883 15.1663 4.74708ZM13.9997 20.9999C10.1392 20.9999 6.99967 17.8604 6.99967 13.9999C6.99967 10.1394 10.1392 6.99992 13.9997 6.99992C17.8602 6.99992 20.9997 10.1394 20.9997 13.9999C20.9997 17.8604 17.8602 20.9999 13.9997 20.9999Z" fill="#35383F"/>
</svg>
