<svg width="20" height="20" viewBox="0 0 20 20" fill="none" xmlns="http://www.w3.org/2000/svg">
<g id="Image 2">
<path id="Image 2_2" fill-rule="evenodd" clip-rule="evenodd" d="M5.63751 1.39543C3.06051 1.39543 1.39551 3.16243 1.39551 5.88843V14.1024C1.39551 14.8674 1.53751 15.5504 1.78051 16.1414C1.791 16.1289 2.01987 15.85 2.31843 15.4862C2.90191 14.7751 3.75156 13.7397 3.75751 13.7344C4.44951 12.9444 5.74851 11.7664 7.45351 12.4794C7.82712 12.6343 8.15922 12.8465 8.46493 13.0419C8.4947 13.0609 8.52422 13.0798 8.55351 13.0984C9.12651 13.4814 9.46351 13.6614 9.81351 13.6314C9.95851 13.6114 10.0945 13.5684 10.2235 13.4884C10.7101 13.1884 11.9718 11.4008 12.3496 10.8655C12.405 10.787 12.4414 10.7354 12.4535 10.7194C13.5435 9.29943 15.2235 8.91943 16.6235 9.75943C16.8115 9.87143 18.1585 10.8124 18.6045 11.1904V5.88843C18.6045 3.16243 16.9395 1.39543 14.3535 1.39543H5.63751ZM14.3535 0.000427246C17.7305 0.000427246 19.9995 2.36243 19.9995 5.88843V14.1024C19.9995 14.1911 19.9902 14.2743 19.9809 14.3574C19.9744 14.4158 19.9678 14.4742 19.9645 14.5344C19.9624 14.5709 19.9613 14.6073 19.9603 14.6437C19.9589 14.6923 19.9575 14.7409 19.9535 14.7894C19.9515 14.8084 19.9478 14.8267 19.944 14.8449C19.9403 14.8632 19.9365 14.8814 19.9345 14.9004C19.9015 15.2144 19.8505 15.5144 19.7795 15.8054C19.7627 15.8781 19.7433 15.9482 19.7238 16.019L19.7195 16.0344C19.6395 16.3164 19.5455 16.5854 19.4325 16.8424C19.4127 16.8856 19.3918 16.9278 19.3709 16.9699C19.357 16.998 19.3431 17.026 19.3295 17.0544C19.2075 17.2994 19.0755 17.5344 18.9225 17.7524C18.8942 17.7928 18.8641 17.8306 18.8339 17.8685C18.814 17.8935 18.794 17.9186 18.7745 17.9444C18.6155 18.1504 18.4495 18.3474 18.2615 18.5264C18.224 18.5621 18.1834 18.5948 18.1428 18.6274C18.1175 18.6479 18.0921 18.6683 18.0675 18.6894C17.8745 18.8554 17.6775 19.0144 17.4605 19.1504C17.4132 19.1802 17.3628 19.2051 17.3127 19.23C17.2803 19.2461 17.2479 19.2621 17.2165 19.2794C16.9955 19.4014 16.7725 19.5204 16.5295 19.6124C16.4711 19.6346 16.4088 19.6507 16.3465 19.6668C16.3021 19.6783 16.2577 19.6897 16.2145 19.7034C16.1929 19.7101 16.1713 19.7169 16.1497 19.7236C15.9326 19.7911 15.7162 19.8584 15.4825 19.8984C15.3471 19.9222 15.2034 19.9313 15.0596 19.9404C14.9974 19.9443 14.9351 19.9483 14.8735 19.9534C14.8073 19.9584 14.7423 19.9664 14.6773 19.9744C14.5716 19.9874 14.4656 20.0004 14.3535 20.0004H5.63751C5.26151 20.0004 4.90251 19.9624 4.55551 19.9054C4.54251 19.9034 4.53051 19.9014 4.51851 19.8994C3.16551 19.6664 2.04251 19.0134 1.25551 18.0284C1.25005 18.0284 1.2479 18.0247 1.24504 18.0198C1.24319 18.0166 1.24105 18.013 1.23751 18.0094C0.446512 17.0134 -0.000488281 15.6744 -0.000488281 14.1024V5.88843C-0.000488281 2.36243 2.27051 0.000427246 5.63751 0.000427246H14.3535ZM9.00011 6.51499C9.00011 7.86994 7.86639 9.00003 6.50496 9.00003C5.30825 9.00003 4.2879 8.12568 4.05922 6.99366C4.02143 6.82381 4.00011 6.64913 4.00011 6.46866C4.00011 5.10406 5.10864 4.00003 6.47879 4.00003C7.17647 4.00003 7.80825 4.29341 8.26077 4.76146C8.71523 5.21311 9.00011 5.83558 9.00011 6.51499Z" fill="#212121"/>
</g>
</svg>
