<svg width="20" height="20" viewBox="0 0 20 20" fill="none" xmlns="http://www.w3.org/2000/svg">
<g id="Info Circle">
<path id="Info Circle_2" fill-rule="evenodd" clip-rule="evenodd" d="M0 9.9993C0 4.4803 4.48 -0.000701904 10 -0.000701904C15.53 -0.000701904 20 4.4803 20 9.9993C20 15.5203 15.53 19.9993 10 19.9993C4.48 19.9993 0 15.5203 0 9.9993ZM9.12 6.2093C9.12 5.7303 9.52 5.3293 10 5.3293C10.48 5.3293 10.87 5.7303 10.87 6.2093V10.6293C10.87 11.1103 10.48 11.4993 10 11.4993C9.52 11.4993 9.12 11.1103 9.12 10.6293V6.2093ZM10.01 14.6803C9.52 14.6803 9.13 14.2803 9.13 13.8003C9.13 13.3203 9.52 12.9303 10 12.9303C10.49 12.9303 10.88 13.3203 10.88 13.8003C10.88 14.2803 10.49 14.6803 10.01 14.6803Z" fill="#212121"/>
</g>
</svg>
