<svg width="20" height="20" viewBox="0 0 20 20" fill="none" xmlns="http://www.w3.org/2000/svg">
<g id="More Circle">
<path id="More Circle_2" fill-rule="evenodd" clip-rule="evenodd" d="M0 9.99991C0 4.47991 4.47 -9.15527e-05 10 -9.15527e-05C15.52 -9.15527e-05 20 4.47991 20 9.99991C20 15.5199 15.52 19.9999 10 19.9999C4.47 19.9999 0 15.5199 0 9.99991ZM5.52 11.1999C4.86 11.1999 4.32 10.6599 4.32 9.99991C4.32 9.33991 4.86 8.80091 5.52 8.80091C6.18 8.80091 6.71 9.33991 6.71 9.99991C6.71 10.6599 6.18 11.1999 5.52 11.1999ZM8.8 9.99991C8.8 10.6599 9.34 11.1999 10 11.1999C10.66 11.1999 11.19 10.6599 11.19 9.99991C11.19 9.33991 10.66 8.80091 10 8.80091C9.34 8.80091 8.8 9.33991 8.8 9.99991ZM13.28 9.99991C13.28 10.6599 13.81 11.1999 14.48 11.1999C15.14 11.1999 15.67 10.6599 15.67 9.99991C15.67 9.33991 15.14 8.80091 14.48 8.80091C13.81 8.80091 13.28 9.33991 13.28 9.99991Z" fill="#212121"/>
</g>
</svg>
