<svg width="20" height="20" viewBox="0 0 20 20" fill="none" xmlns="http://www.w3.org/2000/svg">
<g id="More Square">
<path id="More Square_2" fill-rule="evenodd" clip-rule="evenodd" d="M5.67024 -9.15527e-05H14.3402C17.7302 -9.15527e-05 20.0002 2.37991 20.0002 5.91991V14.0899C20.0002 17.6199 17.7302 19.9999 14.3402 19.9999H5.67024C2.28024 19.9999 0.000244141 17.6199 0.000244141 14.0899V5.91991C0.000244141 2.37991 2.28024 -9.15527e-05 5.67024 -9.15527e-05ZM5.52024 11.1999C4.86024 11.1999 4.32024 10.6599 4.32024 9.99991C4.32024 9.33991 4.86024 8.80091 5.52024 8.80091C6.18024 8.80091 6.72024 9.33991 6.72024 9.99991C6.72024 10.6599 6.18024 11.1999 5.52024 11.1999ZM8.80024 9.99991C8.80024 10.6599 9.34024 11.1999 10.0002 11.1999C10.6602 11.1999 11.2002 10.6599 11.2002 9.99991C11.2002 9.33991 10.6602 8.80091 10.0002 8.80091C9.34024 8.80091 8.80024 9.33991 8.80024 9.99991ZM13.2802 9.99991C13.2802 10.6599 13.8202 11.1999 14.4802 11.1999C15.1402 11.1999 15.6702 10.6599 15.6702 9.99991C15.6702 9.33991 15.1402 8.80091 14.4802 8.80091C13.8202 8.80091 13.2802 9.33991 13.2802 9.99991Z" fill="#212121"/>
</g>
</svg>
