<svg width="20" height="20" viewBox="0 0 20 20" fill="none" xmlns="http://www.w3.org/2000/svg">
<g id="Password">
<path id="Password_2" fill-rule="evenodd" clip-rule="evenodd" d="M15.0108 12.6012C15.4248 12.6012 15.7608 12.2652 15.7608 11.8512V9.99921C15.7608 9.58521 15.4248 9.24921 15.0108 9.24921H9.31876C8.99476 8.18221 8.01276 7.39821 6.84076 7.39821C5.40676 7.39821 4.23976 8.56521 4.23976 9.99921C4.23976 11.4342 5.40676 12.6012 6.84076 12.6012C8.01276 12.6012 8.99476 11.8172 9.31876 10.7492H11.4308V11.8512C11.4308 12.2652 11.7668 12.6012 12.1808 12.6012C12.5948 12.6012 12.9308 12.2652 12.9308 11.8512V10.7492H14.2608V11.8512C14.2608 12.2652 14.5968 12.6012 15.0108 12.6012ZM5.66576 -0.000793457H14.3348C17.7228 -0.000793457 19.9998 2.37721 19.9998 5.91621V14.0832C19.9998 17.6222 17.7228 19.9992 14.3338 19.9992H5.66576C2.27676 19.9992 -0.000244141 17.6222 -0.000244141 14.0832V5.91621C-0.000244141 2.37721 2.27676 -0.000793457 5.66576 -0.000793457ZM5.73886 10.0001C5.73886 9.39211 6.23386 8.89811 6.84086 8.89811C7.44786 8.89811 7.94286 9.39211 7.94286 10.0001C7.94286 10.6071 7.44786 11.1011 6.84086 11.1011C6.23386 11.1011 5.73886 10.6071 5.73886 10.0001Z" fill="#212121"/>
</g>
</svg>
