<svg width="20" height="20" viewBox="0 0 20 20" fill="none" xmlns="http://www.w3.org/2000/svg">
<g id="Setting">
<path id="Setting_2" fill-rule="evenodd" clip-rule="evenodd" d="M18.4023 11.5801C18.76 11.7701 19.036 12.0701 19.2301 12.3701C19.6083 12.9901 19.5776 13.7501 19.2097 14.4201L18.4943 15.6201C18.1162 16.2601 17.411 16.6601 16.6855 16.6601C16.3278 16.6601 15.9292 16.5601 15.6022 16.3601C15.3365 16.1901 15.0299 16.1301 14.7029 16.1301C13.6911 16.1301 12.8429 16.9601 12.8122 17.9501C12.8122 19.1001 11.872 20.0001 10.6968 20.0001H9.30692C8.12145 20.0001 7.18125 19.1001 7.18125 17.9501C7.16081 16.9601 6.31259 16.1301 5.30085 16.1301C4.96361 16.1301 4.65702 16.1901 4.40153 16.3601C4.0745 16.5601 3.66572 16.6601 3.31825 16.6601C2.58245 16.6601 1.87729 16.2601 1.49917 15.6201L0.79402 14.4201C0.415896 13.7701 0.395456 12.9901 0.773581 12.3701C0.937094 12.0701 1.24368 11.7701 1.59115 11.5801C1.87729 11.4401 2.06125 11.2101 2.23498 10.9401C2.74596 10.0801 2.43937 8.95012 1.57071 8.44012C0.55897 7.87012 0.231943 6.60012 0.814459 5.61012L1.49917 4.43012C2.09191 3.44012 3.35913 3.09012 4.38109 3.67012C5.27019 4.15012 6.425 3.83012 6.9462 2.98012C7.10972 2.70012 7.20169 2.40012 7.18125 2.10012C7.16081 1.71012 7.27323 1.34012 7.4674 1.04012C7.84553 0.420122 8.53024 0.0201221 9.27627 0.00012207H10.7172C11.4735 0.00012207 12.1582 0.420122 12.5363 1.04012C12.7203 1.34012 12.8429 1.71012 12.8122 2.10012C12.7918 2.40012 12.8838 2.70012 13.0473 2.98012C13.5685 3.83012 14.7233 4.15012 15.6226 3.67012C16.6344 3.09012 17.9118 3.44012 18.4943 4.43012L19.179 5.61012C19.7718 6.60012 19.4447 7.87012 18.4228 8.44012C17.5541 8.95012 17.2475 10.0801 17.7687 10.9401C17.9322 11.2101 18.1162 11.4401 18.4023 11.5801ZM7.10972 10.0101C7.10972 11.5801 8.4076 12.8301 10.0121 12.8301C11.6165 12.8301 12.8838 11.5801 12.8838 10.0101C12.8838 8.44012 11.6165 7.18012 10.0121 7.18012C8.4076 7.18012 7.10972 8.44012 7.10972 10.0101Z" fill="#212121"/>
</g>
</svg>
