<svg width="18" height="20" viewBox="0 0 18 20" fill="none" xmlns="http://www.w3.org/2000/svg">
<g id="Shield Done">
<path id="Shield Done_2" fill-rule="evenodd" clip-rule="evenodd" d="M8.72812 19.9137C8.83886 19.9715 8.96269 20.0009 9.08652 20C9.21035 19.999 9.33317 19.9686 9.44492 19.9097L13.0128 18.0025C14.0246 17.4631 14.8169 16.8601 15.435 16.1579C16.779 14.6282 17.5129 12.6758 17.4998 10.6626L17.4575 4.02198C17.4535 3.25711 16.9512 2.57461 16.2082 2.32652L9.57076 0.0995642C9.17108 -0.0357592 8.73315 -0.0328174 8.34053 0.106428L1.72827 2.41281C0.989323 2.67071 0.496022 3.35811 0.500049 4.12397L0.542332 10.7597C0.555419 12.7758 1.3145 14.7194 2.68064 16.2335C3.30482 16.9258 4.10417 17.52 5.12702 18.0505L8.72812 19.9137ZM7.7836 12.1089C7.93259 12.2521 8.12589 12.3227 8.31918 12.3207C8.51248 12.3198 8.70476 12.2472 8.85175 12.1021L12.7508 8.2581C13.0438 7.96882 13.0408 7.50401 12.7448 7.21866C12.4478 6.9333 11.9696 6.93526 11.6767 7.22454L8.30811 10.5449L6.92888 9.21909C6.63189 8.93373 6.1547 8.93667 5.86073 9.22595C5.56777 9.51523 5.57079 9.98004 5.86777 10.2654L7.7836 12.1089Z" fill="#212121"/>
</g>
</svg>
