<svg width="20" height="20" viewBox="0 0 20 20" fill="none" xmlns="http://www.w3.org/2000/svg">
<g id="Time Square">
<path id="Time Square_2" fill-rule="evenodd" clip-rule="evenodd" d="M5.67 0.00012207H14.34C17.73 0.00012207 20 2.37912 20 5.91912V14.0891C20 17.6201 17.73 20.0001 14.34 20.0001H5.67C2.28 20.0001 0 17.6201 0 14.0891V5.91912C0 2.37912 2.28 0.00012207 5.67 0.00012207ZM13.58 13.8101C13.83 13.8101 14.08 13.6801 14.22 13.4401C14.44 13.0891 14.32 12.6291 13.96 12.4101L10.4 10.2901V5.66912C10.4 5.26012 10.07 4.91912 9.65 4.91912C9.24 4.91912 8.9 5.26012 8.9 5.66912V10.7201C8.9 10.9801 9.04 11.2301 9.27 11.3601L13.19 13.7001C13.31 13.7801 13.45 13.8101 13.58 13.8101Z" fill="#212121"/>
</g>
</svg>
