<svg width="20" height="21" viewBox="0 0 20 21" fill="none" xmlns="http://www.w3.org/2000/svg">
<g id="Upload">
<path id="Upload_2" fill-rule="evenodd" clip-rule="evenodd" d="M6.46583 3.23624C6.24276 3.53752 6.26838 3.96727 6.5502 4.24C6.8502 4.54 7.3402 4.54 7.6402 4.24L9.2302 2.64V6.78H10.7702V2.64L12.3602 4.24L12.4464 4.31438C12.7477 4.53752 13.1775 4.51273 13.4502 4.24C13.6002 4.09 13.6802 3.89 13.6802 3.69C13.6802 3.5 13.6002 3.3 13.4502 3.15L10.5402 0.23L10.4495 0.14848C10.3202 0.0512 10.1602 0 10.0002 0C9.7902 0 9.6002 0.08 9.4502 0.23L6.5402 3.15L6.46583 3.23624ZM4.23116 6.78512C1.87791 6.89627 0 8.87584 0 11.2875V16.2526L0.00483802 16.4651C0.114098 18.8599 2.06029 20.7802 4.45 20.7802H15.56L15.7688 20.7753C18.1221 20.6641 20 18.6843 20 16.2628V11.3078L19.9951 11.0945C19.8853 8.69086 17.93 6.7802 15.55 6.7802H10.77V12.8849L10.7629 12.9922C10.7112 13.3776 10.385 13.6683 10 13.6683C9.57 13.6683 9.23 13.3224 9.23 12.8849V6.7802H4.44L4.23116 6.78512Z" fill="#212121"/>
</g>
</svg>
