<svg width="18" height="20" viewBox="0 0 18 20" fill="none" xmlns="http://www.w3.org/2000/svg">
<g id="Voice 2">
<path id="Voice 2_2" fill-rule="evenodd" clip-rule="evenodd" d="M9.17476 13.2165H8.82505C6.42166 13.2165 4.47358 11.2928 4.47358 8.92037V4.29708C4.47358 1.92374 6.42166 0 8.82505 0H9.17476C11.1693 0 12.8501 1.32395 13.3645 3.13098C13.4352 3.37874 13.2482 3.62459 12.9886 3.62459H11.8562C11.5142 3.62459 11.2362 3.89818 11.2362 4.23586V4.23682C11.2362 4.57546 11.5142 4.84905 11.8562 4.84905H12.9004C13.2463 4.84905 13.5272 5.12551 13.5272 5.46702C13.5272 5.80853 13.2463 6.08499 12.9004 6.08499H11.8562C11.5142 6.08499 11.2362 6.35953 11.2362 6.69817C11.2362 7.03585 11.5142 7.3104 11.8562 7.3104H12.9004C13.2463 7.3104 13.5272 7.58686 13.5272 7.92933C13.5272 8.26988 13.2463 8.54634 12.9004 8.54634H11.8562C11.5142 8.54634 11.2362 8.82088 11.2362 9.15952C11.2362 9.49721 11.5142 9.7708 11.8562 9.7708H12.9334C13.1988 9.7708 13.3887 10.0272 13.3054 10.2759C12.7309 11.9844 11.0996 13.2165 9.17476 13.2165ZM15.5626 8.78281C15.5626 8.25381 15.9966 7.8262 16.5313 7.8262C17.066 7.8262 17.5 8.25381 17.5 8.78281C17.5 13.0866 14.2006 16.6404 9.9692 17.1177V19.0434C9.9692 19.5714 9.53522 20 9.00048 20C8.46478 20 8.03177 19.5714 8.03177 19.0434V17.1177C3.79945 16.6404 0.5 13.0866 0.5 8.78281C0.5 8.25381 0.933985 7.8262 1.46872 7.8262C2.00345 7.8262 2.43743 8.25381 2.43743 8.78281C2.43743 12.3557 5.38136 15.2629 9.00048 15.2629C12.6186 15.2629 15.5626 12.3557 15.5626 8.78281Z" fill="#212121"/>
</g>
</svg>
