<svg width="22" height="18" viewBox="0 0 22 18" fill="none" xmlns="http://www.w3.org/2000/svg">
<g id="Volume Up">
<path id="Volume Up_2" fill-rule="evenodd" clip-rule="evenodd" d="M12.3571 3.45057C12.3068 2.96423 12.2543 2.45964 12.1254 1.95612C11.7741 0.751539 10.801 1.91049e-05 9.75762 1.91049e-05C9.17565 -0.0021281 8.43954 0.356454 8.0222 0.719331L4.56287 3.61698H2.75194C1.41918 3.61698 0.347511 4.64441 0.145131 6.12706C-0.0268386 7.55065 -0.0687825 10.2379 0.145131 11.8043C0.330733 13.3706 1.35416 14.383 2.75194 14.383H4.56287L8.08931 17.3236C8.45107 17.6382 9.08967 17.9989 9.67688 17.9989C9.71463 18 9.74819 18 9.78174 18C10.845 18 11.7814 17.2206 12.1327 16.0192C12.265 15.5113 12.3114 15.0353 12.3563 14.5752L12.3571 14.5666L12.4043 14.1082C12.5846 12.6213 12.5846 5.36909 12.4043 3.89289L12.3571 3.45057ZM16.4066 3.49459C16.1182 3.06944 15.5467 2.96316 15.1283 3.2584C14.7141 3.55578 14.6114 4.14197 14.8997 4.56604C15.7019 5.74807 16.1434 7.32197 16.1434 9.00001C16.1434 10.677 15.7019 12.2519 14.8997 13.434C14.6114 13.8581 14.7141 14.4442 15.1294 14.7416C15.2846 14.8511 15.466 14.9091 15.6526 14.9091C15.9536 14.9091 16.2346 14.7577 16.4066 14.5054C17.4195 13.0131 17.9784 11.0581 17.9784 9.00001C17.9784 6.94192 17.4195 4.98689 16.4066 3.49459ZM18.2901 0.221073C18.7074 -0.0752403 19.281 0.0331933 19.5673 0.457265C21.136 2.76658 22 5.80165 22 8.9999C22 12.2003 21.136 15.2343 19.5673 17.5436C19.3963 17.7959 19.1143 17.9473 18.8133 17.9473C18.6267 17.9473 18.4463 17.8893 18.2911 17.7798C17.8759 17.4824 17.7731 16.8973 18.0604 16.4722C19.4173 14.4731 20.165 11.8192 20.165 8.9999C20.165 6.1817 19.4173 3.52776 18.0604 1.52872C17.7731 1.10465 17.8759 0.518461 18.2901 0.221073Z" fill="#212121"/>
</g>
</svg>
