<svg width="18" height="18" viewBox="0 0 18 18" fill="none" xmlns="http://www.w3.org/2000/svg">
<g id="Volume Down">
<path id="Volume Down_2" fill-rule="evenodd" clip-rule="evenodd" d="M12.1396 1.95612C12.2687 2.45964 12.3212 2.96423 12.3716 3.45057L12.4188 3.89289C12.5994 5.36909 12.5994 12.6213 12.4188 14.1082L12.3716 14.5666L12.3707 14.5752C12.3259 15.0353 12.2794 15.5113 12.1469 16.0192C11.7952 17.2206 10.8577 18 9.7932 18C9.7596 18 9.72601 18 9.68822 17.9989C9.10031 17.9989 8.46097 17.6382 8.09878 17.3236L4.56822 14.383H2.75517C1.35575 14.383 0.33112 13.3706 0.145301 11.8043C-0.0688631 10.2379 -0.02687 7.55065 0.145301 6.12706C0.347918 4.64441 1.42084 3.61698 2.75517 3.61698H4.56822L8.03159 0.719331C8.44942 0.356454 9.1864 -0.0021281 9.76905 1.91049e-05C10.8136 1.91049e-05 11.7879 0.751539 12.1396 1.95612ZM15.1476 3.2584C15.5665 2.9653 16.1397 3.07052 16.4263 3.49459C17.4404 4.98797 18 6.94299 18 9.00001C18 11.057 17.4404 13.0121 16.4263 14.5054C16.2541 14.7577 15.9728 14.9091 15.6715 14.9091C15.4836 14.9091 15.3019 14.8511 15.1476 14.7416C14.7319 14.4453 14.629 13.8591 14.9177 13.434C15.7208 12.2509 16.1628 10.6759 16.1628 9.00001C16.1628 7.32305 15.7208 5.74915 14.9177 4.56604C14.629 4.14089 14.7319 3.55471 15.1476 3.2584Z" fill="#212121"/>
</g>
</svg>
